<?xml version="1.0" encoding="utf-8" standalone="no"?>
<!DOCTYPE svg PUBLIC "-//W3C//DTD SVG 1.1//EN"
  "http://www.w3.org/Graphics/SVG/1.1/DTD/svg11.dtd">
<svg height="360pt" version="1.1" viewBox="0 0 360 360" width="360pt" xmlns="http://www.w3.org/2000/svg" xmlns:xlink="http://www.w3.org/1999/xlink">
 <metadata>
  <rdf:RDF xmlns:cc="http://creativecommons.org/ns#" xmlns:dc="http://purl.org/dc/elements/1.1/" xmlns:rdf="http://www.w3.org/1999/02/22-rdf-syntax-ns#">
   <cc:Work>
    <dc:type rdf:resource="http://purl.org/dc/dcmitype/StillImage"/>
    <dc:date>2021-04-29T22:20:26.635905</dc:date>
    <dc:format>image/svg+xml</dc:format>
    <dc:creator>
     <cc:Agent>
      <dc:title>Matplotlib v3.4.1, https://matplotlib.org/</dc:title>
     </cc:Agent>
    </dc:creator>
   </cc:Work>
  </rdf:RDF>
 </metadata>
 <defs>
  <style type="text/css">*{stroke-linecap:butt;stroke-linejoin:round;}</style>
 </defs>
 <g id="figure_1">
  <g id="patch_1">
   <path d="M 0 360 
L 360 360 
L 360 0 
L 0 0 
z
" style="fill:none;"/>
  </g>
  <g id="axes_1">
   <g id="patch_2">
    <path d="M 36.8 332.2 
L 344.194198 332.2 
L 344.194198 10.8 
L 36.8 10.8 
z
" style="fill:#ffffff;"/>
   </g>
   <g id="PathCollection_1">
    <defs>
     <path d="M 0 3 
C 0.795609 3 1.55874 2.683901 2.12132 2.12132 
C 2.683901 1.55874 3 0.795609 3 0 
C 3 -0.795609 2.683901 -1.55874 2.12132 -2.12132 
C 1.55874 -2.683901 0.795609 -3 0 -3 
C -0.795609 -3 -1.55874 -2.683901 -2.12132 -2.12132 
C -2.683901 -1.55874 -3 -0.795609 -3 0 
C -3 0.795609 -2.683901 1.55874 -2.12132 2.12132 
C -1.55874 2.683901 -0.795609 3 0 3 
z
" id="mc836094d89" style="stroke:#1f77b4;stroke-opacity:0.8;"/>
    </defs>
    <g clip-path="url(#p33738843fa)">
     <use style="fill:#1f77b4;fill-opacity:0.8;stroke:#1f77b4;stroke-opacity:0.8;" x="36.8" xlink:href="#mc836094d89" y="317.590909"/>
     <use style="fill:#1f77b4;fill-opacity:0.8;stroke:#1f77b4;stroke-opacity:0.8;" x="36.800012" xlink:href="#mc836094d89" y="315.745647"/>
     <use style="fill:#1f77b4;fill-opacity:0.8;stroke:#1f77b4;stroke-opacity:0.8;" x="36.800072" xlink:href="#mc836094d89" y="313.900385"/>
     <use style="fill:#1f77b4;fill-opacity:0.8;stroke:#1f77b4;stroke-opacity:0.8;" x="36.800108" xlink:href="#mc836094d89" y="312.055124"/>
     <use style="fill:#1f77b4;fill-opacity:0.8;stroke:#1f77b4;stroke-opacity:0.8;" x="36.800036" xlink:href="#mc836094d89" y="310.209862"/>
     <use style="fill:#1f77b4;fill-opacity:0.8;stroke:#1f77b4;stroke-opacity:0.8;" x="36.800096" xlink:href="#mc836094d89" y="308.3646"/>
     <use style="fill:#1f77b4;fill-opacity:0.8;stroke:#1f77b4;stroke-opacity:0.8;" x="36.800168" xlink:href="#mc836094d89" y="306.519338"/>
     <use style="fill:#1f77b4;fill-opacity:0.8;stroke:#1f77b4;stroke-opacity:0.8;" x="36.800168" xlink:href="#mc836094d89" y="304.674076"/>
     <use style="fill:#1f77b4;fill-opacity:0.8;stroke:#1f77b4;stroke-opacity:0.8;" x="36.80048" xlink:href="#mc836094d89" y="302.828815"/>
     <use style="fill:#1f77b4;fill-opacity:0.8;stroke:#1f77b4;stroke-opacity:0.8;" x="36.800588" xlink:href="#mc836094d89" y="300.983553"/>
     <use style="fill:#1f77b4;fill-opacity:0.8;stroke:#1f77b4;stroke-opacity:0.8;" x="36.801127" xlink:href="#mc836094d89" y="299.138291"/>
     <use style="fill:#1f77b4;fill-opacity:0.8;stroke:#1f77b4;stroke-opacity:0.8;" x="36.802206" xlink:href="#mc836094d89" y="297.293029"/>
     <use style="fill:#1f77b4;fill-opacity:0.8;stroke:#1f77b4;stroke-opacity:0.8;" x="36.804341" xlink:href="#mc836094d89" y="295.447768"/>
     <use style="fill:#1f77b4;fill-opacity:0.8;stroke:#1f77b4;stroke-opacity:0.8;" x="36.808861" xlink:href="#mc836094d89" y="293.602506"/>
     <use style="fill:#1f77b4;fill-opacity:0.8;stroke:#1f77b4;stroke-opacity:0.8;" x="36.823203" xlink:href="#mc836094d89" y="291.757244"/>
     <use style="fill:#1f77b4;fill-opacity:0.8;stroke:#1f77b4;stroke-opacity:0.8;" x="36.835602" xlink:href="#mc836094d89" y="289.911982"/>
     <use style="fill:#1f77b4;fill-opacity:0.8;stroke:#1f77b4;stroke-opacity:0.8;" x="36.890246" xlink:href="#mc836094d89" y="288.06672"/>
     <use style="fill:#1f77b4;fill-opacity:0.8;stroke:#1f77b4;stroke-opacity:0.8;" x="36.950897" xlink:href="#mc836094d89" y="286.221459"/>
     <use style="fill:#1f77b4;fill-opacity:0.8;stroke:#1f77b4;stroke-opacity:0.8;" x="37.103797" xlink:href="#mc836094d89" y="284.376197"/>
     <use style="fill:#1f77b4;fill-opacity:0.8;stroke:#1f77b4;stroke-opacity:0.8;" x="37.421636" xlink:href="#mc836094d89" y="282.530935"/>
     <use style="fill:#1f77b4;fill-opacity:0.8;stroke:#1f77b4;stroke-opacity:0.8;" x="38.045298" xlink:href="#mc836094d89" y="280.685673"/>
     <use style="fill:#1f77b4;fill-opacity:0.8;stroke:#1f77b4;stroke-opacity:0.8;" x="39.379798" xlink:href="#mc836094d89" y="278.840411"/>
     <use style="fill:#1f77b4;fill-opacity:0.8;stroke:#1f77b4;stroke-opacity:0.8;" x="42.219457" xlink:href="#mc836094d89" y="276.99515"/>
     <use style="fill:#1f77b4;fill-opacity:0.8;stroke:#1f77b4;stroke-opacity:0.8;" x="46.597671" xlink:href="#mc836094d89" y="275.149888"/>
     <use style="fill:#1f77b4;fill-opacity:0.8;stroke:#1f77b4;stroke-opacity:0.8;" x="56.372859" xlink:href="#mc836094d89" y="273.304626"/>
     <use style="fill:#1f77b4;fill-opacity:0.8;stroke:#1f77b4;stroke-opacity:0.8;" x="75.514526" xlink:href="#mc836094d89" y="271.459364"/>
     <use style="fill:#1f77b4;fill-opacity:0.8;stroke:#1f77b4;stroke-opacity:0.8;" x="114.73857" xlink:href="#mc836094d89" y="269.614102"/>
     <use style="fill:#1f77b4;fill-opacity:0.8;stroke:#1f77b4;stroke-opacity:0.8;" x="192.033105" xlink:href="#mc836094d89" y="267.768841"/>
     <use style="fill:#1f77b4;fill-opacity:0.8;stroke:#1f77b4;stroke-opacity:0.8;" x="344.194198" xlink:href="#mc836094d89" y="265.923579"/>
    </g>
   </g>
   <g id="PolyCollection_1">
    <path clip-path="url(#p33738843fa)" d="M 36.8 289.924067 
L 36.8 300.545338 
L 39.904992 299.499151 
L 43.009984 298.867339 
L 46.114976 298.310904 
L 49.219968 297.865913 
L 52.32496 297.428816 
L 55.429951 297.067136 
L 58.534943 296.719614 
L 61.639935 296.178979 
L 64.744927 295.561253 
L 67.849919 295.167028 
L 70.954911 294.75332 
L 74.059903 294.290564 
L 77.164895 293.916054 
L 80.269887 293.541157 
L 83.374879 293.165123 
L 86.47987 292.735073 
L 89.584862 292.271735 
L 92.689854 291.836033 
L 95.794846 291.436943 
L 98.899838 291.037339 
L 102.00483 290.639465 
L 105.109822 290.245803 
L 108.214814 289.84956 
L 111.319806 289.503983 
L 114.424798 289.169688 
L 117.529789 288.812723 
L 120.634781 288.392302 
L 123.739773 288.021686 
L 126.844765 287.675045 
L 129.949757 287.339231 
L 133.054749 286.989701 
L 136.159741 286.65121 
L 139.264733 286.312718 
L 142.369725 285.974227 
L 145.474717 285.63536 
L 148.579708 285.288044 
L 151.6847 284.919571 
L 154.789692 284.545123 
L 157.894684 284.162029 
L 160.999676 283.795356 
L 164.104668 283.414159 
L 167.20966 283.04633 
L 170.314652 282.706138 
L 173.419644 282.386818 
L 176.524636 282.039277 
L 179.629627 281.677979 
L 182.734619 281.284166 
L 185.839611 280.937954 
L 188.944603 280.53338 
L 192.049595 280.116847 
L 195.154587 279.761956 
L 198.259579 279.437419 
L 201.364571 279.112882 
L 204.469563 278.788345 
L 207.574555 278.42678 
L 210.679546 278.080324 
L 213.784538 277.753834 
L 216.88953 277.426665 
L 219.994522 277.098116 
L 223.099514 276.770134 
L 226.204506 276.406208 
L 229.309498 276.049271 
L 232.41449 275.723444 
L 235.519482 275.386579 
L 238.624474 275.036262 
L 241.729465 274.685149 
L 244.834457 274.333875 
L 247.939449 273.982601 
L 251.044441 273.625393 
L 254.149433 273.28068 
L 257.254425 272.933765 
L 260.359417 272.588329 
L 263.464409 272.255516 
L 266.569401 271.951525 
L 269.674393 271.621318 
L 272.779384 271.335371 
L 275.884376 270.957416 
L 278.989368 270.566024 
L 282.09436 270.174632 
L 285.199352 269.882737 
L 288.304344 269.595962 
L 291.409336 269.24695 
L 294.514328 268.897939 
L 297.61932 268.582817 
L 300.724312 268.29303 
L 303.829304 267.963786 
L 306.934295 267.599568 
L 310.039287 267.242311 
L 313.144279 266.92334 
L 316.249271 266.604368 
L 319.354263 266.288039 
L 322.459255 265.977992 
L 325.564247 265.668039 
L 328.669239 265.366068 
L 331.774231 265.064097 
L 334.879223 264.762125 
L 337.984214 264.460106 
L 341.089206 264.118917 
L 344.194198 263.810079 
L 344.194198 25.409091 
L 344.194198 25.409091 
L 341.089206 28.15155 
L 337.984214 30.894009 
L 334.879223 33.636468 
L 331.774231 36.378928 
L 328.669239 39.121387 
L 325.564247 41.863846 
L 322.459255 44.606305 
L 319.354263 47.348764 
L 316.249271 50.091223 
L 313.144279 52.833683 
L 310.039287 55.576142 
L 306.934295 58.318601 
L 303.829304 61.06106 
L 300.724312 63.803519 
L 297.61932 66.545978 
L 294.514328 69.288438 
L 291.409336 72.030897 
L 288.304344 74.773356 
L 285.199352 77.515815 
L 282.09436 80.258274 
L 278.989368 82.991478 
L 275.884376 85.722666 
L 272.779384 88.453854 
L 269.674393 91.185042 
L 266.569401 93.91623 
L 263.464409 96.647418 
L 260.359417 99.378606 
L 257.254425 102.114619 
L 254.149433 104.873011 
L 251.044441 107.631403 
L 247.939449 110.389795 
L 244.834457 113.148187 
L 241.729465 115.906537 
L 238.624474 118.64828 
L 235.519482 121.390023 
L 232.41449 124.131767 
L 229.309498 126.87351 
L 226.204506 129.615253 
L 223.099514 132.356996 
L 219.994522 135.09874 
L 216.88953 137.840483 
L 213.784538 140.582226 
L 210.679546 143.32397 
L 207.574555 146.065713 
L 204.469563 148.807456 
L 201.364571 151.549199 
L 198.259579 154.290943 
L 195.154587 157.032686 
L 192.049595 159.774429 
L 188.944603 162.516172 
L 185.839611 165.257916 
L 182.734619 167.999659 
L 179.629627 170.741402 
L 176.524636 173.483146 
L 173.419644 176.224889 
L 170.314652 178.966632 
L 167.20966 181.708375 
L 164.104668 184.450119 
L 160.999676 187.191862 
L 157.894684 189.933605 
L 154.789692 192.675348 
L 151.6847 195.417092 
L 148.579708 198.158835 
L 145.474717 200.900578 
L 142.369725 203.642322 
L 139.264733 206.384065 
L 136.159741 209.125808 
L 133.054749 211.867551 
L 129.949757 214.609295 
L 126.844765 217.351038 
L 123.739773 220.092781 
L 120.634781 222.834524 
L 117.529789 225.576268 
L 114.424798 228.318011 
L 111.319806 231.059754 
L 108.214814 233.801498 
L 105.109822 236.543241 
L 102.00483 239.284984 
L 98.899838 242.026727 
L 95.794846 244.747026 
L 92.689854 247.371977 
L 89.584862 250.000771 
L 86.47987 252.944246 
L 83.374879 255.742499 
L 80.269887 258.486693 
L 77.164895 261.230888 
L 74.059903 263.975082 
L 70.954911 266.719277 
L 67.849919 269.463471 
L 64.744927 272.204537 
L 61.639935 275.074951 
L 58.534943 277.685936 
L 55.429951 280.42302 
L 52.32496 283.154628 
L 49.219968 285.049639 
L 46.114976 287.254398 
L 43.009984 288.492673 
L 39.904992 289.537189 
L 36.8 289.924067 
z
" style="fill:#1f77b4;fill-opacity:0.15;"/>
   </g>
   <g id="matplotlib.axis_1">
    <g id="xtick_1">
     <g id="line2d_1">
      <defs>
       <path d="M 0 0 
L 0 3.5 
" id="m13c3470929" style="stroke:#000000;stroke-width:0.8;"/>
      </defs>
      <g>
       <use style="stroke:#000000;stroke-width:0.8;" x="96.755852" xlink:href="#m13c3470929" y="332.2"/>
      </g>
     </g>
     <g id="text_1">
      <!-- 500 -->
      <g transform="translate(87.212102 346.798438)scale(0.1 -0.1)">
       <defs>
        <path d="M 691 4666 
L 3169 4666 
L 3169 4134 
L 1269 4134 
L 1269 2991 
Q 1406 3038 1543 3061 
Q 1681 3084 1819 3084 
Q 2600 3084 3056 2656 
Q 3513 2228 3513 1497 
Q 3513 744 3044 326 
Q 2575 -91 1722 -91 
Q 1428 -91 1123 -41 
Q 819 9 494 109 
L 494 744 
Q 775 591 1075 516 
Q 1375 441 1709 441 
Q 2250 441 2565 725 
Q 2881 1009 2881 1497 
Q 2881 1984 2565 2268 
Q 2250 2553 1709 2553 
Q 1456 2553 1204 2497 
Q 953 2441 691 2322 
L 691 4666 
z
" id="DejaVuSans-35" transform="scale(0.015625)"/>
        <path d="M 2034 4250 
Q 1547 4250 1301 3770 
Q 1056 3291 1056 2328 
Q 1056 1369 1301 889 
Q 1547 409 2034 409 
Q 2525 409 2770 889 
Q 3016 1369 3016 2328 
Q 3016 3291 2770 3770 
Q 2525 4250 2034 4250 
z
M 2034 4750 
Q 2819 4750 3233 4129 
Q 3647 3509 3647 2328 
Q 3647 1150 3233 529 
Q 2819 -91 2034 -91 
Q 1250 -91 836 529 
Q 422 1150 422 2328 
Q 422 3509 836 4129 
Q 1250 4750 2034 4750 
z
" id="DejaVuSans-30" transform="scale(0.015625)"/>
       </defs>
       <use xlink:href="#DejaVuSans-35"/>
       <use x="63.623047" xlink:href="#DejaVuSans-30"/>
       <use x="127.246094" xlink:href="#DejaVuSans-30"/>
      </g>
     </g>
    </g>
    <g id="xtick_2">
     <g id="line2d_2">
      <g>
       <use style="stroke:#000000;stroke-width:0.8;" x="156.711836" xlink:href="#m13c3470929" y="332.2"/>
      </g>
     </g>
     <g id="text_2">
      <!-- 1000 -->
      <g transform="translate(143.986836 346.798438)scale(0.1 -0.1)">
       <defs>
        <path d="M 794 531 
L 1825 531 
L 1825 4091 
L 703 3866 
L 703 4441 
L 1819 4666 
L 2450 4666 
L 2450 531 
L 3481 531 
L 3481 0 
L 794 0 
L 794 531 
z
" id="DejaVuSans-31" transform="scale(0.015625)"/>
       </defs>
       <use xlink:href="#DejaVuSans-31"/>
       <use x="63.623047" xlink:href="#DejaVuSans-30"/>
       <use x="127.246094" xlink:href="#DejaVuSans-30"/>
       <use x="190.869141" xlink:href="#DejaVuSans-30"/>
      </g>
     </g>
    </g>
    <g id="xtick_3">
     <g id="line2d_3">
      <g>
       <use style="stroke:#000000;stroke-width:0.8;" x="216.66782" xlink:href="#m13c3470929" y="332.2"/>
      </g>
     </g>
     <g id="text_3">
      <!-- 1500 -->
      <g transform="translate(203.94282 346.798438)scale(0.1 -0.1)">
       <use xlink:href="#DejaVuSans-31"/>
       <use x="63.623047" xlink:href="#DejaVuSans-35"/>
       <use x="127.246094" xlink:href="#DejaVuSans-30"/>
       <use x="190.869141" xlink:href="#DejaVuSans-30"/>
      </g>
     </g>
    </g>
    <g id="xtick_4">
     <g id="line2d_4">
      <g>
       <use style="stroke:#000000;stroke-width:0.8;" x="276.623804" xlink:href="#m13c3470929" y="332.2"/>
      </g>
     </g>
     <g id="text_4">
      <!-- 2000 -->
      <g transform="translate(263.898804 346.798438)scale(0.1 -0.1)">
       <defs>
        <path d="M 1228 531 
L 3431 531 
L 3431 0 
L 469 0 
L 469 531 
Q 828 903 1448 1529 
Q 2069 2156 2228 2338 
Q 2531 2678 2651 2914 
Q 2772 3150 2772 3378 
Q 2772 3750 2511 3984 
Q 2250 4219 1831 4219 
Q 1534 4219 1204 4116 
Q 875 4013 500 3803 
L 500 4441 
Q 881 4594 1212 4672 
Q 1544 4750 1819 4750 
Q 2544 4750 2975 4387 
Q 3406 4025 3406 3419 
Q 3406 3131 3298 2873 
Q 3191 2616 2906 2266 
Q 2828 2175 2409 1742 
Q 1991 1309 1228 531 
z
" id="DejaVuSans-32" transform="scale(0.015625)"/>
       </defs>
       <use xlink:href="#DejaVuSans-32"/>
       <use x="63.623047" xlink:href="#DejaVuSans-30"/>
       <use x="127.246094" xlink:href="#DejaVuSans-30"/>
       <use x="190.869141" xlink:href="#DejaVuSans-30"/>
      </g>
     </g>
    </g>
    <g id="xtick_5">
     <g id="line2d_5">
      <g>
       <use style="stroke:#000000;stroke-width:0.8;" x="336.579788" xlink:href="#m13c3470929" y="332.2"/>
      </g>
     </g>
     <g id="text_5">
      <!-- 2500 -->
      <g transform="translate(323.854788 346.798438)scale(0.1 -0.1)">
       <use xlink:href="#DejaVuSans-32"/>
       <use x="63.623047" xlink:href="#DejaVuSans-35"/>
       <use x="127.246094" xlink:href="#DejaVuSans-30"/>
       <use x="190.869141" xlink:href="#DejaVuSans-30"/>
      </g>
     </g>
    </g>
    <g id="text_6">
     <!-- tiempo -->
     <g transform="translate(172.967412 360.476562)scale(0.1 -0.1)">
      <defs>
       <path d="M 1172 4494 
L 1172 3500 
L 2356 3500 
L 2356 3053 
L 1172 3053 
L 1172 1153 
Q 1172 725 1289 603 
Q 1406 481 1766 481 
L 2356 481 
L 2356 0 
L 1766 0 
Q 1100 0 847 248 
Q 594 497 594 1153 
L 594 3053 
L 172 3053 
L 172 3500 
L 594 3500 
L 594 4494 
L 1172 4494 
z
" id="DejaVuSans-74" transform="scale(0.015625)"/>
       <path d="M 603 3500 
L 1178 3500 
L 1178 0 
L 603 0 
L 603 3500 
z
M 603 4863 
L 1178 4863 
L 1178 4134 
L 603 4134 
L 603 4863 
z
" id="DejaVuSans-69" transform="scale(0.015625)"/>
       <path d="M 3597 1894 
L 3597 1613 
L 953 1613 
Q 991 1019 1311 708 
Q 1631 397 2203 397 
Q 2534 397 2845 478 
Q 3156 559 3463 722 
L 3463 178 
Q 3153 47 2828 -22 
Q 2503 -91 2169 -91 
Q 1331 -91 842 396 
Q 353 884 353 1716 
Q 353 2575 817 3079 
Q 1281 3584 2069 3584 
Q 2775 3584 3186 3129 
Q 3597 2675 3597 1894 
z
M 3022 2063 
Q 3016 2534 2758 2815 
Q 2500 3097 2075 3097 
Q 1594 3097 1305 2825 
Q 1016 2553 972 2059 
L 3022 2063 
z
" id="DejaVuSans-65" transform="scale(0.015625)"/>
       <path d="M 3328 2828 
Q 3544 3216 3844 3400 
Q 4144 3584 4550 3584 
Q 5097 3584 5394 3201 
Q 5691 2819 5691 2113 
L 5691 0 
L 5113 0 
L 5113 2094 
Q 5113 2597 4934 2840 
Q 4756 3084 4391 3084 
Q 3944 3084 3684 2787 
Q 3425 2491 3425 1978 
L 3425 0 
L 2847 0 
L 2847 2094 
Q 2847 2600 2669 2842 
Q 2491 3084 2119 3084 
Q 1678 3084 1418 2786 
Q 1159 2488 1159 1978 
L 1159 0 
L 581 0 
L 581 3500 
L 1159 3500 
L 1159 2956 
Q 1356 3278 1631 3431 
Q 1906 3584 2284 3584 
Q 2666 3584 2933 3390 
Q 3200 3197 3328 2828 
z
" id="DejaVuSans-6d" transform="scale(0.015625)"/>
       <path d="M 1159 525 
L 1159 -1331 
L 581 -1331 
L 581 3500 
L 1159 3500 
L 1159 2969 
Q 1341 3281 1617 3432 
Q 1894 3584 2278 3584 
Q 2916 3584 3314 3078 
Q 3713 2572 3713 1747 
Q 3713 922 3314 415 
Q 2916 -91 2278 -91 
Q 1894 -91 1617 61 
Q 1341 213 1159 525 
z
M 3116 1747 
Q 3116 2381 2855 2742 
Q 2594 3103 2138 3103 
Q 1681 3103 1420 2742 
Q 1159 2381 1159 1747 
Q 1159 1113 1420 752 
Q 1681 391 2138 391 
Q 2594 391 2855 752 
Q 3116 1113 3116 1747 
z
" id="DejaVuSans-70" transform="scale(0.015625)"/>
       <path d="M 1959 3097 
Q 1497 3097 1228 2736 
Q 959 2375 959 1747 
Q 959 1119 1226 758 
Q 1494 397 1959 397 
Q 2419 397 2687 759 
Q 2956 1122 2956 1747 
Q 2956 2369 2687 2733 
Q 2419 3097 1959 3097 
z
M 1959 3584 
Q 2709 3584 3137 3096 
Q 3566 2609 3566 1747 
Q 3566 888 3137 398 
Q 2709 -91 1959 -91 
Q 1206 -91 779 398 
Q 353 888 353 1747 
Q 353 2609 779 3096 
Q 1206 3584 1959 3584 
z
" id="DejaVuSans-6f" transform="scale(0.015625)"/>
      </defs>
      <use xlink:href="#DejaVuSans-74"/>
      <use x="39.208984" xlink:href="#DejaVuSans-69"/>
      <use x="66.992188" xlink:href="#DejaVuSans-65"/>
      <use x="128.515625" xlink:href="#DejaVuSans-6d"/>
      <use x="225.927734" xlink:href="#DejaVuSans-70"/>
      <use x="289.404297" xlink:href="#DejaVuSans-6f"/>
     </g>
    </g>
   </g>
   <g id="matplotlib.axis_2">
    <g id="ytick_1">
     <g id="line2d_6">
      <defs>
       <path d="M 0 0 
L -3.5 0 
" id="mbdb030198a" style="stroke:#000000;stroke-width:0.8;"/>
      </defs>
      <g>
       <use style="stroke:#000000;stroke-width:0.8;" x="36.8" xlink:href="#mbdb030198a" y="319.436171"/>
      </g>
     </g>
     <g id="text_7">
      <!-- 0 -->
      <g transform="translate(23.4375 323.23539)scale(0.1 -0.1)">
       <use xlink:href="#DejaVuSans-30"/>
      </g>
     </g>
    </g>
    <g id="ytick_2">
     <g id="line2d_7">
      <g>
       <use style="stroke:#000000;stroke-width:0.8;" x="36.8" xlink:href="#mbdb030198a" y="282.530935"/>
      </g>
     </g>
     <g id="text_8">
      <!-- 20 -->
      <g transform="translate(17.075 286.330154)scale(0.1 -0.1)">
       <use xlink:href="#DejaVuSans-32"/>
       <use x="63.623047" xlink:href="#DejaVuSans-30"/>
      </g>
     </g>
    </g>
    <g id="ytick_3">
     <g id="line2d_8">
      <g>
       <use style="stroke:#000000;stroke-width:0.8;" x="36.8" xlink:href="#mbdb030198a" y="245.625699"/>
      </g>
     </g>
     <g id="text_9">
      <!-- 40 -->
      <g transform="translate(17.075 249.424918)scale(0.1 -0.1)">
       <defs>
        <path d="M 2419 4116 
L 825 1625 
L 2419 1625 
L 2419 4116 
z
M 2253 4666 
L 3047 4666 
L 3047 1625 
L 3713 1625 
L 3713 1100 
L 3047 1100 
L 3047 0 
L 2419 0 
L 2419 1100 
L 313 1100 
L 313 1709 
L 2253 4666 
z
" id="DejaVuSans-34" transform="scale(0.015625)"/>
       </defs>
       <use xlink:href="#DejaVuSans-34"/>
       <use x="63.623047" xlink:href="#DejaVuSans-30"/>
      </g>
     </g>
    </g>
    <g id="ytick_4">
     <g id="line2d_9">
      <g>
       <use style="stroke:#000000;stroke-width:0.8;" x="36.8" xlink:href="#mbdb030198a" y="208.720463"/>
      </g>
     </g>
     <g id="text_10">
      <!-- 60 -->
      <g transform="translate(17.075 212.519682)scale(0.1 -0.1)">
       <defs>
        <path d="M 2113 2584 
Q 1688 2584 1439 2293 
Q 1191 2003 1191 1497 
Q 1191 994 1439 701 
Q 1688 409 2113 409 
Q 2538 409 2786 701 
Q 3034 994 3034 1497 
Q 3034 2003 2786 2293 
Q 2538 2584 2113 2584 
z
M 3366 4563 
L 3366 3988 
Q 3128 4100 2886 4159 
Q 2644 4219 2406 4219 
Q 1781 4219 1451 3797 
Q 1122 3375 1075 2522 
Q 1259 2794 1537 2939 
Q 1816 3084 2150 3084 
Q 2853 3084 3261 2657 
Q 3669 2231 3669 1497 
Q 3669 778 3244 343 
Q 2819 -91 2113 -91 
Q 1303 -91 875 529 
Q 447 1150 447 2328 
Q 447 3434 972 4092 
Q 1497 4750 2381 4750 
Q 2619 4750 2861 4703 
Q 3103 4656 3366 4563 
z
" id="DejaVuSans-36" transform="scale(0.015625)"/>
       </defs>
       <use xlink:href="#DejaVuSans-36"/>
       <use x="63.623047" xlink:href="#DejaVuSans-30"/>
      </g>
     </g>
    </g>
    <g id="ytick_5">
     <g id="line2d_10">
      <g>
       <use style="stroke:#000000;stroke-width:0.8;" x="36.8" xlink:href="#mbdb030198a" y="171.815227"/>
      </g>
     </g>
     <g id="text_11">
      <!-- 80 -->
      <g transform="translate(17.075 175.614446)scale(0.1 -0.1)">
       <defs>
        <path d="M 2034 2216 
Q 1584 2216 1326 1975 
Q 1069 1734 1069 1313 
Q 1069 891 1326 650 
Q 1584 409 2034 409 
Q 2484 409 2743 651 
Q 3003 894 3003 1313 
Q 3003 1734 2745 1975 
Q 2488 2216 2034 2216 
z
M 1403 2484 
Q 997 2584 770 2862 
Q 544 3141 544 3541 
Q 544 4100 942 4425 
Q 1341 4750 2034 4750 
Q 2731 4750 3128 4425 
Q 3525 4100 3525 3541 
Q 3525 3141 3298 2862 
Q 3072 2584 2669 2484 
Q 3125 2378 3379 2068 
Q 3634 1759 3634 1313 
Q 3634 634 3220 271 
Q 2806 -91 2034 -91 
Q 1263 -91 848 271 
Q 434 634 434 1313 
Q 434 1759 690 2068 
Q 947 2378 1403 2484 
z
M 1172 3481 
Q 1172 3119 1398 2916 
Q 1625 2713 2034 2713 
Q 2441 2713 2670 2916 
Q 2900 3119 2900 3481 
Q 2900 3844 2670 4047 
Q 2441 4250 2034 4250 
Q 1625 4250 1398 4047 
Q 1172 3844 1172 3481 
z
" id="DejaVuSans-38" transform="scale(0.015625)"/>
       </defs>
       <use xlink:href="#DejaVuSans-38"/>
       <use x="63.623047" xlink:href="#DejaVuSans-30"/>
      </g>
     </g>
    </g>
    <g id="ytick_6">
     <g id="line2d_11">
      <g>
       <use style="stroke:#000000;stroke-width:0.8;" x="36.8" xlink:href="#mbdb030198a" y="134.909991"/>
      </g>
     </g>
     <g id="text_12">
      <!-- 100 -->
      <g transform="translate(10.7125 138.70921)scale(0.1 -0.1)">
       <use xlink:href="#DejaVuSans-31"/>
       <use x="63.623047" xlink:href="#DejaVuSans-30"/>
       <use x="127.246094" xlink:href="#DejaVuSans-30"/>
      </g>
     </g>
    </g>
    <g id="ytick_7">
     <g id="line2d_12">
      <g>
       <use style="stroke:#000000;stroke-width:0.8;" x="36.8" xlink:href="#mbdb030198a" y="98.004755"/>
      </g>
     </g>
     <g id="text_13">
      <!-- 120 -->
      <g transform="translate(10.7125 101.803974)scale(0.1 -0.1)">
       <use xlink:href="#DejaVuSans-31"/>
       <use x="63.623047" xlink:href="#DejaVuSans-32"/>
       <use x="127.246094" xlink:href="#DejaVuSans-30"/>
      </g>
     </g>
    </g>
    <g id="ytick_8">
     <g id="line2d_13">
      <g>
       <use style="stroke:#000000;stroke-width:0.8;" x="36.8" xlink:href="#mbdb030198a" y="61.099519"/>
      </g>
     </g>
     <g id="text_14">
      <!-- 140 -->
      <g transform="translate(10.7125 64.898738)scale(0.1 -0.1)">
       <use xlink:href="#DejaVuSans-31"/>
       <use x="63.623047" xlink:href="#DejaVuSans-34"/>
       <use x="127.246094" xlink:href="#DejaVuSans-30"/>
      </g>
     </g>
    </g>
    <g id="ytick_9">
     <g id="line2d_14">
      <g>
       <use style="stroke:#000000;stroke-width:0.8;" x="36.8" xlink:href="#mbdb030198a" y="24.194283"/>
      </g>
     </g>
     <g id="text_15">
      <!-- 160 -->
      <g transform="translate(10.7125 27.993502)scale(0.1 -0.1)">
       <use xlink:href="#DejaVuSans-31"/>
       <use x="63.623047" xlink:href="#DejaVuSans-36"/>
       <use x="127.246094" xlink:href="#DejaVuSans-30"/>
      </g>
     </g>
    </g>
    <g id="text_16">
     <!-- complejidad -->
     <g transform="translate(4.632812 202.009375)rotate(-90)scale(0.1 -0.1)">
      <defs>
       <path d="M 3122 3366 
L 3122 2828 
Q 2878 2963 2633 3030 
Q 2388 3097 2138 3097 
Q 1578 3097 1268 2742 
Q 959 2388 959 1747 
Q 959 1106 1268 751 
Q 1578 397 2138 397 
Q 2388 397 2633 464 
Q 2878 531 3122 666 
L 3122 134 
Q 2881 22 2623 -34 
Q 2366 -91 2075 -91 
Q 1284 -91 818 406 
Q 353 903 353 1747 
Q 353 2603 823 3093 
Q 1294 3584 2113 3584 
Q 2378 3584 2631 3529 
Q 2884 3475 3122 3366 
z
" id="DejaVuSans-63" transform="scale(0.015625)"/>
       <path d="M 603 4863 
L 1178 4863 
L 1178 0 
L 603 0 
L 603 4863 
z
" id="DejaVuSans-6c" transform="scale(0.015625)"/>
       <path d="M 603 3500 
L 1178 3500 
L 1178 -63 
Q 1178 -731 923 -1031 
Q 669 -1331 103 -1331 
L -116 -1331 
L -116 -844 
L 38 -844 
Q 366 -844 484 -692 
Q 603 -541 603 -63 
L 603 3500 
z
M 603 4863 
L 1178 4863 
L 1178 4134 
L 603 4134 
L 603 4863 
z
" id="DejaVuSans-6a" transform="scale(0.015625)"/>
       <path d="M 2906 2969 
L 2906 4863 
L 3481 4863 
L 3481 0 
L 2906 0 
L 2906 525 
Q 2725 213 2448 61 
Q 2172 -91 1784 -91 
Q 1150 -91 751 415 
Q 353 922 353 1747 
Q 353 2572 751 3078 
Q 1150 3584 1784 3584 
Q 2172 3584 2448 3432 
Q 2725 3281 2906 2969 
z
M 947 1747 
Q 947 1113 1208 752 
Q 1469 391 1925 391 
Q 2381 391 2643 752 
Q 2906 1113 2906 1747 
Q 2906 2381 2643 2742 
Q 2381 3103 1925 3103 
Q 1469 3103 1208 2742 
Q 947 2381 947 1747 
z
" id="DejaVuSans-64" transform="scale(0.015625)"/>
       <path d="M 2194 1759 
Q 1497 1759 1228 1600 
Q 959 1441 959 1056 
Q 959 750 1161 570 
Q 1363 391 1709 391 
Q 2188 391 2477 730 
Q 2766 1069 2766 1631 
L 2766 1759 
L 2194 1759 
z
M 3341 1997 
L 3341 0 
L 2766 0 
L 2766 531 
Q 2569 213 2275 61 
Q 1981 -91 1556 -91 
Q 1019 -91 701 211 
Q 384 513 384 1019 
Q 384 1609 779 1909 
Q 1175 2209 1959 2209 
L 2766 2209 
L 2766 2266 
Q 2766 2663 2505 2880 
Q 2244 3097 1772 3097 
Q 1472 3097 1187 3025 
Q 903 2953 641 2809 
L 641 3341 
Q 956 3463 1253 3523 
Q 1550 3584 1831 3584 
Q 2591 3584 2966 3190 
Q 3341 2797 3341 1997 
z
" id="DejaVuSans-61" transform="scale(0.015625)"/>
      </defs>
      <use xlink:href="#DejaVuSans-63"/>
      <use x="54.980469" xlink:href="#DejaVuSans-6f"/>
      <use x="116.162109" xlink:href="#DejaVuSans-6d"/>
      <use x="213.574219" xlink:href="#DejaVuSans-70"/>
      <use x="277.050781" xlink:href="#DejaVuSans-6c"/>
      <use x="304.833984" xlink:href="#DejaVuSans-65"/>
      <use x="366.357422" xlink:href="#DejaVuSans-6a"/>
      <use x="394.140625" xlink:href="#DejaVuSans-69"/>
      <use x="421.923828" xlink:href="#DejaVuSans-64"/>
      <use x="485.400391" xlink:href="#DejaVuSans-61"/>
      <use x="546.679688" xlink:href="#DejaVuSans-64"/>
     </g>
    </g>
   </g>
   <g id="line2d_15">
    <path clip-path="url(#p33738843fa)" d="M 36.8 294.549029 
L 39.904992 294.143005 
L 43.009984 293.73698 
L 46.114976 293.330956 
L 49.219968 292.924931 
L 52.32496 292.518907 
L 55.429951 292.112882 
L 58.534943 291.706858 
L 61.639935 291.300833 
L 64.744927 290.894809 
L 67.849919 290.488784 
L 70.954911 290.08276 
L 74.059903 289.676735 
L 77.164895 289.270711 
L 80.269887 288.864686 
L 83.374879 288.458662 
L 86.47987 288.052637 
L 89.584862 287.646613 
L 92.689854 287.240589 
L 95.794846 286.834564 
L 98.899838 286.42854 
L 102.00483 286.022515 
L 105.109822 285.616491 
L 108.214814 285.210466 
L 111.319806 284.804442 
L 114.424798 284.398417 
L 117.529789 283.992393 
L 120.634781 283.586368 
L 123.739773 283.180344 
L 126.844765 282.774319 
L 129.949757 282.368295 
L 133.054749 281.96227 
L 136.159741 281.556246 
L 139.264733 281.150221 
L 142.369725 280.744197 
L 145.474717 280.338172 
L 148.579708 279.932148 
L 151.6847 279.526124 
L 154.789692 279.120099 
L 157.894684 278.714075 
L 160.999676 278.30805 
L 164.104668 277.902026 
L 167.20966 277.496001 
L 170.314652 277.089977 
L 173.419644 276.683952 
L 176.524636 276.277928 
L 179.629627 275.871903 
L 182.734619 275.465879 
L 185.839611 275.059854 
L 188.944603 274.65383 
L 192.049595 274.247805 
L 195.154587 273.841781 
L 198.259579 273.435756 
L 201.364571 273.029732 
L 204.469563 272.623708 
L 207.574555 272.217683 
L 210.679546 271.811659 
L 213.784538 271.405634 
L 216.88953 270.99961 
L 219.994522 270.593585 
L 223.099514 270.187561 
L 226.204506 269.781536 
L 229.309498 269.375512 
L 232.41449 268.969487 
L 235.519482 268.563463 
L 238.624474 268.157438 
L 241.729465 267.751414 
L 244.834457 267.345389 
L 247.939449 266.939365 
L 251.044441 266.53334 
L 254.149433 266.127316 
L 257.254425 265.721291 
L 260.359417 265.315267 
L 263.464409 264.909243 
L 266.569401 264.503218 
L 269.674393 264.097194 
L 272.779384 263.691169 
L 275.884376 263.285145 
L 278.989368 262.87912 
L 282.09436 262.473096 
L 285.199352 262.067071 
L 288.304344 261.661047 
L 291.409336 261.255022 
L 294.514328 260.848998 
L 297.61932 260.442973 
L 300.724312 260.036949 
L 303.829304 259.630924 
L 306.934295 259.2249 
L 310.039287 258.818875 
L 313.144279 258.412851 
L 316.249271 258.006826 
L 319.354263 257.600802 
L 322.459255 257.194778 
L 325.564247 256.788753 
L 328.669239 256.382729 
L 331.774231 255.976704 
L 334.879223 255.57068 
L 337.984214 255.164655 
L 341.089206 254.758631 
L 344.194198 254.352606 
" style="fill:none;stroke:#1f77b4;stroke-linecap:square;stroke-width:2.25;"/>
   </g>
   <g id="patch_3">
    <path d="M 36.8 332.2 
L 36.8 10.8 
" style="fill:none;stroke:#000000;stroke-linecap:square;stroke-linejoin:miter;stroke-width:0.8;"/>
   </g>
   <g id="patch_4">
    <path d="M 36.8 332.2 
L 344.194198 332.2 
" style="fill:none;stroke:#000000;stroke-linecap:square;stroke-linejoin:miter;stroke-width:0.8;"/>
   </g>
  </g>
 </g>
 <defs>
  <clipPath id="p33738843fa">
   <rect height="321.4" width="307.394198" x="36.8" y="10.8"/>
  </clipPath>
 </defs>
</svg>
