<?xml version="1.0" encoding="utf-8" standalone="no"?>
<!DOCTYPE svg PUBLIC "-//W3C//DTD SVG 1.1//EN"
  "http://www.w3.org/Graphics/SVG/1.1/DTD/svg11.dtd">
<svg height="360pt" version="1.1" viewBox="0 0 360 360" width="360pt" xmlns="http://www.w3.org/2000/svg" xmlns:xlink="http://www.w3.org/1999/xlink">
 <metadata>
  <rdf:RDF xmlns:cc="http://creativecommons.org/ns#" xmlns:dc="http://purl.org/dc/elements/1.1/" xmlns:rdf="http://www.w3.org/1999/02/22-rdf-syntax-ns#">
   <cc:Work>
    <dc:type rdf:resource="http://purl.org/dc/dcmitype/StillImage"/>
    <dc:date>2021-04-29T23:07:08.964478</dc:date>
    <dc:format>image/svg+xml</dc:format>
    <dc:creator>
     <cc:Agent>
      <dc:title>Matplotlib v3.4.1, https://matplotlib.org/</dc:title>
     </cc:Agent>
    </dc:creator>
   </cc:Work>
  </rdf:RDF>
 </metadata>
 <defs>
  <style type="text/css">*{stroke-linecap:butt;stroke-linejoin:round;}</style>
 </defs>
 <g id="figure_1">
  <g id="patch_1">
   <path d="M 0 360 
L 360 360 
L 360 0 
L 0 0 
z
" style="fill:none;"/>
  </g>
  <g id="axes_1">
   <g id="patch_2">
    <path d="M 36.925 332.2 
L 349.2 332.2 
L 349.2 10.8 
L 36.925 10.8 
z
" style="fill:#ffffff;"/>
   </g>
   <g id="PathCollection_1">
    <defs>
     <path d="M 0 3 
C 0.795609 3 1.55874 2.683901 2.12132 2.12132 
C 2.683901 1.55874 3 0.795609 3 0 
C 3 -0.795609 2.683901 -1.55874 2.12132 -2.12132 
C 1.55874 -2.683901 0.795609 -3 0 -3 
C -0.795609 -3 -1.55874 -2.683901 -2.12132 -2.12132 
C -2.683901 -1.55874 -3 -0.795609 -3 0 
C -3 0.795609 -2.683901 1.55874 -2.12132 2.12132 
C -1.55874 2.683901 -0.795609 3 0 3 
z
" id="m764339935a" style="stroke:#1f77b4;stroke-opacity:0.8;"/>
    </defs>
    <g clip-path="url(#p7874f8154e)">
     <use style="fill:#1f77b4;fill-opacity:0.8;stroke:#1f77b4;stroke-opacity:0.8;" x="36.925" xlink:href="#m764339935a" y="317.590909"/>
     <use style="fill:#1f77b4;fill-opacity:0.8;stroke:#1f77b4;stroke-opacity:0.8;" x="36.925011" xlink:href="#m764339935a" y="315.88614"/>
     <use style="fill:#1f77b4;fill-opacity:0.8;stroke:#1f77b4;stroke-opacity:0.8;" x="36.925" xlink:href="#m764339935a" y="314.18137"/>
     <use style="fill:#1f77b4;fill-opacity:0.8;stroke:#1f77b4;stroke-opacity:0.8;" x="36.925045" xlink:href="#m764339935a" y="312.476601"/>
     <use style="fill:#1f77b4;fill-opacity:0.8;stroke:#1f77b4;stroke-opacity:0.8;" x="36.925034" xlink:href="#m764339935a" y="310.771831"/>
     <use style="fill:#1f77b4;fill-opacity:0.8;stroke:#1f77b4;stroke-opacity:0.8;" x="36.925136" xlink:href="#m764339935a" y="309.067062"/>
     <use style="fill:#1f77b4;fill-opacity:0.8;stroke:#1f77b4;stroke-opacity:0.8;" x="36.925261" xlink:href="#m764339935a" y="307.362293"/>
     <use style="fill:#1f77b4;fill-opacity:0.8;stroke:#1f77b4;stroke-opacity:0.8;" x="36.92525" xlink:href="#m764339935a" y="305.657523"/>
     <use style="fill:#1f77b4;fill-opacity:0.8;stroke:#1f77b4;stroke-opacity:0.8;" x="36.925375" xlink:href="#m764339935a" y="303.952754"/>
     <use style="fill:#1f77b4;fill-opacity:0.8;stroke:#1f77b4;stroke-opacity:0.8;" x="36.925647" xlink:href="#m764339935a" y="302.247984"/>
     <use style="fill:#1f77b4;fill-opacity:0.8;stroke:#1f77b4;stroke-opacity:0.8;" x="36.926146" xlink:href="#m764339935a" y="300.543215"/>
     <use style="fill:#1f77b4;fill-opacity:0.8;stroke:#1f77b4;stroke-opacity:0.8;" x="36.927974" xlink:href="#m764339935a" y="298.838446"/>
     <use style="fill:#1f77b4;fill-opacity:0.8;stroke:#1f77b4;stroke-opacity:0.8;" x="36.930516" xlink:href="#m764339935a" y="297.133676"/>
     <use style="fill:#1f77b4;fill-opacity:0.8;stroke:#1f77b4;stroke-opacity:0.8;" x="36.935544" xlink:href="#m764339935a" y="295.428907"/>
     <use style="fill:#1f77b4;fill-opacity:0.8;stroke:#1f77b4;stroke-opacity:0.8;" x="36.941729" xlink:href="#m764339935a" y="293.724137"/>
     <use style="fill:#1f77b4;fill-opacity:0.8;stroke:#1f77b4;stroke-opacity:0.8;" x="36.969274" xlink:href="#m764339935a" y="292.019368"/>
     <use style="fill:#1f77b4;fill-opacity:0.8;stroke:#1f77b4;stroke-opacity:0.8;" x="36.99615" xlink:href="#m764339935a" y="290.314599"/>
     <use style="fill:#1f77b4;fill-opacity:0.8;stroke:#1f77b4;stroke-opacity:0.8;" x="37.068628" xlink:href="#m764339935a" y="288.609829"/>
     <use style="fill:#1f77b4;fill-opacity:0.8;stroke:#1f77b4;stroke-opacity:0.8;" x="37.199261" xlink:href="#m764339935a" y="286.90506"/>
     <use style="fill:#1f77b4;fill-opacity:0.8;stroke:#1f77b4;stroke-opacity:0.8;" x="37.636297" xlink:href="#m764339935a" y="285.20029"/>
     <use style="fill:#1f77b4;fill-opacity:0.8;stroke:#1f77b4;stroke-opacity:0.8;" x="38.058079" xlink:href="#m764339935a" y="283.495521"/>
     <use style="fill:#1f77b4;fill-opacity:0.8;stroke:#1f77b4;stroke-opacity:0.8;" x="39.537035" xlink:href="#m764339935a" y="281.790751"/>
     <use style="fill:#1f77b4;fill-opacity:0.8;stroke:#1f77b4;stroke-opacity:0.8;" x="41.922499" xlink:href="#m764339935a" y="280.085982"/>
     <use style="fill:#1f77b4;fill-opacity:0.8;stroke:#1f77b4;stroke-opacity:0.8;" x="47.061288" xlink:href="#m764339935a" y="278.381213"/>
     <use style="fill:#1f77b4;fill-opacity:0.8;stroke:#1f77b4;stroke-opacity:0.8;" x="56.764489" xlink:href="#m764339935a" y="276.676443"/>
     <use style="fill:#1f77b4;fill-opacity:0.8;stroke:#1f77b4;stroke-opacity:0.8;" x="76.292127" xlink:href="#m764339935a" y="274.971674"/>
     <use style="fill:#1f77b4;fill-opacity:0.8;stroke:#1f77b4;stroke-opacity:0.8;" x="117.416307" xlink:href="#m764339935a" y="273.266904"/>
     <use style="fill:#1f77b4;fill-opacity:0.8;stroke:#1f77b4;stroke-opacity:0.8;" x="195.000924" xlink:href="#m764339935a" y="271.562135"/>
     <use style="fill:#1f77b4;fill-opacity:0.8;stroke:#1f77b4;stroke-opacity:0.8;" x="349.2" xlink:href="#m764339935a" y="269.857366"/>
    </g>
   </g>
   <g id="PolyCollection_1">
    <path clip-path="url(#p7874f8154e)" d="M 36.925 291.8765 
L 36.925 301.939059 
L 40.079293 300.812834 
L 43.233586 300.170565 
L 46.387879 299.72691 
L 49.542172 299.206281 
L 52.696465 298.705202 
L 55.850758 298.366437 
L 59.005051 298.049553 
L 62.159343 297.705496 
L 65.313636 297.342859 
L 68.467929 296.980741 
L 71.622222 296.587736 
L 74.776515 296.176574 
L 77.930808 295.782123 
L 81.085101 295.435662 
L 84.239394 295.072946 
L 87.393687 294.730658 
L 90.54798 294.387356 
L 93.702273 294.044053 
L 96.856566 293.700751 
L 100.010859 293.357449 
L 103.165152 293.014146 
L 106.319444 292.670844 
L 109.473737 292.331519 
L 112.62803 292.006085 
L 115.782323 291.665428 
L 118.936616 291.311434 
L 122.090909 290.956787 
L 125.245202 290.613002 
L 128.399495 290.262668 
L 131.553788 289.874877 
L 134.708081 289.511092 
L 137.862374 289.133175 
L 141.016667 288.753255 
L 144.17096 288.379767 
L 147.325253 288.020783 
L 150.479545 287.721565 
L 153.633838 287.387254 
L 156.788131 287.039717 
L 159.942424 286.719122 
L 163.096717 286.396642 
L 166.25101 286.059621 
L 169.405303 285.660852 
L 172.559596 285.293488 
L 175.713889 284.904308 
L 178.868182 284.533602 
L 182.022475 284.215435 
L 185.176768 283.895902 
L 188.331061 283.555922 
L 191.485354 283.26363 
L 194.639646 282.947762 
L 197.793939 282.631893 
L 200.948232 282.313948 
L 204.102525 281.938265 
L 207.256818 281.556737 
L 210.411111 281.229589 
L 213.565404 280.938354 
L 216.719697 280.632513 
L 219.87399 280.325659 
L 223.028283 279.996392 
L 226.182576 279.688661 
L 229.336869 279.405049 
L 232.491162 279.117314 
L 235.645455 278.819495 
L 238.799747 278.483134 
L 241.95404 278.182596 
L 245.108333 277.881761 
L 248.262626 277.565596 
L 251.416919 277.249432 
L 254.571212 276.933267 
L 257.725505 276.615519 
L 260.879798 276.295115 
L 264.034091 275.987724 
L 267.188384 275.682392 
L 270.342677 275.402871 
L 273.49697 275.126239 
L 276.651263 274.836834 
L 279.805556 274.520443 
L 282.959848 274.200284 
L 286.114141 273.880124 
L 289.268434 273.56627 
L 292.422727 273.249867 
L 295.57702 272.943428 
L 298.731313 272.630141 
L 301.885606 272.352736 
L 305.039899 272.055011 
L 308.194192 271.733346 
L 311.348485 271.411263 
L 314.502778 271.117947 
L 317.657071 270.839582 
L 320.811364 270.582796 
L 323.965657 270.282962 
L 327.119949 270.054223 
L 330.274242 269.779793 
L 333.428535 269.481337 
L 336.582828 269.180706 
L 339.737121 268.894934 
L 342.891414 268.616308 
L 346.045707 268.338515 
L 349.2 268.061538 
L 349.2 25.409091 
L 349.2 25.409091 
L 346.045707 28.14342 
L 342.891414 30.87775 
L 339.737121 33.61208 
L 336.582828 36.346409 
L 333.428535 39.080739 
L 330.274242 41.815068 
L 327.119949 44.549398 
L 323.965657 47.283727 
L 320.811364 50.018057 
L 317.657071 52.752387 
L 314.502778 55.486716 
L 311.348485 58.221046 
L 308.194192 60.955375 
L 305.039899 63.689705 
L 301.885606 66.424034 
L 298.731313 69.158364 
L 295.57702 71.892694 
L 292.422727 74.627023 
L 289.268434 77.361353 
L 286.114141 80.095682 
L 282.959848 82.830012 
L 279.805556 85.564341 
L 276.651263 88.298671 
L 273.49697 91.033001 
L 270.342677 93.76733 
L 267.188384 96.50166 
L 264.034091 99.235989 
L 260.879798 101.970319 
L 257.725505 104.704648 
L 254.571212 107.438978 
L 251.416919 110.173308 
L 248.262626 112.907637 
L 245.108333 115.641967 
L 241.95404 118.376296 
L 238.799747 121.110626 
L 235.645455 123.844955 
L 232.491162 126.579285 
L 229.336869 129.313615 
L 226.182576 132.047944 
L 223.028283 134.782274 
L 219.87399 137.516603 
L 216.719697 140.250933 
L 213.565404 142.985262 
L 210.411111 145.719592 
L 207.256818 148.453922 
L 204.102525 151.188251 
L 200.948232 153.922581 
L 197.793939 156.65691 
L 194.639646 159.39124 
L 191.485354 162.125569 
L 188.331061 164.859899 
L 185.176768 167.594228 
L 182.022475 170.328558 
L 178.868182 173.062888 
L 175.713889 175.797217 
L 172.559596 178.531547 
L 169.405303 181.265876 
L 166.25101 184.000206 
L 163.096717 186.734535 
L 159.942424 189.468865 
L 156.788131 192.203195 
L 153.633838 194.937524 
L 150.479545 197.671854 
L 147.325253 200.406183 
L 144.17096 203.140513 
L 141.016667 205.874842 
L 137.862374 208.609172 
L 134.708081 211.343584 
L 131.553788 214.278783 
L 128.399495 217.228934 
L 125.245202 220.179085 
L 122.090909 223.129235 
L 118.936616 226.079386 
L 115.782323 229.032564 
L 112.62803 231.986148 
L 109.473737 234.939732 
L 106.319444 237.893316 
L 103.165152 240.839216 
L 100.010859 243.559472 
L 96.856566 246.279727 
L 93.702273 248.999982 
L 90.54798 251.720237 
L 87.393687 254.440492 
L 84.239394 257.113088 
L 81.085101 259.878332 
L 77.930808 262.601348 
L 74.776515 265.311115 
L 71.622222 268.026309 
L 68.467929 270.741503 
L 65.313636 273.480852 
L 62.159343 276.450365 
L 59.005051 278.980853 
L 55.850758 281.490493 
L 52.696465 284.059737 
L 49.542172 286.680492 
L 46.387879 288.666591 
L 43.233586 290.358266 
L 40.079293 291.410297 
L 36.925 291.8765 
z
" style="fill:#1f77b4;fill-opacity:0.15;"/>
   </g>
   <g id="matplotlib.axis_1">
    <g id="xtick_1">
     <g id="line2d_1">
      <defs>
       <path d="M 0 0 
L 0 3.5 
" id="m64c129f9f2" style="stroke:#000000;stroke-width:0.8;"/>
      </defs>
      <g>
       <use style="stroke:#000000;stroke-width:0.8;" x="93.672437" xlink:href="#m64c129f9f2" y="332.2"/>
      </g>
     </g>
     <g id="text_1">
      <!-- 500 -->
      <g transform="translate(84.128687 346.798438)scale(0.1 -0.1)">
       <defs>
        <path d="M 691 4666 
L 3169 4666 
L 3169 4134 
L 1269 4134 
L 1269 2991 
Q 1406 3038 1543 3061 
Q 1681 3084 1819 3084 
Q 2600 3084 3056 2656 
Q 3513 2228 3513 1497 
Q 3513 744 3044 326 
Q 2575 -91 1722 -91 
Q 1428 -91 1123 -41 
Q 819 9 494 109 
L 494 744 
Q 775 591 1075 516 
Q 1375 441 1709 441 
Q 2250 441 2565 725 
Q 2881 1009 2881 1497 
Q 2881 1984 2565 2268 
Q 2250 2553 1709 2553 
Q 1456 2553 1204 2497 
Q 953 2441 691 2322 
L 691 4666 
z
" id="DejaVuSans-35" transform="scale(0.015625)"/>
        <path d="M 2034 4250 
Q 1547 4250 1301 3770 
Q 1056 3291 1056 2328 
Q 1056 1369 1301 889 
Q 1547 409 2034 409 
Q 2525 409 2770 889 
Q 3016 1369 3016 2328 
Q 3016 3291 2770 3770 
Q 2525 4250 2034 4250 
z
M 2034 4750 
Q 2819 4750 3233 4129 
Q 3647 3509 3647 2328 
Q 3647 1150 3233 529 
Q 2819 -91 2034 -91 
Q 1250 -91 836 529 
Q 422 1150 422 2328 
Q 422 3509 836 4129 
Q 1250 4750 2034 4750 
z
" id="DejaVuSans-30" transform="scale(0.015625)"/>
       </defs>
       <use xlink:href="#DejaVuSans-35"/>
       <use x="63.623047" xlink:href="#DejaVuSans-30"/>
       <use x="127.246094" xlink:href="#DejaVuSans-30"/>
      </g>
     </g>
    </g>
    <g id="xtick_2">
     <g id="line2d_2">
      <g>
       <use style="stroke:#000000;stroke-width:0.8;" x="150.420021" xlink:href="#m64c129f9f2" y="332.2"/>
      </g>
     </g>
     <g id="text_2">
      <!-- 1000 -->
      <g transform="translate(137.695021 346.798438)scale(0.1 -0.1)">
       <defs>
        <path d="M 794 531 
L 1825 531 
L 1825 4091 
L 703 3866 
L 703 4441 
L 1819 4666 
L 2450 4666 
L 2450 531 
L 3481 531 
L 3481 0 
L 794 0 
L 794 531 
z
" id="DejaVuSans-31" transform="scale(0.015625)"/>
       </defs>
       <use xlink:href="#DejaVuSans-31"/>
       <use x="63.623047" xlink:href="#DejaVuSans-30"/>
       <use x="127.246094" xlink:href="#DejaVuSans-30"/>
       <use x="190.869141" xlink:href="#DejaVuSans-30"/>
      </g>
     </g>
    </g>
    <g id="xtick_3">
     <g id="line2d_3">
      <g>
       <use style="stroke:#000000;stroke-width:0.8;" x="207.167606" xlink:href="#m64c129f9f2" y="332.2"/>
      </g>
     </g>
     <g id="text_3">
      <!-- 1500 -->
      <g transform="translate(194.442606 346.798438)scale(0.1 -0.1)">
       <use xlink:href="#DejaVuSans-31"/>
       <use x="63.623047" xlink:href="#DejaVuSans-35"/>
       <use x="127.246094" xlink:href="#DejaVuSans-30"/>
       <use x="190.869141" xlink:href="#DejaVuSans-30"/>
      </g>
     </g>
    </g>
    <g id="xtick_4">
     <g id="line2d_4">
      <g>
       <use style="stroke:#000000;stroke-width:0.8;" x="263.91519" xlink:href="#m64c129f9f2" y="332.2"/>
      </g>
     </g>
     <g id="text_4">
      <!-- 2000 -->
      <g transform="translate(251.19019 346.798438)scale(0.1 -0.1)">
       <defs>
        <path d="M 1228 531 
L 3431 531 
L 3431 0 
L 469 0 
L 469 531 
Q 828 903 1448 1529 
Q 2069 2156 2228 2338 
Q 2531 2678 2651 2914 
Q 2772 3150 2772 3378 
Q 2772 3750 2511 3984 
Q 2250 4219 1831 4219 
Q 1534 4219 1204 4116 
Q 875 4013 500 3803 
L 500 4441 
Q 881 4594 1212 4672 
Q 1544 4750 1819 4750 
Q 2544 4750 2975 4387 
Q 3406 4025 3406 3419 
Q 3406 3131 3298 2873 
Q 3191 2616 2906 2266 
Q 2828 2175 2409 1742 
Q 1991 1309 1228 531 
z
" id="DejaVuSans-32" transform="scale(0.015625)"/>
       </defs>
       <use xlink:href="#DejaVuSans-32"/>
       <use x="63.623047" xlink:href="#DejaVuSans-30"/>
       <use x="127.246094" xlink:href="#DejaVuSans-30"/>
       <use x="190.869141" xlink:href="#DejaVuSans-30"/>
      </g>
     </g>
    </g>
    <g id="xtick_5">
     <g id="line2d_5">
      <g>
       <use style="stroke:#000000;stroke-width:0.8;" x="320.662775" xlink:href="#m64c129f9f2" y="332.2"/>
      </g>
     </g>
     <g id="text_5">
      <!-- 2500 -->
      <g transform="translate(307.937775 346.798438)scale(0.1 -0.1)">
       <use xlink:href="#DejaVuSans-32"/>
       <use x="63.623047" xlink:href="#DejaVuSans-35"/>
       <use x="127.246094" xlink:href="#DejaVuSans-30"/>
       <use x="190.869141" xlink:href="#DejaVuSans-30"/>
      </g>
     </g>
    </g>
    <g id="text_6">
     <!-- tiempo -->
     <g transform="translate(175.532813 360.476562)scale(0.1 -0.1)">
      <defs>
       <path d="M 1172 4494 
L 1172 3500 
L 2356 3500 
L 2356 3053 
L 1172 3053 
L 1172 1153 
Q 1172 725 1289 603 
Q 1406 481 1766 481 
L 2356 481 
L 2356 0 
L 1766 0 
Q 1100 0 847 248 
Q 594 497 594 1153 
L 594 3053 
L 172 3053 
L 172 3500 
L 594 3500 
L 594 4494 
L 1172 4494 
z
" id="DejaVuSans-74" transform="scale(0.015625)"/>
       <path d="M 603 3500 
L 1178 3500 
L 1178 0 
L 603 0 
L 603 3500 
z
M 603 4863 
L 1178 4863 
L 1178 4134 
L 603 4134 
L 603 4863 
z
" id="DejaVuSans-69" transform="scale(0.015625)"/>
       <path d="M 3597 1894 
L 3597 1613 
L 953 1613 
Q 991 1019 1311 708 
Q 1631 397 2203 397 
Q 2534 397 2845 478 
Q 3156 559 3463 722 
L 3463 178 
Q 3153 47 2828 -22 
Q 2503 -91 2169 -91 
Q 1331 -91 842 396 
Q 353 884 353 1716 
Q 353 2575 817 3079 
Q 1281 3584 2069 3584 
Q 2775 3584 3186 3129 
Q 3597 2675 3597 1894 
z
M 3022 2063 
Q 3016 2534 2758 2815 
Q 2500 3097 2075 3097 
Q 1594 3097 1305 2825 
Q 1016 2553 972 2059 
L 3022 2063 
z
" id="DejaVuSans-65" transform="scale(0.015625)"/>
       <path d="M 3328 2828 
Q 3544 3216 3844 3400 
Q 4144 3584 4550 3584 
Q 5097 3584 5394 3201 
Q 5691 2819 5691 2113 
L 5691 0 
L 5113 0 
L 5113 2094 
Q 5113 2597 4934 2840 
Q 4756 3084 4391 3084 
Q 3944 3084 3684 2787 
Q 3425 2491 3425 1978 
L 3425 0 
L 2847 0 
L 2847 2094 
Q 2847 2600 2669 2842 
Q 2491 3084 2119 3084 
Q 1678 3084 1418 2786 
Q 1159 2488 1159 1978 
L 1159 0 
L 581 0 
L 581 3500 
L 1159 3500 
L 1159 2956 
Q 1356 3278 1631 3431 
Q 1906 3584 2284 3584 
Q 2666 3584 2933 3390 
Q 3200 3197 3328 2828 
z
" id="DejaVuSans-6d" transform="scale(0.015625)"/>
       <path d="M 1159 525 
L 1159 -1331 
L 581 -1331 
L 581 3500 
L 1159 3500 
L 1159 2969 
Q 1341 3281 1617 3432 
Q 1894 3584 2278 3584 
Q 2916 3584 3314 3078 
Q 3713 2572 3713 1747 
Q 3713 922 3314 415 
Q 2916 -91 2278 -91 
Q 1894 -91 1617 61 
Q 1341 213 1159 525 
z
M 3116 1747 
Q 3116 2381 2855 2742 
Q 2594 3103 2138 3103 
Q 1681 3103 1420 2742 
Q 1159 2381 1159 1747 
Q 1159 1113 1420 752 
Q 1681 391 2138 391 
Q 2594 391 2855 752 
Q 3116 1113 3116 1747 
z
" id="DejaVuSans-70" transform="scale(0.015625)"/>
       <path d="M 1959 3097 
Q 1497 3097 1228 2736 
Q 959 2375 959 1747 
Q 959 1119 1226 758 
Q 1494 397 1959 397 
Q 2419 397 2687 759 
Q 2956 1122 2956 1747 
Q 2956 2369 2687 2733 
Q 2419 3097 1959 3097 
z
M 1959 3584 
Q 2709 3584 3137 3096 
Q 3566 2609 3566 1747 
Q 3566 888 3137 398 
Q 2709 -91 1959 -91 
Q 1206 -91 779 398 
Q 353 888 353 1747 
Q 353 2609 779 3096 
Q 1206 3584 1959 3584 
z
" id="DejaVuSans-6f" transform="scale(0.015625)"/>
      </defs>
      <use xlink:href="#DejaVuSans-74"/>
      <use x="39.208984" xlink:href="#DejaVuSans-69"/>
      <use x="66.992188" xlink:href="#DejaVuSans-65"/>
      <use x="128.515625" xlink:href="#DejaVuSans-6d"/>
      <use x="225.927734" xlink:href="#DejaVuSans-70"/>
      <use x="289.404297" xlink:href="#DejaVuSans-6f"/>
     </g>
    </g>
   </g>
   <g id="matplotlib.axis_2">
    <g id="ytick_1">
     <g id="line2d_6">
      <defs>
       <path d="M 0 0 
L -3.5 0 
" id="mf20314e71f" style="stroke:#000000;stroke-width:0.8;"/>
      </defs>
      <g>
       <use style="stroke:#000000;stroke-width:0.8;" x="36.925" xlink:href="#mf20314e71f" y="319.295679"/>
      </g>
     </g>
     <g id="text_7">
      <!-- 0 -->
      <g transform="translate(23.5625 323.094897)scale(0.1 -0.1)">
       <use xlink:href="#DejaVuSans-30"/>
      </g>
     </g>
    </g>
    <g id="ytick_2">
     <g id="line2d_7">
      <g>
       <use style="stroke:#000000;stroke-width:0.8;" x="36.925" xlink:href="#mf20314e71f" y="276.676443"/>
      </g>
     </g>
     <g id="text_8">
      <!-- 25 -->
      <g transform="translate(17.2 280.475662)scale(0.1 -0.1)">
       <use xlink:href="#DejaVuSans-32"/>
       <use x="63.623047" xlink:href="#DejaVuSans-35"/>
      </g>
     </g>
    </g>
    <g id="ytick_3">
     <g id="line2d_8">
      <g>
       <use style="stroke:#000000;stroke-width:0.8;" x="36.925" xlink:href="#mf20314e71f" y="234.057208"/>
      </g>
     </g>
     <g id="text_9">
      <!-- 50 -->
      <g transform="translate(17.2 237.856427)scale(0.1 -0.1)">
       <use xlink:href="#DejaVuSans-35"/>
       <use x="63.623047" xlink:href="#DejaVuSans-30"/>
      </g>
     </g>
    </g>
    <g id="ytick_4">
     <g id="line2d_9">
      <g>
       <use style="stroke:#000000;stroke-width:0.8;" x="36.925" xlink:href="#mf20314e71f" y="191.437973"/>
      </g>
     </g>
     <g id="text_10">
      <!-- 75 -->
      <g transform="translate(17.2 195.237192)scale(0.1 -0.1)">
       <defs>
        <path d="M 525 4666 
L 3525 4666 
L 3525 4397 
L 1831 0 
L 1172 0 
L 2766 4134 
L 525 4134 
L 525 4666 
z
" id="DejaVuSans-37" transform="scale(0.015625)"/>
       </defs>
       <use xlink:href="#DejaVuSans-37"/>
       <use x="63.623047" xlink:href="#DejaVuSans-35"/>
      </g>
     </g>
    </g>
    <g id="ytick_5">
     <g id="line2d_10">
      <g>
       <use style="stroke:#000000;stroke-width:0.8;" x="36.925" xlink:href="#mf20314e71f" y="148.818738"/>
      </g>
     </g>
     <g id="text_11">
      <!-- 100 -->
      <g transform="translate(10.8375 152.617956)scale(0.1 -0.1)">
       <use xlink:href="#DejaVuSans-31"/>
       <use x="63.623047" xlink:href="#DejaVuSans-30"/>
       <use x="127.246094" xlink:href="#DejaVuSans-30"/>
      </g>
     </g>
    </g>
    <g id="ytick_6">
     <g id="line2d_11">
      <g>
       <use style="stroke:#000000;stroke-width:0.8;" x="36.925" xlink:href="#mf20314e71f" y="106.199502"/>
      </g>
     </g>
     <g id="text_12">
      <!-- 125 -->
      <g transform="translate(10.8375 109.998721)scale(0.1 -0.1)">
       <use xlink:href="#DejaVuSans-31"/>
       <use x="63.623047" xlink:href="#DejaVuSans-32"/>
       <use x="127.246094" xlink:href="#DejaVuSans-35"/>
      </g>
     </g>
    </g>
    <g id="ytick_7">
     <g id="line2d_12">
      <g>
       <use style="stroke:#000000;stroke-width:0.8;" x="36.925" xlink:href="#mf20314e71f" y="63.580267"/>
      </g>
     </g>
     <g id="text_13">
      <!-- 150 -->
      <g transform="translate(10.8375 67.379486)scale(0.1 -0.1)">
       <use xlink:href="#DejaVuSans-31"/>
       <use x="63.623047" xlink:href="#DejaVuSans-35"/>
       <use x="127.246094" xlink:href="#DejaVuSans-30"/>
      </g>
     </g>
    </g>
    <g id="ytick_8">
     <g id="line2d_13">
      <g>
       <use style="stroke:#000000;stroke-width:0.8;" x="36.925" xlink:href="#mf20314e71f" y="20.961032"/>
      </g>
     </g>
     <g id="text_14">
      <!-- 175 -->
      <g transform="translate(10.8375 24.760251)scale(0.1 -0.1)">
       <use xlink:href="#DejaVuSans-31"/>
       <use x="63.623047" xlink:href="#DejaVuSans-37"/>
       <use x="127.246094" xlink:href="#DejaVuSans-35"/>
      </g>
     </g>
    </g>
    <g id="text_15">
     <!-- complejidad -->
     <g transform="translate(4.757812 202.009375)rotate(-90)scale(0.1 -0.1)">
      <defs>
       <path d="M 3122 3366 
L 3122 2828 
Q 2878 2963 2633 3030 
Q 2388 3097 2138 3097 
Q 1578 3097 1268 2742 
Q 959 2388 959 1747 
Q 959 1106 1268 751 
Q 1578 397 2138 397 
Q 2388 397 2633 464 
Q 2878 531 3122 666 
L 3122 134 
Q 2881 22 2623 -34 
Q 2366 -91 2075 -91 
Q 1284 -91 818 406 
Q 353 903 353 1747 
Q 353 2603 823 3093 
Q 1294 3584 2113 3584 
Q 2378 3584 2631 3529 
Q 2884 3475 3122 3366 
z
" id="DejaVuSans-63" transform="scale(0.015625)"/>
       <path d="M 603 4863 
L 1178 4863 
L 1178 0 
L 603 0 
L 603 4863 
z
" id="DejaVuSans-6c" transform="scale(0.015625)"/>
       <path d="M 603 3500 
L 1178 3500 
L 1178 -63 
Q 1178 -731 923 -1031 
Q 669 -1331 103 -1331 
L -116 -1331 
L -116 -844 
L 38 -844 
Q 366 -844 484 -692 
Q 603 -541 603 -63 
L 603 3500 
z
M 603 4863 
L 1178 4863 
L 1178 4134 
L 603 4134 
L 603 4863 
z
" id="DejaVuSans-6a" transform="scale(0.015625)"/>
       <path d="M 2906 2969 
L 2906 4863 
L 3481 4863 
L 3481 0 
L 2906 0 
L 2906 525 
Q 2725 213 2448 61 
Q 2172 -91 1784 -91 
Q 1150 -91 751 415 
Q 353 922 353 1747 
Q 353 2572 751 3078 
Q 1150 3584 1784 3584 
Q 2172 3584 2448 3432 
Q 2725 3281 2906 2969 
z
M 947 1747 
Q 947 1113 1208 752 
Q 1469 391 1925 391 
Q 2381 391 2643 752 
Q 2906 1113 2906 1747 
Q 2906 2381 2643 2742 
Q 2381 3103 1925 3103 
Q 1469 3103 1208 2742 
Q 947 2381 947 1747 
z
" id="DejaVuSans-64" transform="scale(0.015625)"/>
       <path d="M 2194 1759 
Q 1497 1759 1228 1600 
Q 959 1441 959 1056 
Q 959 750 1161 570 
Q 1363 391 1709 391 
Q 2188 391 2477 730 
Q 2766 1069 2766 1631 
L 2766 1759 
L 2194 1759 
z
M 3341 1997 
L 3341 0 
L 2766 0 
L 2766 531 
Q 2569 213 2275 61 
Q 1981 -91 1556 -91 
Q 1019 -91 701 211 
Q 384 513 384 1019 
Q 384 1609 779 1909 
Q 1175 2209 1959 2209 
L 2766 2209 
L 2766 2266 
Q 2766 2663 2505 2880 
Q 2244 3097 1772 3097 
Q 1472 3097 1187 3025 
Q 903 2953 641 2809 
L 641 3341 
Q 956 3463 1253 3523 
Q 1550 3584 1831 3584 
Q 2591 3584 2966 3190 
Q 3341 2797 3341 1997 
z
" id="DejaVuSans-61" transform="scale(0.015625)"/>
      </defs>
      <use xlink:href="#DejaVuSans-63"/>
      <use x="54.980469" xlink:href="#DejaVuSans-6f"/>
      <use x="116.162109" xlink:href="#DejaVuSans-6d"/>
      <use x="213.574219" xlink:href="#DejaVuSans-70"/>
      <use x="277.050781" xlink:href="#DejaVuSans-6c"/>
      <use x="304.833984" xlink:href="#DejaVuSans-65"/>
      <use x="366.357422" xlink:href="#DejaVuSans-6a"/>
      <use x="394.140625" xlink:href="#DejaVuSans-69"/>
      <use x="421.923828" xlink:href="#DejaVuSans-64"/>
      <use x="485.400391" xlink:href="#DejaVuSans-61"/>
      <use x="546.679688" xlink:href="#DejaVuSans-64"/>
     </g>
    </g>
   </g>
   <g id="line2d_14">
    <path clip-path="url(#p7874f8154e)" d="M 36.925 296.307959 
L 40.079293 295.93292 
L 43.233586 295.557881 
L 46.387879 295.182842 
L 49.542172 294.807803 
L 52.696465 294.432763 
L 55.850758 294.057724 
L 59.005051 293.682685 
L 62.159343 293.307646 
L 65.313636 292.932607 
L 68.467929 292.557568 
L 71.622222 292.182529 
L 74.776515 291.80749 
L 77.930808 291.432451 
L 81.085101 291.057411 
L 84.239394 290.682372 
L 87.393687 290.307333 
L 90.54798 289.932294 
L 93.702273 289.557255 
L 96.856566 289.182216 
L 100.010859 288.807177 
L 103.165152 288.432138 
L 106.319444 288.057099 
L 109.473737 287.682059 
L 112.62803 287.30702 
L 115.782323 286.931981 
L 118.936616 286.556942 
L 122.090909 286.181903 
L 125.245202 285.806864 
L 128.399495 285.431825 
L 131.553788 285.056786 
L 134.708081 284.681747 
L 137.862374 284.306707 
L 141.016667 283.931668 
L 144.17096 283.556629 
L 147.325253 283.18159 
L 150.479545 282.806551 
L 153.633838 282.431512 
L 156.788131 282.056473 
L 159.942424 281.681434 
L 163.096717 281.306395 
L 166.25101 280.931355 
L 169.405303 280.556316 
L 172.559596 280.181277 
L 175.713889 279.806238 
L 178.868182 279.431199 
L 182.022475 279.05616 
L 185.176768 278.681121 
L 188.331061 278.306082 
L 191.485354 277.931043 
L 194.639646 277.556003 
L 197.793939 277.180964 
L 200.948232 276.805925 
L 204.102525 276.430886 
L 207.256818 276.055847 
L 210.411111 275.680808 
L 213.565404 275.305769 
L 216.719697 274.93073 
L 219.87399 274.55569 
L 223.028283 274.180651 
L 226.182576 273.805612 
L 229.336869 273.430573 
L 232.491162 273.055534 
L 235.645455 272.680495 
L 238.799747 272.305456 
L 241.95404 271.930417 
L 245.108333 271.555378 
L 248.262626 271.180338 
L 251.416919 270.805299 
L 254.571212 270.43026 
L 257.725505 270.055221 
L 260.879798 269.680182 
L 264.034091 269.305143 
L 267.188384 268.930104 
L 270.342677 268.555065 
L 273.49697 268.180026 
L 276.651263 267.804986 
L 279.805556 267.429947 
L 282.959848 267.054908 
L 286.114141 266.679869 
L 289.268434 266.30483 
L 292.422727 265.929791 
L 295.57702 265.554752 
L 298.731313 265.179713 
L 301.885606 264.804674 
L 305.039899 264.429634 
L 308.194192 264.054595 
L 311.348485 263.679556 
L 314.502778 263.304517 
L 317.657071 262.929478 
L 320.811364 262.554439 
L 323.965657 262.1794 
L 327.119949 261.804361 
L 330.274242 261.429322 
L 333.428535 261.054282 
L 336.582828 260.679243 
L 339.737121 260.304204 
L 342.891414 259.929165 
L 346.045707 259.554126 
L 349.2 259.179087 
" style="fill:none;stroke:#1f77b4;stroke-linecap:square;stroke-width:2.25;"/>
   </g>
   <g id="patch_3">
    <path d="M 36.925 332.2 
L 36.925 10.8 
" style="fill:none;stroke:#000000;stroke-linecap:square;stroke-linejoin:miter;stroke-width:0.8;"/>
   </g>
   <g id="patch_4">
    <path d="M 36.925 332.2 
L 349.2 332.2 
" style="fill:none;stroke:#000000;stroke-linecap:square;stroke-linejoin:miter;stroke-width:0.8;"/>
   </g>
  </g>
 </g>
 <defs>
  <clipPath id="p7874f8154e">
   <rect height="321.4" width="312.275" x="36.925" y="10.8"/>
  </clipPath>
 </defs>
</svg>
