<?xml version="1.0" encoding="utf-8" standalone="no"?>
<!DOCTYPE svg PUBLIC "-//W3C//DTD SVG 1.1//EN"
  "http://www.w3.org/Graphics/SVG/1.1/DTD/svg11.dtd">
<svg height="360pt" version="1.1" viewBox="0 0 360 360" width="360pt" xmlns="http://www.w3.org/2000/svg" xmlns:xlink="http://www.w3.org/1999/xlink">
 <metadata>
  <rdf:RDF xmlns:cc="http://creativecommons.org/ns#" xmlns:dc="http://purl.org/dc/elements/1.1/" xmlns:rdf="http://www.w3.org/1999/02/22-rdf-syntax-ns#">
   <cc:Work>
    <dc:type rdf:resource="http://purl.org/dc/dcmitype/StillImage"/>
    <dc:date>2021-04-29T22:20:27.000988</dc:date>
    <dc:format>image/svg+xml</dc:format>
    <dc:creator>
     <cc:Agent>
      <dc:title>Matplotlib v3.4.1, https://matplotlib.org/</dc:title>
     </cc:Agent>
    </dc:creator>
   </cc:Work>
  </rdf:RDF>
 </metadata>
 <defs>
  <style type="text/css">*{stroke-linecap:butt;stroke-linejoin:round;}</style>
 </defs>
 <g id="figure_1">
  <g id="patch_1">
   <path d="M 0 360 
L 360 360 
L 360 0 
L 0 0 
z
" style="fill:none;"/>
  </g>
  <g id="axes_1">
   <g id="patch_2">
    <path d="M 24.175 332.2 
L 344.194198 332.2 
L 344.194198 21.8 
L 24.175 21.8 
z
" style="fill:#ffffff;"/>
   </g>
   <g id="PathCollection_1">
    <defs>
     <path d="M 0 3 
C 0.795609 3 1.55874 2.683901 2.12132 2.12132 
C 2.683901 1.55874 3 0.795609 3 0 
C 3 -0.795609 2.683901 -1.55874 2.12132 -2.12132 
C 1.55874 -2.683901 0.795609 -3 0 -3 
C -0.795609 -3 -1.55874 -2.683901 -2.12132 -2.12132 
C -2.683901 -1.55874 -3 -0.795609 -3 0 
C -3 0.795609 -2.683901 1.55874 -2.12132 2.12132 
C -1.55874 2.683901 -0.795609 3 0 3 
z
" id="md8340a8414" style="stroke:#1f77b4;stroke-opacity:0.8;"/>
    </defs>
    <g clip-path="url(#p4148b2e21d)">
     <use style="fill:#1f77b4;fill-opacity:0.8;stroke:#1f77b4;stroke-opacity:0.8;" x="24.175" xlink:href="#md8340a8414" y="317.92941"/>
     <use style="fill:#1f77b4;fill-opacity:0.8;stroke:#1f77b4;stroke-opacity:0.8;" x="24.175012" xlink:href="#md8340a8414" y="317.929409"/>
     <use style="fill:#1f77b4;fill-opacity:0.8;stroke:#1f77b4;stroke-opacity:0.8;" x="24.175075" xlink:href="#md8340a8414" y="317.929407"/>
     <use style="fill:#1f77b4;fill-opacity:0.8;stroke:#1f77b4;stroke-opacity:0.8;" x="24.175112" xlink:href="#md8340a8414" y="317.929403"/>
     <use style="fill:#1f77b4;fill-opacity:0.8;stroke:#1f77b4;stroke-opacity:0.8;" x="24.175037" xlink:href="#md8340a8414" y="317.929394"/>
     <use style="fill:#1f77b4;fill-opacity:0.8;stroke:#1f77b4;stroke-opacity:0.8;" x="24.1751" xlink:href="#md8340a8414" y="317.929377"/>
     <use style="fill:#1f77b4;fill-opacity:0.8;stroke:#1f77b4;stroke-opacity:0.8;" x="24.175175" xlink:href="#md8340a8414" y="317.929344"/>
     <use style="fill:#1f77b4;fill-opacity:0.8;stroke:#1f77b4;stroke-opacity:0.8;" x="24.175175" xlink:href="#md8340a8414" y="317.929276"/>
     <use style="fill:#1f77b4;fill-opacity:0.8;stroke:#1f77b4;stroke-opacity:0.8;" x="24.175499" xlink:href="#md8340a8414" y="317.929142"/>
     <use style="fill:#1f77b4;fill-opacity:0.8;stroke:#1f77b4;stroke-opacity:0.8;" x="24.175612" xlink:href="#md8340a8414" y="317.928873"/>
     <use style="fill:#1f77b4;fill-opacity:0.8;stroke:#1f77b4;stroke-opacity:0.8;" x="24.176173" xlink:href="#md8340a8414" y="317.928335"/>
     <use style="fill:#1f77b4;fill-opacity:0.8;stroke:#1f77b4;stroke-opacity:0.8;" x="24.177297" xlink:href="#md8340a8414" y="317.927259"/>
     <use style="fill:#1f77b4;fill-opacity:0.8;stroke:#1f77b4;stroke-opacity:0.8;" x="24.179519" xlink:href="#md8340a8414" y="317.925108"/>
     <use style="fill:#1f77b4;fill-opacity:0.8;stroke:#1f77b4;stroke-opacity:0.8;" x="24.184225" xlink:href="#md8340a8414" y="317.920804"/>
     <use style="fill:#1f77b4;fill-opacity:0.8;stroke:#1f77b4;stroke-opacity:0.8;" x="24.199156" xlink:href="#md8340a8414" y="317.912198"/>
     <use style="fill:#1f77b4;fill-opacity:0.8;stroke:#1f77b4;stroke-opacity:0.8;" x="24.212064" xlink:href="#md8340a8414" y="317.894985"/>
     <use style="fill:#1f77b4;fill-opacity:0.8;stroke:#1f77b4;stroke-opacity:0.8;" x="24.268952" xlink:href="#md8340a8414" y="317.860558"/>
     <use style="fill:#1f77b4;fill-opacity:0.8;stroke:#1f77b4;stroke-opacity:0.8;" x="24.332095" xlink:href="#md8340a8414" y="317.791706"/>
     <use style="fill:#1f77b4;fill-opacity:0.8;stroke:#1f77b4;stroke-opacity:0.8;" x="24.491274" xlink:href="#md8340a8414" y="317.654"/>
     <use style="fill:#1f77b4;fill-opacity:0.8;stroke:#1f77b4;stroke-opacity:0.8;" x="24.822167" xlink:href="#md8340a8414" y="317.37859"/>
     <use style="fill:#1f77b4;fill-opacity:0.8;stroke:#1f77b4;stroke-opacity:0.8;" x="25.471443" xlink:href="#md8340a8414" y="316.827769"/>
     <use style="fill:#1f77b4;fill-opacity:0.8;stroke:#1f77b4;stroke-opacity:0.8;" x="26.860753" xlink:href="#md8340a8414" y="315.726127"/>
     <use style="fill:#1f77b4;fill-opacity:0.8;stroke:#1f77b4;stroke-opacity:0.8;" x="29.81704" xlink:href="#md8340a8414" y="313.522843"/>
     <use style="fill:#1f77b4;fill-opacity:0.8;stroke:#1f77b4;stroke-opacity:0.8;" x="34.375072" xlink:href="#md8340a8414" y="309.116276"/>
     <use style="fill:#1f77b4;fill-opacity:0.8;stroke:#1f77b4;stroke-opacity:0.8;" x="44.551737" xlink:href="#md8340a8414" y="300.303141"/>
     <use style="fill:#1f77b4;fill-opacity:0.8;stroke:#1f77b4;stroke-opacity:0.8;" x="64.479572" xlink:href="#md8340a8414" y="282.676871"/>
     <use style="fill:#1f77b4;fill-opacity:0.8;stroke:#1f77b4;stroke-opacity:0.8;" x="105.314589" xlink:href="#md8340a8414" y="247.424331"/>
     <use style="fill:#1f77b4;fill-opacity:0.8;stroke:#1f77b4;stroke-opacity:0.8;" x="185.783691" xlink:href="#md8340a8414" y="176.919251"/>
     <use style="fill:#1f77b4;fill-opacity:0.8;stroke:#1f77b4;stroke-opacity:0.8;" x="344.194198" xlink:href="#md8340a8414" y="35.909091"/>
    </g>
   </g>
   <g id="PolyCollection_1">
    <path clip-path="url(#p4148b2e21d)" d="M 24.175 317.934998 
L 24.175 318.090909 
L 27.407517 315.249392 
L 30.640034 312.407997 
L 33.872551 309.574205 
L 37.105069 306.751167 
L 40.337586 303.933867 
L 43.570103 301.122 
L 46.80262 298.31018 
L 50.035137 295.498332 
L 53.267654 292.688634 
L 56.500172 289.879977 
L 59.732689 287.069397 
L 62.965206 284.261386 
L 66.197723 281.450272 
L 69.43024 278.641739 
L 72.662757 275.830267 
L 75.895274 273.021193 
L 79.127792 270.212559 
L 82.360309 267.403081 
L 85.592826 264.594052 
L 88.825343 261.785023 
L 92.05786 258.975995 
L 95.290377 256.166966 
L 98.522895 253.358004 
L 101.755412 250.54992 
L 104.987929 247.742198 
L 108.220446 244.934476 
L 111.452963 242.126754 
L 114.68548 239.319033 
L 117.917997 236.511311 
L 121.150515 233.703589 
L 124.383032 230.895857 
L 127.615549 228.088107 
L 130.848066 225.280051 
L 134.080583 222.470872 
L 137.3131 219.661694 
L 140.545618 216.852515 
L 143.778135 214.043337 
L 147.010652 211.234318 
L 150.243169 208.426063 
L 153.475686 205.617784 
L 156.708203 202.809506 
L 159.94072 200.001227 
L 163.173238 197.192949 
L 166.405755 194.384671 
L 169.638272 191.576392 
L 172.870789 188.767202 
L 176.103306 185.957787 
L 179.335823 183.148373 
L 182.568341 180.338958 
L 185.800858 177.529876 
L 189.033375 174.721617 
L 192.265892 171.913359 
L 195.498409 169.1051 
L 198.730926 166.296841 
L 201.963443 163.488582 
L 205.195961 160.680323 
L 208.428478 157.872065 
L 211.660995 155.063806 
L 214.893512 152.255547 
L 218.126029 149.447288 
L 221.358546 146.639029 
L 224.591064 143.830771 
L 227.823581 141.022512 
L 231.056098 138.214253 
L 234.288615 135.405994 
L 237.521132 132.597735 
L 240.753649 129.789477 
L 243.986166 126.981218 
L 247.218684 124.172959 
L 250.451201 121.3647 
L 253.683718 118.556441 
L 256.916235 115.748183 
L 260.148752 112.939924 
L 263.381269 110.131665 
L 266.613787 107.323406 
L 269.846304 104.515147 
L 273.078821 101.706889 
L 276.311338 98.89863 
L 279.543855 96.090371 
L 282.776372 93.282112 
L 286.008889 90.473853 
L 289.241407 87.665595 
L 292.473924 84.857336 
L 295.706441 82.049077 
L 298.938958 79.240818 
L 302.171475 76.432559 
L 305.403992 73.624301 
L 308.63651 70.816042 
L 311.869027 68.007783 
L 315.101544 65.199524 
L 318.334061 62.391265 
L 321.566578 59.583007 
L 324.799095 56.774748 
L 328.031612 53.966489 
L 331.26413 51.15823 
L 334.496647 48.349971 
L 337.729164 45.541713 
L 340.961681 42.733454 
L 344.194198 39.925195 
L 344.194198 35.936673 
L 344.194198 35.936673 
L 340.961681 38.785894 
L 337.729164 41.634951 
L 334.496647 44.483794 
L 331.26413 47.332637 
L 328.031612 50.182125 
L 324.799095 53.031508 
L 321.566578 55.880436 
L 318.334061 58.729303 
L 315.101544 61.578139 
L 311.869027 64.426773 
L 308.63651 67.275307 
L 305.403992 70.123847 
L 302.171475 72.972598 
L 298.938958 75.821688 
L 295.706441 78.670785 
L 292.473924 81.519882 
L 289.241407 84.368828 
L 286.008889 87.217667 
L 282.776372 90.066507 
L 279.543855 92.915347 
L 276.311338 95.764187 
L 273.078821 98.613026 
L 269.846304 101.461869 
L 266.613787 104.310713 
L 263.381269 107.159556 
L 260.148752 110.008516 
L 256.916235 112.857266 
L 253.683718 115.706304 
L 250.451201 118.555345 
L 247.218684 121.404251 
L 243.986166 124.252947 
L 240.753649 127.101921 
L 237.521132 129.950987 
L 234.288615 132.800058 
L 231.056098 135.649129 
L 227.823581 138.497993 
L 224.591064 141.346806 
L 221.358546 144.195746 
L 218.126029 147.044715 
L 214.893512 149.893688 
L 211.660995 152.742615 
L 208.428478 155.591258 
L 205.195961 158.44026 
L 201.963443 161.289269 
L 198.730926 164.138508 
L 195.498409 166.987527 
L 192.265892 169.8365 
L 189.033375 172.685473 
L 185.800858 175.534446 
L 182.568341 178.383419 
L 179.335823 181.232392 
L 176.103306 184.081366 
L 172.870789 186.930339 
L 169.638272 189.779356 
L 166.405755 192.62839 
L 163.173238 195.477423 
L 159.94072 198.326456 
L 156.708203 201.17549 
L 153.475686 204.024523 
L 150.243169 206.873557 
L 147.010652 209.72237 
L 143.778135 212.571375 
L 140.545618 215.420061 
L 137.3131 218.269021 
L 134.080583 221.117994 
L 130.848066 223.966967 
L 127.615549 226.815941 
L 124.383032 229.664914 
L 121.150515 232.513887 
L 117.917997 235.362803 
L 114.68548 238.211661 
L 111.452963 241.060525 
L 108.220446 243.909509 
L 104.987929 246.758584 
L 101.755412 249.607645 
L 98.522895 252.456656 
L 95.290377 255.305616 
L 92.05786 258.154545 
L 88.825343 261.003274 
L 85.592826 263.851908 
L 82.360309 266.700542 
L 79.127792 269.549177 
L 75.895274 272.397911 
L 72.662757 275.246759 
L 69.43024 278.095608 
L 66.197723 280.944456 
L 62.965206 283.793305 
L 59.732689 286.642154 
L 56.500172 289.491002 
L 53.267654 292.339807 
L 50.035137 295.187231 
L 46.80262 298.034599 
L 43.570103 300.881999 
L 40.337586 303.729884 
L 37.105069 306.578935 
L 33.872551 309.427826 
L 30.640034 312.27561 
L 27.407517 315.114308 
L 24.175 317.934998 
z
" style="fill:#1f77b4;fill-opacity:0.15;"/>
   </g>
   <g id="matplotlib.axis_1">
    <g id="xtick_1">
     <g id="line2d_1">
      <defs>
       <path d="M 0 0 
L 0 3.5 
" id="mf1de3e0c8b" style="stroke:#000000;stroke-width:0.8;"/>
      </defs>
      <g>
       <use style="stroke:#000000;stroke-width:0.8;" x="86.593301" xlink:href="#mf1de3e0c8b" y="332.2"/>
      </g>
     </g>
     <g id="text_1">
      <!-- 500 -->
      <g transform="translate(77.049551 346.798438)scale(0.1 -0.1)">
       <defs>
        <path d="M 691 4666 
L 3169 4666 
L 3169 4134 
L 1269 4134 
L 1269 2991 
Q 1406 3038 1543 3061 
Q 1681 3084 1819 3084 
Q 2600 3084 3056 2656 
Q 3513 2228 3513 1497 
Q 3513 744 3044 326 
Q 2575 -91 1722 -91 
Q 1428 -91 1123 -41 
Q 819 9 494 109 
L 494 744 
Q 775 591 1075 516 
Q 1375 441 1709 441 
Q 2250 441 2565 725 
Q 2881 1009 2881 1497 
Q 2881 1984 2565 2268 
Q 2250 2553 1709 2553 
Q 1456 2553 1204 2497 
Q 953 2441 691 2322 
L 691 4666 
z
" id="DejaVuSans-35" transform="scale(0.015625)"/>
        <path d="M 2034 4250 
Q 1547 4250 1301 3770 
Q 1056 3291 1056 2328 
Q 1056 1369 1301 889 
Q 1547 409 2034 409 
Q 2525 409 2770 889 
Q 3016 1369 3016 2328 
Q 3016 3291 2770 3770 
Q 2525 4250 2034 4250 
z
M 2034 4750 
Q 2819 4750 3233 4129 
Q 3647 3509 3647 2328 
Q 3647 1150 3233 529 
Q 2819 -91 2034 -91 
Q 1250 -91 836 529 
Q 422 1150 422 2328 
Q 422 3509 836 4129 
Q 1250 4750 2034 4750 
z
" id="DejaVuSans-30" transform="scale(0.015625)"/>
       </defs>
       <use xlink:href="#DejaVuSans-35"/>
       <use x="63.623047" xlink:href="#DejaVuSans-30"/>
       <use x="127.246094" xlink:href="#DejaVuSans-30"/>
      </g>
     </g>
    </g>
    <g id="xtick_2">
     <g id="line2d_2">
      <g>
       <use style="stroke:#000000;stroke-width:0.8;" x="149.01174" xlink:href="#mf1de3e0c8b" y="332.2"/>
      </g>
     </g>
     <g id="text_2">
      <!-- 1000 -->
      <g transform="translate(136.28674 346.798438)scale(0.1 -0.1)">
       <defs>
        <path d="M 794 531 
L 1825 531 
L 1825 4091 
L 703 3866 
L 703 4441 
L 1819 4666 
L 2450 4666 
L 2450 531 
L 3481 531 
L 3481 0 
L 794 0 
L 794 531 
z
" id="DejaVuSans-31" transform="scale(0.015625)"/>
       </defs>
       <use xlink:href="#DejaVuSans-31"/>
       <use x="63.623047" xlink:href="#DejaVuSans-30"/>
       <use x="127.246094" xlink:href="#DejaVuSans-30"/>
       <use x="190.869141" xlink:href="#DejaVuSans-30"/>
      </g>
     </g>
    </g>
    <g id="xtick_3">
     <g id="line2d_3">
      <g>
       <use style="stroke:#000000;stroke-width:0.8;" x="211.430179" xlink:href="#mf1de3e0c8b" y="332.2"/>
      </g>
     </g>
     <g id="text_3">
      <!-- 1500 -->
      <g transform="translate(198.705179 346.798438)scale(0.1 -0.1)">
       <use xlink:href="#DejaVuSans-31"/>
       <use x="63.623047" xlink:href="#DejaVuSans-35"/>
       <use x="127.246094" xlink:href="#DejaVuSans-30"/>
       <use x="190.869141" xlink:href="#DejaVuSans-30"/>
      </g>
     </g>
    </g>
    <g id="xtick_4">
     <g id="line2d_4">
      <g>
       <use style="stroke:#000000;stroke-width:0.8;" x="273.848618" xlink:href="#mf1de3e0c8b" y="332.2"/>
      </g>
     </g>
     <g id="text_4">
      <!-- 2000 -->
      <g transform="translate(261.123618 346.798438)scale(0.1 -0.1)">
       <defs>
        <path d="M 1228 531 
L 3431 531 
L 3431 0 
L 469 0 
L 469 531 
Q 828 903 1448 1529 
Q 2069 2156 2228 2338 
Q 2531 2678 2651 2914 
Q 2772 3150 2772 3378 
Q 2772 3750 2511 3984 
Q 2250 4219 1831 4219 
Q 1534 4219 1204 4116 
Q 875 4013 500 3803 
L 500 4441 
Q 881 4594 1212 4672 
Q 1544 4750 1819 4750 
Q 2544 4750 2975 4387 
Q 3406 4025 3406 3419 
Q 3406 3131 3298 2873 
Q 3191 2616 2906 2266 
Q 2828 2175 2409 1742 
Q 1991 1309 1228 531 
z
" id="DejaVuSans-32" transform="scale(0.015625)"/>
       </defs>
       <use xlink:href="#DejaVuSans-32"/>
       <use x="63.623047" xlink:href="#DejaVuSans-30"/>
       <use x="127.246094" xlink:href="#DejaVuSans-30"/>
       <use x="190.869141" xlink:href="#DejaVuSans-30"/>
      </g>
     </g>
    </g>
    <g id="xtick_5">
     <g id="line2d_5">
      <g>
       <use style="stroke:#000000;stroke-width:0.8;" x="336.267056" xlink:href="#mf1de3e0c8b" y="332.2"/>
      </g>
     </g>
     <g id="text_5">
      <!-- 2500 -->
      <g transform="translate(323.542056 346.798438)scale(0.1 -0.1)">
       <use xlink:href="#DejaVuSans-32"/>
       <use x="63.623047" xlink:href="#DejaVuSans-35"/>
       <use x="127.246094" xlink:href="#DejaVuSans-30"/>
       <use x="190.869141" xlink:href="#DejaVuSans-30"/>
      </g>
     </g>
    </g>
    <g id="text_6">
     <!-- tiempo -->
     <g transform="translate(166.654912 360.476562)scale(0.1 -0.1)">
      <defs>
       <path d="M 1172 4494 
L 1172 3500 
L 2356 3500 
L 2356 3053 
L 1172 3053 
L 1172 1153 
Q 1172 725 1289 603 
Q 1406 481 1766 481 
L 2356 481 
L 2356 0 
L 1766 0 
Q 1100 0 847 248 
Q 594 497 594 1153 
L 594 3053 
L 172 3053 
L 172 3500 
L 594 3500 
L 594 4494 
L 1172 4494 
z
" id="DejaVuSans-74" transform="scale(0.015625)"/>
       <path d="M 603 3500 
L 1178 3500 
L 1178 0 
L 603 0 
L 603 3500 
z
M 603 4863 
L 1178 4863 
L 1178 4134 
L 603 4134 
L 603 4863 
z
" id="DejaVuSans-69" transform="scale(0.015625)"/>
       <path d="M 3597 1894 
L 3597 1613 
L 953 1613 
Q 991 1019 1311 708 
Q 1631 397 2203 397 
Q 2534 397 2845 478 
Q 3156 559 3463 722 
L 3463 178 
Q 3153 47 2828 -22 
Q 2503 -91 2169 -91 
Q 1331 -91 842 396 
Q 353 884 353 1716 
Q 353 2575 817 3079 
Q 1281 3584 2069 3584 
Q 2775 3584 3186 3129 
Q 3597 2675 3597 1894 
z
M 3022 2063 
Q 3016 2534 2758 2815 
Q 2500 3097 2075 3097 
Q 1594 3097 1305 2825 
Q 1016 2553 972 2059 
L 3022 2063 
z
" id="DejaVuSans-65" transform="scale(0.015625)"/>
       <path d="M 3328 2828 
Q 3544 3216 3844 3400 
Q 4144 3584 4550 3584 
Q 5097 3584 5394 3201 
Q 5691 2819 5691 2113 
L 5691 0 
L 5113 0 
L 5113 2094 
Q 5113 2597 4934 2840 
Q 4756 3084 4391 3084 
Q 3944 3084 3684 2787 
Q 3425 2491 3425 1978 
L 3425 0 
L 2847 0 
L 2847 2094 
Q 2847 2600 2669 2842 
Q 2491 3084 2119 3084 
Q 1678 3084 1418 2786 
Q 1159 2488 1159 1978 
L 1159 0 
L 581 0 
L 581 3500 
L 1159 3500 
L 1159 2956 
Q 1356 3278 1631 3431 
Q 1906 3584 2284 3584 
Q 2666 3584 2933 3390 
Q 3200 3197 3328 2828 
z
" id="DejaVuSans-6d" transform="scale(0.015625)"/>
       <path d="M 1159 525 
L 1159 -1331 
L 581 -1331 
L 581 3500 
L 1159 3500 
L 1159 2969 
Q 1341 3281 1617 3432 
Q 1894 3584 2278 3584 
Q 2916 3584 3314 3078 
Q 3713 2572 3713 1747 
Q 3713 922 3314 415 
Q 2916 -91 2278 -91 
Q 1894 -91 1617 61 
Q 1341 213 1159 525 
z
M 3116 1747 
Q 3116 2381 2855 2742 
Q 2594 3103 2138 3103 
Q 1681 3103 1420 2742 
Q 1159 2381 1159 1747 
Q 1159 1113 1420 752 
Q 1681 391 2138 391 
Q 2594 391 2855 752 
Q 3116 1113 3116 1747 
z
" id="DejaVuSans-70" transform="scale(0.015625)"/>
       <path d="M 1959 3097 
Q 1497 3097 1228 2736 
Q 959 2375 959 1747 
Q 959 1119 1226 758 
Q 1494 397 1959 397 
Q 2419 397 2687 759 
Q 2956 1122 2956 1747 
Q 2956 2369 2687 2733 
Q 2419 3097 1959 3097 
z
M 1959 3584 
Q 2709 3584 3137 3096 
Q 3566 2609 3566 1747 
Q 3566 888 3137 398 
Q 2709 -91 1959 -91 
Q 1206 -91 779 398 
Q 353 888 353 1747 
Q 353 2609 779 3096 
Q 1206 3584 1959 3584 
z
" id="DejaVuSans-6f" transform="scale(0.015625)"/>
      </defs>
      <use xlink:href="#DejaVuSans-74"/>
      <use x="39.208984" xlink:href="#DejaVuSans-69"/>
      <use x="66.992188" xlink:href="#DejaVuSans-65"/>
      <use x="128.515625" xlink:href="#DejaVuSans-6d"/>
      <use x="225.927734" xlink:href="#DejaVuSans-70"/>
      <use x="289.404297" xlink:href="#DejaVuSans-6f"/>
     </g>
    </g>
   </g>
   <g id="matplotlib.axis_2">
    <g id="ytick_1">
     <g id="line2d_6">
      <defs>
       <path d="M 0 0 
L -3.5 0 
" id="me263ecd252" style="stroke:#000000;stroke-width:0.8;"/>
      </defs>
      <g>
       <use style="stroke:#000000;stroke-width:0.8;" x="24.175" xlink:href="#me263ecd252" y="317.929411"/>
      </g>
     </g>
     <g id="text_7">
      <!-- 0 -->
      <g transform="translate(10.8125 321.72863)scale(0.1 -0.1)">
       <use xlink:href="#DejaVuSans-30"/>
      </g>
     </g>
    </g>
    <g id="ytick_2">
     <g id="line2d_7">
      <g>
       <use style="stroke:#000000;stroke-width:0.8;" x="24.175" xlink:href="#me263ecd252" y="265.399033"/>
      </g>
     </g>
     <g id="text_8">
      <!-- 1 -->
      <g transform="translate(10.8125 269.198252)scale(0.1 -0.1)">
       <use xlink:href="#DejaVuSans-31"/>
      </g>
     </g>
    </g>
    <g id="ytick_3">
     <g id="line2d_8">
      <g>
       <use style="stroke:#000000;stroke-width:0.8;" x="24.175" xlink:href="#me263ecd252" y="212.868655"/>
      </g>
     </g>
     <g id="text_9">
      <!-- 2 -->
      <g transform="translate(10.8125 216.667873)scale(0.1 -0.1)">
       <use xlink:href="#DejaVuSans-32"/>
      </g>
     </g>
    </g>
    <g id="ytick_4">
     <g id="line2d_9">
      <g>
       <use style="stroke:#000000;stroke-width:0.8;" x="24.175" xlink:href="#me263ecd252" y="160.338277"/>
      </g>
     </g>
     <g id="text_10">
      <!-- 3 -->
      <g transform="translate(10.8125 164.137495)scale(0.1 -0.1)">
       <defs>
        <path d="M 2597 2516 
Q 3050 2419 3304 2112 
Q 3559 1806 3559 1356 
Q 3559 666 3084 287 
Q 2609 -91 1734 -91 
Q 1441 -91 1130 -33 
Q 819 25 488 141 
L 488 750 
Q 750 597 1062 519 
Q 1375 441 1716 441 
Q 2309 441 2620 675 
Q 2931 909 2931 1356 
Q 2931 1769 2642 2001 
Q 2353 2234 1838 2234 
L 1294 2234 
L 1294 2753 
L 1863 2753 
Q 2328 2753 2575 2939 
Q 2822 3125 2822 3475 
Q 2822 3834 2567 4026 
Q 2313 4219 1838 4219 
Q 1578 4219 1281 4162 
Q 984 4106 628 3988 
L 628 4550 
Q 988 4650 1302 4700 
Q 1616 4750 1894 4750 
Q 2613 4750 3031 4423 
Q 3450 4097 3450 3541 
Q 3450 3153 3228 2886 
Q 3006 2619 2597 2516 
z
" id="DejaVuSans-33" transform="scale(0.015625)"/>
       </defs>
       <use xlink:href="#DejaVuSans-33"/>
      </g>
     </g>
    </g>
    <g id="ytick_5">
     <g id="line2d_10">
      <g>
       <use style="stroke:#000000;stroke-width:0.8;" x="24.175" xlink:href="#me263ecd252" y="107.807898"/>
      </g>
     </g>
     <g id="text_11">
      <!-- 4 -->
      <g transform="translate(10.8125 111.607117)scale(0.1 -0.1)">
       <defs>
        <path d="M 2419 4116 
L 825 1625 
L 2419 1625 
L 2419 4116 
z
M 2253 4666 
L 3047 4666 
L 3047 1625 
L 3713 1625 
L 3713 1100 
L 3047 1100 
L 3047 0 
L 2419 0 
L 2419 1100 
L 313 1100 
L 313 1709 
L 2253 4666 
z
" id="DejaVuSans-34" transform="scale(0.015625)"/>
       </defs>
       <use xlink:href="#DejaVuSans-34"/>
      </g>
     </g>
    </g>
    <g id="ytick_6">
     <g id="line2d_11">
      <g>
       <use style="stroke:#000000;stroke-width:0.8;" x="24.175" xlink:href="#me263ecd252" y="55.27752"/>
      </g>
     </g>
     <g id="text_12">
      <!-- 5 -->
      <g transform="translate(10.8125 59.076739)scale(0.1 -0.1)">
       <use xlink:href="#DejaVuSans-35"/>
      </g>
     </g>
    </g>
    <g id="text_13">
     <!-- complejidad -->
     <g transform="translate(4.732812 207.509375)rotate(-90)scale(0.1 -0.1)">
      <defs>
       <path d="M 3122 3366 
L 3122 2828 
Q 2878 2963 2633 3030 
Q 2388 3097 2138 3097 
Q 1578 3097 1268 2742 
Q 959 2388 959 1747 
Q 959 1106 1268 751 
Q 1578 397 2138 397 
Q 2388 397 2633 464 
Q 2878 531 3122 666 
L 3122 134 
Q 2881 22 2623 -34 
Q 2366 -91 2075 -91 
Q 1284 -91 818 406 
Q 353 903 353 1747 
Q 353 2603 823 3093 
Q 1294 3584 2113 3584 
Q 2378 3584 2631 3529 
Q 2884 3475 3122 3366 
z
" id="DejaVuSans-63" transform="scale(0.015625)"/>
       <path d="M 603 4863 
L 1178 4863 
L 1178 0 
L 603 0 
L 603 4863 
z
" id="DejaVuSans-6c" transform="scale(0.015625)"/>
       <path d="M 603 3500 
L 1178 3500 
L 1178 -63 
Q 1178 -731 923 -1031 
Q 669 -1331 103 -1331 
L -116 -1331 
L -116 -844 
L 38 -844 
Q 366 -844 484 -692 
Q 603 -541 603 -63 
L 603 3500 
z
M 603 4863 
L 1178 4863 
L 1178 4134 
L 603 4134 
L 603 4863 
z
" id="DejaVuSans-6a" transform="scale(0.015625)"/>
       <path d="M 2906 2969 
L 2906 4863 
L 3481 4863 
L 3481 0 
L 2906 0 
L 2906 525 
Q 2725 213 2448 61 
Q 2172 -91 1784 -91 
Q 1150 -91 751 415 
Q 353 922 353 1747 
Q 353 2572 751 3078 
Q 1150 3584 1784 3584 
Q 2172 3584 2448 3432 
Q 2725 3281 2906 2969 
z
M 947 1747 
Q 947 1113 1208 752 
Q 1469 391 1925 391 
Q 2381 391 2643 752 
Q 2906 1113 2906 1747 
Q 2906 2381 2643 2742 
Q 2381 3103 1925 3103 
Q 1469 3103 1208 2742 
Q 947 2381 947 1747 
z
" id="DejaVuSans-64" transform="scale(0.015625)"/>
       <path d="M 2194 1759 
Q 1497 1759 1228 1600 
Q 959 1441 959 1056 
Q 959 750 1161 570 
Q 1363 391 1709 391 
Q 2188 391 2477 730 
Q 2766 1069 2766 1631 
L 2766 1759 
L 2194 1759 
z
M 3341 1997 
L 3341 0 
L 2766 0 
L 2766 531 
Q 2569 213 2275 61 
Q 1981 -91 1556 -91 
Q 1019 -91 701 211 
Q 384 513 384 1019 
Q 384 1609 779 1909 
Q 1175 2209 1959 2209 
L 2766 2209 
L 2766 2266 
Q 2766 2663 2505 2880 
Q 2244 3097 1772 3097 
Q 1472 3097 1187 3025 
Q 903 2953 641 2809 
L 641 3341 
Q 956 3463 1253 3523 
Q 1550 3584 1831 3584 
Q 2591 3584 2966 3190 
Q 3341 2797 3341 1997 
z
" id="DejaVuSans-61" transform="scale(0.015625)"/>
      </defs>
      <use xlink:href="#DejaVuSans-63"/>
      <use x="54.980469" xlink:href="#DejaVuSans-6f"/>
      <use x="116.162109" xlink:href="#DejaVuSans-6d"/>
      <use x="213.574219" xlink:href="#DejaVuSans-70"/>
      <use x="277.050781" xlink:href="#DejaVuSans-6c"/>
      <use x="304.833984" xlink:href="#DejaVuSans-65"/>
      <use x="366.357422" xlink:href="#DejaVuSans-6a"/>
      <use x="394.140625" xlink:href="#DejaVuSans-69"/>
      <use x="421.923828" xlink:href="#DejaVuSans-64"/>
      <use x="485.400391" xlink:href="#DejaVuSans-61"/>
      <use x="546.679688" xlink:href="#DejaVuSans-64"/>
     </g>
    </g>
    <g id="text_14">
     <!-- 1e8 -->
     <g transform="translate(24.175 18.8)scale(0.1 -0.1)">
      <defs>
       <path d="M 2034 2216 
Q 1584 2216 1326 1975 
Q 1069 1734 1069 1313 
Q 1069 891 1326 650 
Q 1584 409 2034 409 
Q 2484 409 2743 651 
Q 3003 894 3003 1313 
Q 3003 1734 2745 1975 
Q 2488 2216 2034 2216 
z
M 1403 2484 
Q 997 2584 770 2862 
Q 544 3141 544 3541 
Q 544 4100 942 4425 
Q 1341 4750 2034 4750 
Q 2731 4750 3128 4425 
Q 3525 4100 3525 3541 
Q 3525 3141 3298 2862 
Q 3072 2584 2669 2484 
Q 3125 2378 3379 2068 
Q 3634 1759 3634 1313 
Q 3634 634 3220 271 
Q 2806 -91 2034 -91 
Q 1263 -91 848 271 
Q 434 634 434 1313 
Q 434 1759 690 2068 
Q 947 2378 1403 2484 
z
M 1172 3481 
Q 1172 3119 1398 2916 
Q 1625 2713 2034 2713 
Q 2441 2713 2670 2916 
Q 2900 3119 2900 3481 
Q 2900 3844 2670 4047 
Q 2441 4250 2034 4250 
Q 1625 4250 1398 4047 
Q 1172 3844 1172 3481 
z
" id="DejaVuSans-38" transform="scale(0.015625)"/>
      </defs>
      <use xlink:href="#DejaVuSans-31"/>
      <use x="63.623047" xlink:href="#DejaVuSans-65"/>
      <use x="125.146484" xlink:href="#DejaVuSans-38"/>
     </g>
    </g>
   </g>
   <g id="line2d_12">
    <path clip-path="url(#p4148b2e21d)" d="M 24.175 318.023107 
L 27.407517 315.180808 
L 30.640034 312.338509 
L 33.872551 309.49621 
L 37.105069 306.653912 
L 40.337586 303.811613 
L 43.570103 300.969314 
L 46.80262 298.127015 
L 50.035137 295.284716 
L 53.267654 292.442417 
L 56.500172 289.600118 
L 59.732689 286.757819 
L 62.965206 283.91552 
L 66.197723 281.073221 
L 69.43024 278.230922 
L 72.662757 275.388623 
L 75.895274 272.546324 
L 79.127792 269.704025 
L 82.360309 266.861726 
L 85.592826 264.019427 
L 88.825343 261.177128 
L 92.05786 258.33483 
L 95.290377 255.492531 
L 98.522895 252.650232 
L 101.755412 249.807933 
L 104.987929 246.965634 
L 108.220446 244.123335 
L 111.452963 241.281036 
L 114.68548 238.438737 
L 117.917997 235.596438 
L 121.150515 232.754139 
L 124.383032 229.91184 
L 127.615549 227.069541 
L 130.848066 224.227242 
L 134.080583 221.384943 
L 137.3131 218.542644 
L 140.545618 215.700345 
L 143.778135 212.858046 
L 147.010652 210.015748 
L 150.243169 207.173449 
L 153.475686 204.33115 
L 156.708203 201.488851 
L 159.94072 198.646552 
L 163.173238 195.804253 
L 166.405755 192.961954 
L 169.638272 190.119655 
L 172.870789 187.277356 
L 176.103306 184.435057 
L 179.335823 181.592758 
L 182.568341 178.750459 
L 185.800858 175.90816 
L 189.033375 173.065861 
L 192.265892 170.223562 
L 195.498409 167.381263 
L 198.730926 164.538965 
L 201.963443 161.696666 
L 205.195961 158.854367 
L 208.428478 156.012068 
L 211.660995 153.169769 
L 214.893512 150.32747 
L 218.126029 147.485171 
L 221.358546 144.642872 
L 224.591064 141.800573 
L 227.823581 138.958274 
L 231.056098 136.115975 
L 234.288615 133.273676 
L 237.521132 130.431377 
L 240.753649 127.589078 
L 243.986166 124.746779 
L 247.218684 121.90448 
L 250.451201 119.062181 
L 253.683718 116.219883 
L 256.916235 113.377584 
L 260.148752 110.535285 
L 263.381269 107.692986 
L 266.613787 104.850687 
L 269.846304 102.008388 
L 273.078821 99.166089 
L 276.311338 96.32379 
L 279.543855 93.481491 
L 282.776372 90.639192 
L 286.008889 87.796893 
L 289.241407 84.954594 
L 292.473924 82.112295 
L 295.706441 79.269996 
L 298.938958 76.427697 
L 302.171475 73.585398 
L 305.403992 70.743099 
L 308.63651 67.900801 
L 311.869027 65.058502 
L 315.101544 62.216203 
L 318.334061 59.373904 
L 321.566578 56.531605 
L 324.799095 53.689306 
L 328.031612 50.847007 
L 331.26413 48.004708 
L 334.496647 45.162409 
L 337.729164 42.32011 
L 340.961681 39.477811 
L 344.194198 36.635512 
" style="fill:none;stroke:#1f77b4;stroke-linecap:square;stroke-width:2.25;"/>
   </g>
   <g id="patch_3">
    <path d="M 24.175 332.2 
L 24.175 21.8 
" style="fill:none;stroke:#000000;stroke-linecap:square;stroke-linejoin:miter;stroke-width:0.8;"/>
   </g>
   <g id="patch_4">
    <path d="M 24.175 332.2 
L 344.194198 332.2 
" style="fill:none;stroke:#000000;stroke-linecap:square;stroke-linejoin:miter;stroke-width:0.8;"/>
   </g>
  </g>
 </g>
 <defs>
  <clipPath id="p4148b2e21d">
   <rect height="310.4" width="320.019198" x="24.175" y="21.8"/>
  </clipPath>
 </defs>
</svg>
