<?xml version="1.0" encoding="utf-8" standalone="no"?>
<!DOCTYPE svg PUBLIC "-//W3C//DTD SVG 1.1//EN"
  "http://www.w3.org/Graphics/SVG/1.1/DTD/svg11.dtd">
<svg height="288pt" version="1.1" viewBox="0 0 432 288" width="432pt" xmlns="http://www.w3.org/2000/svg" xmlns:xlink="http://www.w3.org/1999/xlink">
 <metadata>
  <rdf:RDF xmlns:cc="http://creativecommons.org/ns#" xmlns:dc="http://purl.org/dc/elements/1.1/" xmlns:rdf="http://www.w3.org/1999/02/22-rdf-syntax-ns#">
   <cc:Work>
    <dc:type rdf:resource="http://purl.org/dc/dcmitype/StillImage"/>
    <dc:date>2021-04-29T23:07:09.463550</dc:date>
    <dc:format>image/svg+xml</dc:format>
    <dc:creator>
     <cc:Agent>
      <dc:title>Matplotlib v3.4.1, https://matplotlib.org/</dc:title>
     </cc:Agent>
    </dc:creator>
   </cc:Work>
  </rdf:RDF>
 </metadata>
 <defs>
  <style type="text/css">*{stroke-linecap:butt;stroke-linejoin:round;}</style>
 </defs>
 <g id="figure_1">
  <g id="patch_1">
   <path d="M 0 288 
L 432 288 
L 432 0 
L 0 0 
z
" style="fill:none;"/>
  </g>
  <g id="axes_1">
   <g id="patch_2">
    <path d="M 54 252 
L 388.8 252 
L 388.8 34.56 
L 54 34.56 
z
" style="fill:#ffffff;"/>
   </g>
   <g id="PathCollection_1">
    <defs>
     <path d="M 0 3 
C 0.795609 3 1.55874 2.683901 2.12132 2.12132 
C 2.683901 1.55874 3 0.795609 3 -0 
C 3 -0.795609 2.683901 -1.55874 2.12132 -2.12132 
C 1.55874 -2.683901 0.795609 -3 0 -3 
C -0.795609 -3 -1.55874 -2.683901 -2.12132 -2.12132 
C -2.683901 -1.55874 -3 -0.795609 -3 0 
C -3 0.795609 -2.683901 1.55874 -2.12132 2.12132 
C -1.55874 2.683901 -0.795609 3 0 3 
z
" id="C0_0_fc65a2aca7"/>
    </defs>
    <g clip-path="url(#p37373c168e)">
     <use style="fill:#1f77b4;stroke:#ffffff;stroke-width:0.48;" x="69.218182" xlink:href="#C0_0_fc65a2aca7" y="242.116364"/>
    </g>
    <g clip-path="url(#p37373c168e)">
     <use style="fill:#1f77b4;stroke:#ffffff;stroke-width:0.48;" x="80.490909" xlink:href="#C0_0_fc65a2aca7" y="242.116364"/>
    </g>
    <g clip-path="url(#p37373c168e)">
     <use style="fill:#1f77b4;stroke:#ffffff;stroke-width:0.48;" x="91.763636" xlink:href="#C0_0_fc65a2aca7" y="242.116323"/>
    </g>
    <g clip-path="url(#p37373c168e)">
     <use style="fill:#1f77b4;stroke:#ffffff;stroke-width:0.48;" x="103.036364" xlink:href="#C0_0_fc65a2aca7" y="242.116296"/>
    </g>
    <g clip-path="url(#p37373c168e)">
     <use style="fill:#1f77b4;stroke:#ffffff;stroke-width:0.48;" x="114.309091" xlink:href="#C0_0_fc65a2aca7" y="242.11631"/>
    </g>
    <g clip-path="url(#p37373c168e)">
     <use style="fill:#1f77b4;stroke:#ffffff;stroke-width:0.48;" x="125.581818" xlink:href="#C0_0_fc65a2aca7" y="242.116188"/>
    </g>
    <g clip-path="url(#p37373c168e)">
     <use style="fill:#1f77b4;stroke:#ffffff;stroke-width:0.48;" x="136.854545" xlink:href="#C0_0_fc65a2aca7" y="242.116161"/>
    </g>
    <g clip-path="url(#p37373c168e)">
     <use style="fill:#1f77b4;stroke:#ffffff;stroke-width:0.48;" x="148.127273" xlink:href="#C0_0_fc65a2aca7" y="242.11612"/>
    </g>
    <g clip-path="url(#p37373c168e)">
     <use style="fill:#1f77b4;stroke:#ffffff;stroke-width:0.48;" x="159.4" xlink:href="#C0_0_fc65a2aca7" y="242.115728"/>
    </g>
    <g clip-path="url(#p37373c168e)">
     <use style="fill:#1f77b4;stroke:#ffffff;stroke-width:0.48;" x="170.672727" xlink:href="#C0_0_fc65a2aca7" y="242.115674"/>
    </g>
    <g clip-path="url(#p37373c168e)">
     <use style="fill:#1f77b4;stroke:#ffffff;stroke-width:0.48;" x="181.945455" xlink:href="#C0_0_fc65a2aca7" y="242.115092"/>
    </g>
    <g clip-path="url(#p37373c168e)">
     <use style="fill:#1f77b4;stroke:#ffffff;stroke-width:0.48;" x="193.218182" xlink:href="#C0_0_fc65a2aca7" y="242.112766"/>
    </g>
    <g clip-path="url(#p37373c168e)">
     <use style="fill:#1f77b4;stroke:#ffffff;stroke-width:0.48;" x="204.490909" xlink:href="#C0_0_fc65a2aca7" y="242.111427"/>
    </g>
    <g clip-path="url(#p37373c168e)">
     <use style="fill:#1f77b4;stroke:#ffffff;stroke-width:0.48;" x="215.763636" xlink:href="#C0_0_fc65a2aca7" y="242.106639"/>
    </g>
    <g clip-path="url(#p37373c168e)">
     <use style="fill:#1f77b4;stroke:#ffffff;stroke-width:0.48;" x="227.036364" xlink:href="#C0_0_fc65a2aca7" y="242.09379"/>
    </g>
    <g clip-path="url(#p37373c168e)">
     <use style="fill:#1f77b4;stroke:#ffffff;stroke-width:0.48;" x="238.309091" xlink:href="#C0_0_fc65a2aca7" y="242.066078"/>
    </g>
    <g clip-path="url(#p37373c168e)">
     <use style="fill:#1f77b4;stroke:#ffffff;stroke-width:0.48;" x="249.581818" xlink:href="#C0_0_fc65a2aca7" y="241.998291"/>
    </g>
    <g clip-path="url(#p37373c168e)">
     <use style="fill:#1f77b4;stroke:#ffffff;stroke-width:0.48;" x="260.854545" xlink:href="#C0_0_fc65a2aca7" y="241.938537"/>
    </g>
    <g clip-path="url(#p37373c168e)">
     <use style="fill:#1f77b4;stroke:#ffffff;stroke-width:0.48;" x="272.127273" xlink:href="#C0_0_fc65a2aca7" y="241.750797"/>
    </g>
    <g clip-path="url(#p37373c168e)">
     <use style="fill:#1f77b4;stroke:#ffffff;stroke-width:0.48;" x="283.4" xlink:href="#C0_0_fc65a2aca7" y="241.398255"/>
    </g>
    <g clip-path="url(#p37373c168e)">
     <use style="fill:#1f77b4;stroke:#ffffff;stroke-width:0.48;" x="294.672727" xlink:href="#C0_0_fc65a2aca7" y="240.79139"/>
    </g>
    <g clip-path="url(#p37373c168e)">
     <use style="fill:#1f77b4;stroke:#ffffff;stroke-width:0.48;" x="305.945455" xlink:href="#C0_0_fc65a2aca7" y="239.331572"/>
    </g>
    <g clip-path="url(#p37373c168e)">
     <use style="fill:#1f77b4;stroke:#ffffff;stroke-width:0.48;" x="317.218182" xlink:href="#C0_0_fc65a2aca7" y="236.664285"/>
    </g>
    <g clip-path="url(#p37373c168e)">
     <use style="fill:#1f77b4;stroke:#ffffff;stroke-width:0.48;" x="328.490909" xlink:href="#C0_0_fc65a2aca7" y="230.928547"/>
    </g>
    <g clip-path="url(#p37373c168e)">
     <use style="fill:#1f77b4;stroke:#ffffff;stroke-width:0.48;" x="339.763636" xlink:href="#C0_0_fc65a2aca7" y="220.416642"/>
    </g>
    <g clip-path="url(#p37373c168e)">
     <use style="fill:#1f77b4;stroke:#ffffff;stroke-width:0.48;" x="351.036364" xlink:href="#C0_0_fc65a2aca7" y="193.783943"/>
    </g>
    <g clip-path="url(#p37373c168e)">
     <use style="fill:#1f77b4;stroke:#ffffff;stroke-width:0.48;" x="362.309091" xlink:href="#C0_0_fc65a2aca7" y="135.506867"/>
    </g>
    <g clip-path="url(#p37373c168e)">
     <use style="fill:#1f77b4;stroke:#ffffff;stroke-width:0.48;" x="373.581818" xlink:href="#C0_0_fc65a2aca7" y="44.443636"/>
    </g>
    <g clip-path="url(#p37373c168e)">
     <use style="fill:#ff7f0e;stroke:#ffffff;stroke-width:0.48;" x="69.218182" xlink:href="#C0_0_fc65a2aca7" y="242.116337"/>
    </g>
    <g clip-path="url(#p37373c168e)">
     <use style="fill:#ff7f0e;stroke:#ffffff;stroke-width:0.48;" x="80.490909" xlink:href="#C0_0_fc65a2aca7" y="242.114416"/>
    </g>
    <g clip-path="url(#p37373c168e)">
     <use style="fill:#ff7f0e;stroke:#ffffff;stroke-width:0.48;" x="91.763636" xlink:href="#C0_0_fc65a2aca7" y="242.115917"/>
    </g>
    <g clip-path="url(#p37373c168e)">
     <use style="fill:#ff7f0e;stroke:#ffffff;stroke-width:0.48;" x="103.036364" xlink:href="#C0_0_fc65a2aca7" y="242.11631"/>
    </g>
    <g clip-path="url(#p37373c168e)">
     <use style="fill:#ff7f0e;stroke:#ffffff;stroke-width:0.48;" x="114.309091" xlink:href="#C0_0_fc65a2aca7" y="242.116188"/>
    </g>
    <g clip-path="url(#p37373c168e)">
     <use style="fill:#ff7f0e;stroke:#ffffff;stroke-width:0.48;" x="125.581818" xlink:href="#C0_0_fc65a2aca7" y="242.11612"/>
    </g>
    <g clip-path="url(#p37373c168e)">
     <use style="fill:#ff7f0e;stroke:#ffffff;stroke-width:0.48;" x="136.854545" xlink:href="#C0_0_fc65a2aca7" y="242.116093"/>
    </g>
    <g clip-path="url(#p37373c168e)">
     <use style="fill:#ff7f0e;stroke:#ffffff;stroke-width:0.48;" x="148.127273" xlink:href="#C0_0_fc65a2aca7" y="242.11608"/>
    </g>
    <g clip-path="url(#p37373c168e)">
     <use style="fill:#ff7f0e;stroke:#ffffff;stroke-width:0.48;" x="159.4" xlink:href="#C0_0_fc65a2aca7" y="242.115971"/>
    </g>
    <g clip-path="url(#p37373c168e)">
     <use style="fill:#ff7f0e;stroke:#ffffff;stroke-width:0.48;" x="170.672727" xlink:href="#C0_0_fc65a2aca7" y="242.115457"/>
    </g>
    <g clip-path="url(#p37373c168e)">
     <use style="fill:#ff7f0e;stroke:#ffffff;stroke-width:0.48;" x="181.945455" xlink:href="#C0_0_fc65a2aca7" y="242.115065"/>
    </g>
    <g clip-path="url(#p37373c168e)">
     <use style="fill:#ff7f0e;stroke:#ffffff;stroke-width:0.48;" x="193.218182" xlink:href="#C0_0_fc65a2aca7" y="242.111481"/>
    </g>
    <g clip-path="url(#p37373c168e)">
     <use style="fill:#ff7f0e;stroke:#ffffff;stroke-width:0.48;" x="204.490909" xlink:href="#C0_0_fc65a2aca7" y="242.111332"/>
    </g>
    <g clip-path="url(#p37373c168e)">
     <use style="fill:#ff7f0e;stroke:#ffffff;stroke-width:0.48;" x="215.763636" xlink:href="#C0_0_fc65a2aca7" y="242.106301"/>
    </g>
    <g clip-path="url(#p37373c168e)">
     <use style="fill:#ff7f0e;stroke:#ffffff;stroke-width:0.48;" x="227.036364" xlink:href="#C0_0_fc65a2aca7" y="242.096347"/>
    </g>
    <g clip-path="url(#p37373c168e)">
     <use style="fill:#ff7f0e;stroke:#ffffff;stroke-width:0.48;" x="238.309091" xlink:href="#C0_0_fc65a2aca7" y="242.07426"/>
    </g>
    <g clip-path="url(#p37373c168e)">
     <use style="fill:#ff7f0e;stroke:#ffffff;stroke-width:0.48;" x="249.581818" xlink:href="#C0_0_fc65a2aca7" y="242.035971"/>
    </g>
    <g clip-path="url(#p37373c168e)">
     <use style="fill:#ff7f0e;stroke:#ffffff;stroke-width:0.48;" x="260.854545" xlink:href="#C0_0_fc65a2aca7" y="241.954618"/>
    </g>
    <g clip-path="url(#p37373c168e)">
     <use style="fill:#ff7f0e;stroke:#ffffff;stroke-width:0.48;" x="272.127273" xlink:href="#C0_0_fc65a2aca7" y="241.786503"/>
    </g>
    <g clip-path="url(#p37373c168e)">
     <use style="fill:#ff7f0e;stroke:#ffffff;stroke-width:0.48;" x="283.4" xlink:href="#C0_0_fc65a2aca7" y="241.422032"/>
    </g>
    <g clip-path="url(#p37373c168e)">
     <use style="fill:#ff7f0e;stroke:#ffffff;stroke-width:0.48;" x="294.672727" xlink:href="#C0_0_fc65a2aca7" y="240.641871"/>
    </g>
    <g clip-path="url(#p37373c168e)">
     <use style="fill:#ff7f0e;stroke:#ffffff;stroke-width:0.48;" x="305.945455" xlink:href="#C0_0_fc65a2aca7" y="238.767269"/>
    </g>
    <g clip-path="url(#p37373c168e)">
     <use style="fill:#ff7f0e;stroke:#ffffff;stroke-width:0.48;" x="317.218182" xlink:href="#C0_0_fc65a2aca7" y="236.181173"/>
    </g>
    <g clip-path="url(#p37373c168e)">
     <use style="fill:#ff7f0e;stroke:#ffffff;stroke-width:0.48;" x="328.490909" xlink:href="#C0_0_fc65a2aca7" y="230.482913"/>
    </g>
    <g clip-path="url(#p37373c168e)">
     <use style="fill:#ff7f0e;stroke:#ffffff;stroke-width:0.48;" x="339.763636" xlink:href="#C0_0_fc65a2aca7" y="219.077399"/>
    </g>
    <g clip-path="url(#p37373c168e)">
     <use style="fill:#ff7f0e;stroke:#ffffff;stroke-width:0.48;" x="351.036364" xlink:href="#C0_0_fc65a2aca7" y="196.134583"/>
    </g>
    <g clip-path="url(#p37373c168e)">
     <use style="fill:#ff7f0e;stroke:#ffffff;stroke-width:0.48;" x="362.309091" xlink:href="#C0_0_fc65a2aca7" y="147.019864"/>
    </g>
    <g clip-path="url(#p37373c168e)">
     <use style="fill:#ff7f0e;stroke:#ffffff;stroke-width:0.48;" x="373.581818" xlink:href="#C0_0_fc65a2aca7" y="53.357945"/>
    </g>
    <g clip-path="url(#p37373c168e)">
     <use style="fill:#2ca02c;stroke:#ffffff;stroke-width:0.48;" x="69.218182" xlink:href="#C0_0_fc65a2aca7" y="242.11635"/>
    </g>
    <g clip-path="url(#p37373c168e)">
     <use style="fill:#2ca02c;stroke:#ffffff;stroke-width:0.48;" x="80.490909" xlink:href="#C0_0_fc65a2aca7" y="242.116323"/>
    </g>
    <g clip-path="url(#p37373c168e)">
     <use style="fill:#2ca02c;stroke:#ffffff;stroke-width:0.48;" x="91.763636" xlink:href="#C0_0_fc65a2aca7" y="242.116215"/>
    </g>
    <g clip-path="url(#p37373c168e)">
     <use style="fill:#2ca02c;stroke:#ffffff;stroke-width:0.48;" x="103.036364" xlink:href="#C0_0_fc65a2aca7" y="242.116255"/>
    </g>
    <g clip-path="url(#p37373c168e)">
     <use style="fill:#2ca02c;stroke:#ffffff;stroke-width:0.48;" x="114.309091" xlink:href="#C0_0_fc65a2aca7" y="242.116296"/>
    </g>
    <g clip-path="url(#p37373c168e)">
     <use style="fill:#2ca02c;stroke:#ffffff;stroke-width:0.48;" x="125.581818" xlink:href="#C0_0_fc65a2aca7" y="242.116282"/>
    </g>
    <g clip-path="url(#p37373c168e)">
     <use style="fill:#2ca02c;stroke:#ffffff;stroke-width:0.48;" x="136.854545" xlink:href="#C0_0_fc65a2aca7" y="242.116242"/>
    </g>
    <g clip-path="url(#p37373c168e)">
     <use style="fill:#2ca02c;stroke:#ffffff;stroke-width:0.48;" x="148.127273" xlink:href="#C0_0_fc65a2aca7" y="242.116093"/>
    </g>
    <g clip-path="url(#p37373c168e)">
     <use style="fill:#2ca02c;stroke:#ffffff;stroke-width:0.48;" x="159.4" xlink:href="#C0_0_fc65a2aca7" y="242.115917"/>
    </g>
    <g clip-path="url(#p37373c168e)">
     <use style="fill:#2ca02c;stroke:#ffffff;stroke-width:0.48;" x="170.672727" xlink:href="#C0_0_fc65a2aca7" y="242.115349"/>
    </g>
    <g clip-path="url(#p37373c168e)">
     <use style="fill:#2ca02c;stroke:#ffffff;stroke-width:0.48;" x="181.945455" xlink:href="#C0_0_fc65a2aca7" y="242.115011"/>
    </g>
    <g clip-path="url(#p37373c168e)">
     <use style="fill:#2ca02c;stroke:#ffffff;stroke-width:0.48;" x="193.218182" xlink:href="#C0_0_fc65a2aca7" y="242.113807"/>
    </g>
    <g clip-path="url(#p37373c168e)">
     <use style="fill:#2ca02c;stroke:#ffffff;stroke-width:0.48;" x="204.490909" xlink:href="#C0_0_fc65a2aca7" y="242.111319"/>
    </g>
    <g clip-path="url(#p37373c168e)">
     <use style="fill:#2ca02c;stroke:#ffffff;stroke-width:0.48;" x="215.763636" xlink:href="#C0_0_fc65a2aca7" y="242.106342"/>
    </g>
    <g clip-path="url(#p37373c168e)">
     <use style="fill:#2ca02c;stroke:#ffffff;stroke-width:0.48;" x="227.036364" xlink:href="#C0_0_fc65a2aca7" y="242.096171"/>
    </g>
    <g clip-path="url(#p37373c168e)">
     <use style="fill:#2ca02c;stroke:#ffffff;stroke-width:0.48;" x="238.309091" xlink:href="#C0_0_fc65a2aca7" y="242.074653"/>
    </g>
    <g clip-path="url(#p37373c168e)">
     <use style="fill:#2ca02c;stroke:#ffffff;stroke-width:0.48;" x="249.581818" xlink:href="#C0_0_fc65a2aca7" y="242.036675"/>
    </g>
    <g clip-path="url(#p37373c168e)">
     <use style="fill:#2ca02c;stroke:#ffffff;stroke-width:0.48;" x="260.854545" xlink:href="#C0_0_fc65a2aca7" y="241.943785"/>
    </g>
    <g clip-path="url(#p37373c168e)">
     <use style="fill:#2ca02c;stroke:#ffffff;stroke-width:0.48;" x="272.127273" xlink:href="#C0_0_fc65a2aca7" y="241.789844"/>
    </g>
    <g clip-path="url(#p37373c168e)">
     <use style="fill:#2ca02c;stroke:#ffffff;stroke-width:0.48;" x="283.4" xlink:href="#C0_0_fc65a2aca7" y="241.447162"/>
    </g>
    <g clip-path="url(#p37373c168e)">
     <use style="fill:#2ca02c;stroke:#ffffff;stroke-width:0.48;" x="294.672727" xlink:href="#C0_0_fc65a2aca7" y="240.682406"/>
    </g>
    <g clip-path="url(#p37373c168e)">
     <use style="fill:#2ca02c;stroke:#ffffff;stroke-width:0.48;" x="305.945455" xlink:href="#C0_0_fc65a2aca7" y="239.051564"/>
    </g>
    <g clip-path="url(#p37373c168e)">
     <use style="fill:#2ca02c;stroke:#ffffff;stroke-width:0.48;" x="317.218182" xlink:href="#C0_0_fc65a2aca7" y="235.78527"/>
    </g>
    <g clip-path="url(#p37373c168e)">
     <use style="fill:#2ca02c;stroke:#ffffff;stroke-width:0.48;" x="328.490909" xlink:href="#C0_0_fc65a2aca7" y="225.615235"/>
    </g>
    <g clip-path="url(#p37373c168e)">
     <use style="fill:#2ca02c;stroke:#ffffff;stroke-width:0.48;" x="339.763636" xlink:href="#C0_0_fc65a2aca7" y="214.206786"/>
    </g>
    <g clip-path="url(#p37373c168e)">
     <use style="fill:#2ca02c;stroke:#ffffff;stroke-width:0.48;" x="351.036364" xlink:href="#C0_0_fc65a2aca7" y="188.663118"/>
    </g>
    <g clip-path="url(#p37373c168e)">
     <use style="fill:#2ca02c;stroke:#ffffff;stroke-width:0.48;" x="362.309091" xlink:href="#C0_0_fc65a2aca7" y="149.58474"/>
    </g>
    <g clip-path="url(#p37373c168e)">
     <use style="fill:#2ca02c;stroke:#ffffff;stroke-width:0.48;" x="373.581818" xlink:href="#C0_0_fc65a2aca7" y="54.86598"/>
    </g>
   </g>
   <g id="PathCollection_2"/>
   <g id="PathCollection_3"/>
   <g id="PathCollection_4"/>
   <g id="matplotlib.axis_1">
    <g id="xtick_1">
     <g id="line2d_1">
      <defs>
       <path d="M 0 0 
L 0 3.5 
" id="m0acd3d9305" style="stroke:#000000;stroke-width:0.8;"/>
      </defs>
      <g>
       <use style="stroke:#000000;stroke-width:0.8;" x="57.945455" xlink:href="#m0acd3d9305" y="252"/>
      </g>
     </g>
     <g id="text_1">
      <!-- 0 -->
      <g transform="translate(54.764205 266.598437)scale(0.1 -0.1)">
       <defs>
        <path d="M 2034 4250 
Q 1547 4250 1301 3770 
Q 1056 3291 1056 2328 
Q 1056 1369 1301 889 
Q 1547 409 2034 409 
Q 2525 409 2770 889 
Q 3016 1369 3016 2328 
Q 3016 3291 2770 3770 
Q 2525 4250 2034 4250 
z
M 2034 4750 
Q 2819 4750 3233 4129 
Q 3647 3509 3647 2328 
Q 3647 1150 3233 529 
Q 2819 -91 2034 -91 
Q 1250 -91 836 529 
Q 422 1150 422 2328 
Q 422 3509 836 4129 
Q 1250 4750 2034 4750 
z
" id="DejaVuSans-30" transform="scale(0.015625)"/>
       </defs>
       <use xlink:href="#DejaVuSans-30"/>
      </g>
     </g>
    </g>
    <g id="xtick_2">
     <g id="line2d_2">
      <g>
       <use style="stroke:#000000;stroke-width:0.8;" x="114.309091" xlink:href="#m0acd3d9305" y="252"/>
      </g>
     </g>
     <g id="text_2">
      <!-- 5 -->
      <g transform="translate(111.127841 266.598437)scale(0.1 -0.1)">
       <defs>
        <path d="M 691 4666 
L 3169 4666 
L 3169 4134 
L 1269 4134 
L 1269 2991 
Q 1406 3038 1543 3061 
Q 1681 3084 1819 3084 
Q 2600 3084 3056 2656 
Q 3513 2228 3513 1497 
Q 3513 744 3044 326 
Q 2575 -91 1722 -91 
Q 1428 -91 1123 -41 
Q 819 9 494 109 
L 494 744 
Q 775 591 1075 516 
Q 1375 441 1709 441 
Q 2250 441 2565 725 
Q 2881 1009 2881 1497 
Q 2881 1984 2565 2268 
Q 2250 2553 1709 2553 
Q 1456 2553 1204 2497 
Q 953 2441 691 2322 
L 691 4666 
z
" id="DejaVuSans-35" transform="scale(0.015625)"/>
       </defs>
       <use xlink:href="#DejaVuSans-35"/>
      </g>
     </g>
    </g>
    <g id="xtick_3">
     <g id="line2d_3">
      <g>
       <use style="stroke:#000000;stroke-width:0.8;" x="170.672727" xlink:href="#m0acd3d9305" y="252"/>
      </g>
     </g>
     <g id="text_3">
      <!-- 10 -->
      <g transform="translate(164.310227 266.598437)scale(0.1 -0.1)">
       <defs>
        <path d="M 794 531 
L 1825 531 
L 1825 4091 
L 703 3866 
L 703 4441 
L 1819 4666 
L 2450 4666 
L 2450 531 
L 3481 531 
L 3481 0 
L 794 0 
L 794 531 
z
" id="DejaVuSans-31" transform="scale(0.015625)"/>
       </defs>
       <use xlink:href="#DejaVuSans-31"/>
       <use x="63.623047" xlink:href="#DejaVuSans-30"/>
      </g>
     </g>
    </g>
    <g id="xtick_4">
     <g id="line2d_4">
      <g>
       <use style="stroke:#000000;stroke-width:0.8;" x="227.036364" xlink:href="#m0acd3d9305" y="252"/>
      </g>
     </g>
     <g id="text_4">
      <!-- 15 -->
      <g transform="translate(220.673864 266.598437)scale(0.1 -0.1)">
       <use xlink:href="#DejaVuSans-31"/>
       <use x="63.623047" xlink:href="#DejaVuSans-35"/>
      </g>
     </g>
    </g>
    <g id="xtick_5">
     <g id="line2d_5">
      <g>
       <use style="stroke:#000000;stroke-width:0.8;" x="283.4" xlink:href="#m0acd3d9305" y="252"/>
      </g>
     </g>
     <g id="text_5">
      <!-- 20 -->
      <g transform="translate(277.0375 266.598437)scale(0.1 -0.1)">
       <defs>
        <path d="M 1228 531 
L 3431 531 
L 3431 0 
L 469 0 
L 469 531 
Q 828 903 1448 1529 
Q 2069 2156 2228 2338 
Q 2531 2678 2651 2914 
Q 2772 3150 2772 3378 
Q 2772 3750 2511 3984 
Q 2250 4219 1831 4219 
Q 1534 4219 1204 4116 
Q 875 4013 500 3803 
L 500 4441 
Q 881 4594 1212 4672 
Q 1544 4750 1819 4750 
Q 2544 4750 2975 4387 
Q 3406 4025 3406 3419 
Q 3406 3131 3298 2873 
Q 3191 2616 2906 2266 
Q 2828 2175 2409 1742 
Q 1991 1309 1228 531 
z
" id="DejaVuSans-32" transform="scale(0.015625)"/>
       </defs>
       <use xlink:href="#DejaVuSans-32"/>
       <use x="63.623047" xlink:href="#DejaVuSans-30"/>
      </g>
     </g>
    </g>
    <g id="xtick_6">
     <g id="line2d_6">
      <g>
       <use style="stroke:#000000;stroke-width:0.8;" x="339.763636" xlink:href="#m0acd3d9305" y="252"/>
      </g>
     </g>
     <g id="text_6">
      <!-- 25 -->
      <g transform="translate(333.401136 266.598437)scale(0.1 -0.1)">
       <use xlink:href="#DejaVuSans-32"/>
       <use x="63.623047" xlink:href="#DejaVuSans-35"/>
      </g>
     </g>
    </g>
    <g id="text_7">
     <!-- n -->
     <g transform="translate(218.23125 280.276563)scale(0.1 -0.1)">
      <defs>
       <path d="M 3513 2113 
L 3513 0 
L 2938 0 
L 2938 2094 
Q 2938 2591 2744 2837 
Q 2550 3084 2163 3084 
Q 1697 3084 1428 2787 
Q 1159 2491 1159 1978 
L 1159 0 
L 581 0 
L 581 3500 
L 1159 3500 
L 1159 2956 
Q 1366 3272 1645 3428 
Q 1925 3584 2291 3584 
Q 2894 3584 3203 3211 
Q 3513 2838 3513 2113 
z
" id="DejaVuSans-6e" transform="scale(0.015625)"/>
      </defs>
      <use xlink:href="#DejaVuSans-6e"/>
     </g>
    </g>
   </g>
   <g id="matplotlib.axis_2">
    <g id="ytick_1">
     <g id="line2d_7">
      <defs>
       <path d="M 0 0 
L -3.5 0 
" id="m44d11b86ab" style="stroke:#000000;stroke-width:0.8;"/>
      </defs>
      <g>
       <use style="stroke:#000000;stroke-width:0.8;" x="54" xlink:href="#m44d11b86ab" y="242.116512"/>
      </g>
     </g>
     <g id="text_8">
      <!-- 0 -->
      <g transform="translate(40.6375 245.915731)scale(0.1 -0.1)">
       <use xlink:href="#DejaVuSans-30"/>
      </g>
     </g>
    </g>
    <g id="ytick_2">
     <g id="line2d_8">
      <g>
       <use style="stroke:#000000;stroke-width:0.8;" x="54" xlink:href="#m44d11b86ab" y="215.066568"/>
      </g>
     </g>
     <g id="text_9">
      <!-- 200 -->
      <g transform="translate(27.9125 218.865787)scale(0.1 -0.1)">
       <use xlink:href="#DejaVuSans-32"/>
       <use x="63.623047" xlink:href="#DejaVuSans-30"/>
       <use x="127.246094" xlink:href="#DejaVuSans-30"/>
      </g>
     </g>
    </g>
    <g id="ytick_3">
     <g id="line2d_9">
      <g>
       <use style="stroke:#000000;stroke-width:0.8;" x="54" xlink:href="#m44d11b86ab" y="188.016624"/>
      </g>
     </g>
     <g id="text_10">
      <!-- 400 -->
      <g transform="translate(27.9125 191.815843)scale(0.1 -0.1)">
       <defs>
        <path d="M 2419 4116 
L 825 1625 
L 2419 1625 
L 2419 4116 
z
M 2253 4666 
L 3047 4666 
L 3047 1625 
L 3713 1625 
L 3713 1100 
L 3047 1100 
L 3047 0 
L 2419 0 
L 2419 1100 
L 313 1100 
L 313 1709 
L 2253 4666 
z
" id="DejaVuSans-34" transform="scale(0.015625)"/>
       </defs>
       <use xlink:href="#DejaVuSans-34"/>
       <use x="63.623047" xlink:href="#DejaVuSans-30"/>
       <use x="127.246094" xlink:href="#DejaVuSans-30"/>
      </g>
     </g>
    </g>
    <g id="ytick_4">
     <g id="line2d_10">
      <g>
       <use style="stroke:#000000;stroke-width:0.8;" x="54" xlink:href="#m44d11b86ab" y="160.96668"/>
      </g>
     </g>
     <g id="text_11">
      <!-- 600 -->
      <g transform="translate(27.9125 164.765899)scale(0.1 -0.1)">
       <defs>
        <path d="M 2113 2584 
Q 1688 2584 1439 2293 
Q 1191 2003 1191 1497 
Q 1191 994 1439 701 
Q 1688 409 2113 409 
Q 2538 409 2786 701 
Q 3034 994 3034 1497 
Q 3034 2003 2786 2293 
Q 2538 2584 2113 2584 
z
M 3366 4563 
L 3366 3988 
Q 3128 4100 2886 4159 
Q 2644 4219 2406 4219 
Q 1781 4219 1451 3797 
Q 1122 3375 1075 2522 
Q 1259 2794 1537 2939 
Q 1816 3084 2150 3084 
Q 2853 3084 3261 2657 
Q 3669 2231 3669 1497 
Q 3669 778 3244 343 
Q 2819 -91 2113 -91 
Q 1303 -91 875 529 
Q 447 1150 447 2328 
Q 447 3434 972 4092 
Q 1497 4750 2381 4750 
Q 2619 4750 2861 4703 
Q 3103 4656 3366 4563 
z
" id="DejaVuSans-36" transform="scale(0.015625)"/>
       </defs>
       <use xlink:href="#DejaVuSans-36"/>
       <use x="63.623047" xlink:href="#DejaVuSans-30"/>
       <use x="127.246094" xlink:href="#DejaVuSans-30"/>
      </g>
     </g>
    </g>
    <g id="ytick_5">
     <g id="line2d_11">
      <g>
       <use style="stroke:#000000;stroke-width:0.8;" x="54" xlink:href="#m44d11b86ab" y="133.916736"/>
      </g>
     </g>
     <g id="text_12">
      <!-- 800 -->
      <g transform="translate(27.9125 137.715955)scale(0.1 -0.1)">
       <defs>
        <path d="M 2034 2216 
Q 1584 2216 1326 1975 
Q 1069 1734 1069 1313 
Q 1069 891 1326 650 
Q 1584 409 2034 409 
Q 2484 409 2743 651 
Q 3003 894 3003 1313 
Q 3003 1734 2745 1975 
Q 2488 2216 2034 2216 
z
M 1403 2484 
Q 997 2584 770 2862 
Q 544 3141 544 3541 
Q 544 4100 942 4425 
Q 1341 4750 2034 4750 
Q 2731 4750 3128 4425 
Q 3525 4100 3525 3541 
Q 3525 3141 3298 2862 
Q 3072 2584 2669 2484 
Q 3125 2378 3379 2068 
Q 3634 1759 3634 1313 
Q 3634 634 3220 271 
Q 2806 -91 2034 -91 
Q 1263 -91 848 271 
Q 434 634 434 1313 
Q 434 1759 690 2068 
Q 947 2378 1403 2484 
z
M 1172 3481 
Q 1172 3119 1398 2916 
Q 1625 2713 2034 2713 
Q 2441 2713 2670 2916 
Q 2900 3119 2900 3481 
Q 2900 3844 2670 4047 
Q 2441 4250 2034 4250 
Q 1625 4250 1398 4047 
Q 1172 3844 1172 3481 
z
" id="DejaVuSans-38" transform="scale(0.015625)"/>
       </defs>
       <use xlink:href="#DejaVuSans-38"/>
       <use x="63.623047" xlink:href="#DejaVuSans-30"/>
       <use x="127.246094" xlink:href="#DejaVuSans-30"/>
      </g>
     </g>
    </g>
    <g id="ytick_6">
     <g id="line2d_12">
      <g>
       <use style="stroke:#000000;stroke-width:0.8;" x="54" xlink:href="#m44d11b86ab" y="106.866792"/>
      </g>
     </g>
     <g id="text_13">
      <!-- 1000 -->
      <g transform="translate(21.55 110.666011)scale(0.1 -0.1)">
       <use xlink:href="#DejaVuSans-31"/>
       <use x="63.623047" xlink:href="#DejaVuSans-30"/>
       <use x="127.246094" xlink:href="#DejaVuSans-30"/>
       <use x="190.869141" xlink:href="#DejaVuSans-30"/>
      </g>
     </g>
    </g>
    <g id="ytick_7">
     <g id="line2d_13">
      <g>
       <use style="stroke:#000000;stroke-width:0.8;" x="54" xlink:href="#m44d11b86ab" y="79.816848"/>
      </g>
     </g>
     <g id="text_14">
      <!-- 1200 -->
      <g transform="translate(21.55 83.616067)scale(0.1 -0.1)">
       <use xlink:href="#DejaVuSans-31"/>
       <use x="63.623047" xlink:href="#DejaVuSans-32"/>
       <use x="127.246094" xlink:href="#DejaVuSans-30"/>
       <use x="190.869141" xlink:href="#DejaVuSans-30"/>
      </g>
     </g>
    </g>
    <g id="ytick_8">
     <g id="line2d_14">
      <g>
       <use style="stroke:#000000;stroke-width:0.8;" x="54" xlink:href="#m44d11b86ab" y="52.766904"/>
      </g>
     </g>
     <g id="text_15">
      <!-- 1400 -->
      <g transform="translate(21.55 56.566123)scale(0.1 -0.1)">
       <use xlink:href="#DejaVuSans-31"/>
       <use x="63.623047" xlink:href="#DejaVuSans-34"/>
       <use x="127.246094" xlink:href="#DejaVuSans-30"/>
       <use x="190.869141" xlink:href="#DejaVuSans-30"/>
      </g>
     </g>
    </g>
    <g id="text_16">
     <!-- tiempo (ms) -->
     <g transform="translate(15.470312 173.775312)rotate(-90)scale(0.1 -0.1)">
      <defs>
       <path d="M 1172 4494 
L 1172 3500 
L 2356 3500 
L 2356 3053 
L 1172 3053 
L 1172 1153 
Q 1172 725 1289 603 
Q 1406 481 1766 481 
L 2356 481 
L 2356 0 
L 1766 0 
Q 1100 0 847 248 
Q 594 497 594 1153 
L 594 3053 
L 172 3053 
L 172 3500 
L 594 3500 
L 594 4494 
L 1172 4494 
z
" id="DejaVuSans-74" transform="scale(0.015625)"/>
       <path d="M 603 3500 
L 1178 3500 
L 1178 0 
L 603 0 
L 603 3500 
z
M 603 4863 
L 1178 4863 
L 1178 4134 
L 603 4134 
L 603 4863 
z
" id="DejaVuSans-69" transform="scale(0.015625)"/>
       <path d="M 3597 1894 
L 3597 1613 
L 953 1613 
Q 991 1019 1311 708 
Q 1631 397 2203 397 
Q 2534 397 2845 478 
Q 3156 559 3463 722 
L 3463 178 
Q 3153 47 2828 -22 
Q 2503 -91 2169 -91 
Q 1331 -91 842 396 
Q 353 884 353 1716 
Q 353 2575 817 3079 
Q 1281 3584 2069 3584 
Q 2775 3584 3186 3129 
Q 3597 2675 3597 1894 
z
M 3022 2063 
Q 3016 2534 2758 2815 
Q 2500 3097 2075 3097 
Q 1594 3097 1305 2825 
Q 1016 2553 972 2059 
L 3022 2063 
z
" id="DejaVuSans-65" transform="scale(0.015625)"/>
       <path d="M 3328 2828 
Q 3544 3216 3844 3400 
Q 4144 3584 4550 3584 
Q 5097 3584 5394 3201 
Q 5691 2819 5691 2113 
L 5691 0 
L 5113 0 
L 5113 2094 
Q 5113 2597 4934 2840 
Q 4756 3084 4391 3084 
Q 3944 3084 3684 2787 
Q 3425 2491 3425 1978 
L 3425 0 
L 2847 0 
L 2847 2094 
Q 2847 2600 2669 2842 
Q 2491 3084 2119 3084 
Q 1678 3084 1418 2786 
Q 1159 2488 1159 1978 
L 1159 0 
L 581 0 
L 581 3500 
L 1159 3500 
L 1159 2956 
Q 1356 3278 1631 3431 
Q 1906 3584 2284 3584 
Q 2666 3584 2933 3390 
Q 3200 3197 3328 2828 
z
" id="DejaVuSans-6d" transform="scale(0.015625)"/>
       <path d="M 1159 525 
L 1159 -1331 
L 581 -1331 
L 581 3500 
L 1159 3500 
L 1159 2969 
Q 1341 3281 1617 3432 
Q 1894 3584 2278 3584 
Q 2916 3584 3314 3078 
Q 3713 2572 3713 1747 
Q 3713 922 3314 415 
Q 2916 -91 2278 -91 
Q 1894 -91 1617 61 
Q 1341 213 1159 525 
z
M 3116 1747 
Q 3116 2381 2855 2742 
Q 2594 3103 2138 3103 
Q 1681 3103 1420 2742 
Q 1159 2381 1159 1747 
Q 1159 1113 1420 752 
Q 1681 391 2138 391 
Q 2594 391 2855 752 
Q 3116 1113 3116 1747 
z
" id="DejaVuSans-70" transform="scale(0.015625)"/>
       <path d="M 1959 3097 
Q 1497 3097 1228 2736 
Q 959 2375 959 1747 
Q 959 1119 1226 758 
Q 1494 397 1959 397 
Q 2419 397 2687 759 
Q 2956 1122 2956 1747 
Q 2956 2369 2687 2733 
Q 2419 3097 1959 3097 
z
M 1959 3584 
Q 2709 3584 3137 3096 
Q 3566 2609 3566 1747 
Q 3566 888 3137 398 
Q 2709 -91 1959 -91 
Q 1206 -91 779 398 
Q 353 888 353 1747 
Q 353 2609 779 3096 
Q 1206 3584 1959 3584 
z
" id="DejaVuSans-6f" transform="scale(0.015625)"/>
       <path id="DejaVuSans-20" transform="scale(0.015625)"/>
       <path d="M 1984 4856 
Q 1566 4138 1362 3434 
Q 1159 2731 1159 2009 
Q 1159 1288 1364 580 
Q 1569 -128 1984 -844 
L 1484 -844 
Q 1016 -109 783 600 
Q 550 1309 550 2009 
Q 550 2706 781 3412 
Q 1013 4119 1484 4856 
L 1984 4856 
z
" id="DejaVuSans-28" transform="scale(0.015625)"/>
       <path d="M 2834 3397 
L 2834 2853 
Q 2591 2978 2328 3040 
Q 2066 3103 1784 3103 
Q 1356 3103 1142 2972 
Q 928 2841 928 2578 
Q 928 2378 1081 2264 
Q 1234 2150 1697 2047 
L 1894 2003 
Q 2506 1872 2764 1633 
Q 3022 1394 3022 966 
Q 3022 478 2636 193 
Q 2250 -91 1575 -91 
Q 1294 -91 989 -36 
Q 684 19 347 128 
L 347 722 
Q 666 556 975 473 
Q 1284 391 1588 391 
Q 1994 391 2212 530 
Q 2431 669 2431 922 
Q 2431 1156 2273 1281 
Q 2116 1406 1581 1522 
L 1381 1569 
Q 847 1681 609 1914 
Q 372 2147 372 2553 
Q 372 3047 722 3315 
Q 1072 3584 1716 3584 
Q 2034 3584 2315 3537 
Q 2597 3491 2834 3397 
z
" id="DejaVuSans-73" transform="scale(0.015625)"/>
       <path d="M 513 4856 
L 1013 4856 
Q 1481 4119 1714 3412 
Q 1947 2706 1947 2009 
Q 1947 1309 1714 600 
Q 1481 -109 1013 -844 
L 513 -844 
Q 928 -128 1133 580 
Q 1338 1288 1338 2009 
Q 1338 2731 1133 3434 
Q 928 4138 513 4856 
z
" id="DejaVuSans-29" transform="scale(0.015625)"/>
      </defs>
      <use xlink:href="#DejaVuSans-74"/>
      <use x="39.208984" xlink:href="#DejaVuSans-69"/>
      <use x="66.992188" xlink:href="#DejaVuSans-65"/>
      <use x="128.515625" xlink:href="#DejaVuSans-6d"/>
      <use x="225.927734" xlink:href="#DejaVuSans-70"/>
      <use x="289.404297" xlink:href="#DejaVuSans-6f"/>
      <use x="350.585938" xlink:href="#DejaVuSans-20"/>
      <use x="382.373047" xlink:href="#DejaVuSans-28"/>
      <use x="421.386719" xlink:href="#DejaVuSans-6d"/>
      <use x="518.798828" xlink:href="#DejaVuSans-73"/>
      <use x="570.898438" xlink:href="#DejaVuSans-29"/>
     </g>
    </g>
   </g>
   <g id="patch_3">
    <path d="M 54 252 
L 54 34.56 
" style="fill:none;stroke:#000000;stroke-linecap:square;stroke-linejoin:miter;stroke-width:0.8;"/>
   </g>
   <g id="patch_4">
    <path d="M 388.8 252 
L 388.8 34.56 
" style="fill:none;stroke:#000000;stroke-linecap:square;stroke-linejoin:miter;stroke-width:0.8;"/>
   </g>
   <g id="patch_5">
    <path d="M 54 252 
L 388.8 252 
" style="fill:none;stroke:#000000;stroke-linecap:square;stroke-linejoin:miter;stroke-width:0.8;"/>
   </g>
   <g id="patch_6">
    <path d="M 54 34.56 
L 388.8 34.56 
" style="fill:none;stroke:#000000;stroke-linecap:square;stroke-linejoin:miter;stroke-width:0.8;"/>
   </g>
   <g id="legend_1">
    <g id="patch_7">
     <path d="M 61 101.2725 
L 116.810937 101.2725 
Q 118.810937 101.2725 118.810937 99.2725 
L 118.810937 41.56 
Q 118.810937 39.56 116.810937 39.56 
L 61 39.56 
Q 59 39.56 59 41.56 
L 59 99.2725 
Q 59 101.2725 61 101.2725 
z
" style="fill:#ffffff;opacity:0.8;stroke:#cccccc;stroke-linejoin:miter;"/>
    </g>
    <g id="text_17">
     <!-- metodo -->
     <g transform="translate(69.705469 51.158437)scale(0.1 -0.1)">
      <defs>
       <path d="M 2906 2969 
L 2906 4863 
L 3481 4863 
L 3481 0 
L 2906 0 
L 2906 525 
Q 2725 213 2448 61 
Q 2172 -91 1784 -91 
Q 1150 -91 751 415 
Q 353 922 353 1747 
Q 353 2572 751 3078 
Q 1150 3584 1784 3584 
Q 2172 3584 2448 3432 
Q 2725 3281 2906 2969 
z
M 947 1747 
Q 947 1113 1208 752 
Q 1469 391 1925 391 
Q 2381 391 2643 752 
Q 2906 1113 2906 1747 
Q 2906 2381 2643 2742 
Q 2381 3103 1925 3103 
Q 1469 3103 1208 2742 
Q 947 2381 947 1747 
z
" id="DejaVuSans-64" transform="scale(0.015625)"/>
      </defs>
      <use xlink:href="#DejaVuSans-6d"/>
      <use x="97.412109" xlink:href="#DejaVuSans-65"/>
      <use x="158.935547" xlink:href="#DejaVuSans-74"/>
      <use x="198.144531" xlink:href="#DejaVuSans-6f"/>
      <use x="259.326172" xlink:href="#DejaVuSans-64"/>
      <use x="322.802734" xlink:href="#DejaVuSans-6f"/>
     </g>
    </g>
    <g id="PathCollection_5">
     <defs>
      <path d="M 0 3 
C 0.795609 3 1.55874 2.683901 2.12132 2.12132 
C 2.683901 1.55874 3 0.795609 3 0 
C 3 -0.795609 2.683901 -1.55874 2.12132 -2.12132 
C 1.55874 -2.683901 0.795609 -3 0 -3 
C -0.795609 -3 -1.55874 -2.683901 -2.12132 -2.12132 
C -2.683901 -1.55874 -3 -0.795609 -3 0 
C -3 0.795609 -2.683901 1.55874 -2.12132 2.12132 
C -1.55874 2.683901 -0.795609 3 0 3 
z
" id="mffd4c191aa" style="stroke:#1f77b4;"/>
     </defs>
     <g>
      <use style="fill:#1f77b4;stroke:#1f77b4;" x="73" xlink:href="#mffd4c191aa" y="63.211562"/>
     </g>
    </g>
    <g id="text_18">
     <!-- BT -->
     <g transform="translate(91 65.836562)scale(0.1 -0.1)">
      <defs>
       <path d="M 1259 2228 
L 1259 519 
L 2272 519 
Q 2781 519 3026 730 
Q 3272 941 3272 1375 
Q 3272 1813 3026 2020 
Q 2781 2228 2272 2228 
L 1259 2228 
z
M 1259 4147 
L 1259 2741 
L 2194 2741 
Q 2656 2741 2882 2914 
Q 3109 3088 3109 3444 
Q 3109 3797 2882 3972 
Q 2656 4147 2194 4147 
L 1259 4147 
z
M 628 4666 
L 2241 4666 
Q 2963 4666 3353 4366 
Q 3744 4066 3744 3513 
Q 3744 3084 3544 2831 
Q 3344 2578 2956 2516 
Q 3422 2416 3680 2098 
Q 3938 1781 3938 1306 
Q 3938 681 3513 340 
Q 3088 0 2303 0 
L 628 0 
L 628 4666 
z
" id="DejaVuSans-42" transform="scale(0.015625)"/>
       <path d="M -19 4666 
L 3928 4666 
L 3928 4134 
L 2272 4134 
L 2272 0 
L 1638 0 
L 1638 4134 
L -19 4134 
L -19 4666 
z
" id="DejaVuSans-54" transform="scale(0.015625)"/>
      </defs>
      <use xlink:href="#DejaVuSans-42"/>
      <use x="68.603516" xlink:href="#DejaVuSans-54"/>
     </g>
    </g>
    <g id="PathCollection_6">
     <defs>
      <path d="M 0 3 
C 0.795609 3 1.55874 2.683901 2.12132 2.12132 
C 2.683901 1.55874 3 0.795609 3 0 
C 3 -0.795609 2.683901 -1.55874 2.12132 -2.12132 
C 1.55874 -2.683901 0.795609 -3 0 -3 
C -0.795609 -3 -1.55874 -2.683901 -2.12132 -2.12132 
C -2.683901 -1.55874 -3 -0.795609 -3 0 
C -3 0.795609 -2.683901 1.55874 -2.12132 2.12132 
C -1.55874 2.683901 -0.795609 3 0 3 
z
" id="m578c3cf4d4" style="stroke:#ff7f0e;"/>
     </defs>
     <g>
      <use style="fill:#ff7f0e;stroke:#ff7f0e;" x="73" xlink:href="#m578c3cf4d4" y="77.889687"/>
     </g>
    </g>
    <g id="text_19">
     <!-- BT-O -->
     <g transform="translate(91 80.514687)scale(0.1 -0.1)">
      <defs>
       <path d="M 313 2009 
L 1997 2009 
L 1997 1497 
L 313 1497 
L 313 2009 
z
" id="DejaVuSans-2d" transform="scale(0.015625)"/>
       <path d="M 2522 4238 
Q 1834 4238 1429 3725 
Q 1025 3213 1025 2328 
Q 1025 1447 1429 934 
Q 1834 422 2522 422 
Q 3209 422 3611 934 
Q 4013 1447 4013 2328 
Q 4013 3213 3611 3725 
Q 3209 4238 2522 4238 
z
M 2522 4750 
Q 3503 4750 4090 4092 
Q 4678 3434 4678 2328 
Q 4678 1225 4090 567 
Q 3503 -91 2522 -91 
Q 1538 -91 948 565 
Q 359 1222 359 2328 
Q 359 3434 948 4092 
Q 1538 4750 2522 4750 
z
" id="DejaVuSans-4f" transform="scale(0.015625)"/>
      </defs>
      <use xlink:href="#DejaVuSans-42"/>
      <use x="68.603516" xlink:href="#DejaVuSans-54"/>
      <use x="120.5625" xlink:href="#DejaVuSans-2d"/>
      <use x="159.396484" xlink:href="#DejaVuSans-4f"/>
     </g>
    </g>
    <g id="PathCollection_7">
     <defs>
      <path d="M 0 3 
C 0.795609 3 1.55874 2.683901 2.12132 2.12132 
C 2.683901 1.55874 3 0.795609 3 0 
C 3 -0.795609 2.683901 -1.55874 2.12132 -2.12132 
C 1.55874 -2.683901 0.795609 -3 0 -3 
C -0.795609 -3 -1.55874 -2.683901 -2.12132 -2.12132 
C -2.683901 -1.55874 -3 -0.795609 -3 0 
C -3 0.795609 -2.683901 1.55874 -2.12132 2.12132 
C -1.55874 2.683901 -0.795609 3 0 3 
z
" id="m782718859c" style="stroke:#2ca02c;"/>
     </defs>
     <g>
      <use style="fill:#2ca02c;stroke:#2ca02c;" x="73" xlink:href="#m782718859c" y="92.567813"/>
     </g>
    </g>
    <g id="text_20">
     <!-- BT-F -->
     <g transform="translate(91 95.192813)scale(0.1 -0.1)">
      <defs>
       <path d="M 628 4666 
L 3309 4666 
L 3309 4134 
L 1259 4134 
L 1259 2759 
L 3109 2759 
L 3109 2228 
L 1259 2228 
L 1259 0 
L 628 0 
L 628 4666 
z
" id="DejaVuSans-46" transform="scale(0.015625)"/>
      </defs>
      <use xlink:href="#DejaVuSans-42"/>
      <use x="68.603516" xlink:href="#DejaVuSans-54"/>
      <use x="120.5625" xlink:href="#DejaVuSans-2d"/>
      <use x="156.646484" xlink:href="#DejaVuSans-46"/>
     </g>
    </g>
   </g>
  </g>
 </g>
 <defs>
  <clipPath id="p37373c168e">
   <rect height="217.44" width="334.8" x="54" y="34.56"/>
  </clipPath>
 </defs>
</svg>
