<?xml version="1.0" encoding="utf-8" standalone="no"?>
<!DOCTYPE svg PUBLIC "-//W3C//DTD SVG 1.1//EN"
  "http://www.w3.org/Graphics/SVG/1.1/DTD/svg11.dtd">
<svg height="288pt" version="1.1" viewBox="0 0 432 288" width="432pt" xmlns="http://www.w3.org/2000/svg" xmlns:xlink="http://www.w3.org/1999/xlink">
 <metadata>
  <rdf:RDF xmlns:cc="http://creativecommons.org/ns#" xmlns:dc="http://purl.org/dc/elements/1.1/" xmlns:rdf="http://www.w3.org/1999/02/22-rdf-syntax-ns#">
   <cc:Work>
    <dc:type rdf:resource="http://purl.org/dc/dcmitype/StillImage"/>
    <dc:date>2021-04-29T23:07:10.554648</dc:date>
    <dc:format>image/svg+xml</dc:format>
    <dc:creator>
     <cc:Agent>
      <dc:title>Matplotlib v3.4.1, https://matplotlib.org/</dc:title>
     </cc:Agent>
    </dc:creator>
   </cc:Work>
  </rdf:RDF>
 </metadata>
 <defs>
  <style type="text/css">*{stroke-linecap:butt;stroke-linejoin:round;}</style>
 </defs>
 <g id="figure_1">
  <g id="patch_1">
   <path d="M 0 288 
L 432 288 
L 432 0 
L 0 0 
z
" style="fill:none;"/>
  </g>
  <g id="axes_1">
   <g id="patch_2">
    <path d="M 54 252 
L 388.8 252 
L 388.8 34.56 
L 54 34.56 
z
" style="fill:#ffffff;"/>
   </g>
   <g id="PathCollection_1">
    <defs>
     <path d="M 0 3 
C 0.795609 3 1.55874 2.683901 2.12132 2.12132 
C 2.683901 1.55874 3 0.795609 3 0 
C 3 -0.795609 2.683901 -1.55874 2.12132 -2.12132 
C 1.55874 -2.683901 0.795609 -3 0 -3 
C -0.795609 -3 -1.55874 -2.683901 -2.12132 -2.12132 
C -2.683901 -1.55874 -3 -0.795609 -3 0 
C -3 0.795609 -2.683901 1.55874 -2.12132 2.12132 
C -1.55874 2.683901 -0.795609 3 0 3 
z
" id="m6c7479176f" style="stroke:#ffffff;stroke-width:0.48;"/>
    </defs>
    <g clip-path="url(#p969a131be1)">
     <use style="fill:#1f77b4;stroke:#ffffff;stroke-width:0.48;" x="69.218182" xlink:href="#m6c7479176f" y="242.116312"/>
     <use style="fill:#1f77b4;stroke:#ffffff;stroke-width:0.48;" x="69.238474" xlink:href="#m6c7479176f" y="242.116364"/>
     <use style="fill:#1f77b4;stroke:#ffffff;stroke-width:0.48;" x="69.258766" xlink:href="#m6c7479176f" y="242.116312"/>
     <use style="fill:#1f77b4;stroke:#ffffff;stroke-width:0.48;" x="69.279059" xlink:href="#m6c7479176f" y="242.116364"/>
     <use style="fill:#1f77b4;stroke:#ffffff;stroke-width:0.48;" x="69.299351" xlink:href="#m6c7479176f" y="242.116364"/>
     <use style="fill:#1f77b4;stroke:#ffffff;stroke-width:0.48;" x="69.319643" xlink:href="#m6c7479176f" y="242.11595"/>
     <use style="fill:#1f77b4;stroke:#ffffff;stroke-width:0.48;" x="69.339935" xlink:href="#m6c7479176f" y="242.116312"/>
     <use style="fill:#1f77b4;stroke:#ffffff;stroke-width:0.48;" x="69.360228" xlink:href="#m6c7479176f" y="242.115382"/>
     <use style="fill:#1f77b4;stroke:#ffffff;stroke-width:0.48;" x="69.38052" xlink:href="#m6c7479176f" y="242.116157"/>
     <use style="fill:#1f77b4;stroke:#ffffff;stroke-width:0.48;" x="69.400812" xlink:href="#m6c7479176f" y="242.115486"/>
     <use style="fill:#1f77b4;stroke:#ffffff;stroke-width:0.48;" x="69.421104" xlink:href="#m6c7479176f" y="242.11626"/>
     <use style="fill:#1f77b4;stroke:#ffffff;stroke-width:0.48;" x="69.441397" xlink:href="#m6c7479176f" y="242.116209"/>
     <use style="fill:#1f77b4;stroke:#ffffff;stroke-width:0.48;" x="69.461689" xlink:href="#m6c7479176f" y="242.116209"/>
     <use style="fill:#1f77b4;stroke:#ffffff;stroke-width:0.48;" x="69.481981" xlink:href="#m6c7479176f" y="242.116157"/>
     <use style="fill:#1f77b4;stroke:#ffffff;stroke-width:0.48;" x="69.502273" xlink:href="#m6c7479176f" y="242.11595"/>
     <use style="fill:#1f77b4;stroke:#ffffff;stroke-width:0.48;" x="69.522566" xlink:href="#m6c7479176f" y="242.115279"/>
     <use style="fill:#1f77b4;stroke:#ffffff;stroke-width:0.48;" x="69.542858" xlink:href="#m6c7479176f" y="242.116157"/>
     <use style="fill:#1f77b4;stroke:#ffffff;stroke-width:0.48;" x="69.56315" xlink:href="#m6c7479176f" y="242.11595"/>
     <use style="fill:#1f77b4;stroke:#ffffff;stroke-width:0.48;" x="69.583443" xlink:href="#m6c7479176f" y="242.115382"/>
     <use style="fill:#1f77b4;stroke:#ffffff;stroke-width:0.48;" x="69.603735" xlink:href="#m6c7479176f" y="242.115434"/>
     <use style="fill:#1f77b4;stroke:#ffffff;stroke-width:0.48;" x="69.624027" xlink:href="#m6c7479176f" y="242.116002"/>
     <use style="fill:#1f77b4;stroke:#ffffff;stroke-width:0.48;" x="69.644319" xlink:href="#m6c7479176f" y="242.116002"/>
     <use style="fill:#1f77b4;stroke:#ffffff;stroke-width:0.48;" x="69.664612" xlink:href="#m6c7479176f" y="242.116054"/>
     <use style="fill:#1f77b4;stroke:#ffffff;stroke-width:0.48;" x="69.684904" xlink:href="#m6c7479176f" y="242.115331"/>
     <use style="fill:#1f77b4;stroke:#ffffff;stroke-width:0.48;" x="69.705196" xlink:href="#m6c7479176f" y="242.115176"/>
     <use style="fill:#1f77b4;stroke:#ffffff;stroke-width:0.48;" x="69.725488" xlink:href="#m6c7479176f" y="242.113317"/>
     <use style="fill:#1f77b4;stroke:#ffffff;stroke-width:0.48;" x="69.745781" xlink:href="#m6c7479176f" y="242.115279"/>
     <use style="fill:#1f77b4;stroke:#ffffff;stroke-width:0.48;" x="69.766073" xlink:href="#m6c7479176f" y="242.112542"/>
     <use style="fill:#1f77b4;stroke:#ffffff;stroke-width:0.48;" x="69.786365" xlink:href="#m6c7479176f" y="242.115021"/>
     <use style="fill:#1f77b4;stroke:#ffffff;stroke-width:0.48;" x="69.806657" xlink:href="#m6c7479176f" y="242.115124"/>
     <use style="fill:#1f77b4;stroke:#ffffff;stroke-width:0.48;" x="89.490151" xlink:href="#m6c7479176f" y="241.218188"/>
     <use style="fill:#1f77b4;stroke:#ffffff;stroke-width:0.48;" x="109.782413" xlink:href="#m6c7479176f" y="238.631491"/>
     <use style="fill:#1f77b4;stroke:#ffffff;stroke-width:0.48;" x="130.074675" xlink:href="#m6c7479176f" y="233.972101"/>
     <use style="fill:#1f77b4;stroke:#ffffff;stroke-width:0.48;" x="150.366937" xlink:href="#m6c7479176f" y="227.854363"/>
     <use style="fill:#1f77b4;stroke:#ffffff;stroke-width:0.48;" x="170.659199" xlink:href="#m6c7479176f" y="219.332435"/>
     <use style="fill:#1f77b4;stroke:#ffffff;stroke-width:0.48;" x="190.951461" xlink:href="#m6c7479176f" y="210.208917"/>
     <use style="fill:#1f77b4;stroke:#ffffff;stroke-width:0.48;" x="211.243723" xlink:href="#m6c7479176f" y="198.853748"/>
     <use style="fill:#1f77b4;stroke:#ffffff;stroke-width:0.48;" x="231.535985" xlink:href="#m6c7479176f" y="186.898901"/>
     <use style="fill:#1f77b4;stroke:#ffffff;stroke-width:0.48;" x="251.828247" xlink:href="#m6c7479176f" y="171.945658"/>
     <use style="fill:#1f77b4;stroke:#ffffff;stroke-width:0.48;" x="272.120509" xlink:href="#m6c7479176f" y="155.958522"/>
     <use style="fill:#1f77b4;stroke:#ffffff;stroke-width:0.48;" x="292.412771" xlink:href="#m6c7479176f" y="136.898624"/>
     <use style="fill:#1f77b4;stroke:#ffffff;stroke-width:0.48;" x="312.705032" xlink:href="#m6c7479176f" y="116.642158"/>
     <use style="fill:#1f77b4;stroke:#ffffff;stroke-width:0.48;" x="332.997294" xlink:href="#m6c7479176f" y="96.345926"/>
     <use style="fill:#1f77b4;stroke:#ffffff;stroke-width:0.48;" x="353.289556" xlink:href="#m6c7479176f" y="71.934777"/>
     <use style="fill:#1f77b4;stroke:#ffffff;stroke-width:0.48;" x="373.581818" xlink:href="#m6c7479176f" y="46.270767"/>
    </g>
   </g>
   <g id="PathCollection_2">
    <defs>
     <path d="M 0 3 
C 0.795609 3 1.55874 2.683901 2.12132 2.12132 
C 2.683901 1.55874 3 0.795609 3 0 
C 3 -0.795609 2.683901 -1.55874 2.12132 -2.12132 
C 1.55874 -2.683901 0.795609 -3 0 -3 
C -0.795609 -3 -1.55874 -2.683901 -2.12132 -2.12132 
C -2.683901 -1.55874 -3 -0.795609 -3 0 
C -3 0.795609 -2.683901 1.55874 -2.12132 2.12132 
C -1.55874 2.683901 -0.795609 3 0 3 
z
" id="m0265add904" style="stroke:#ffffff;stroke-width:0.48;"/>
    </defs>
    <g clip-path="url(#p969a131be1)">
     <use style="fill:#ff7f0e;stroke:#ffffff;stroke-width:0.48;" x="69.218182" xlink:href="#m0265add904" y="242.115434"/>
     <use style="fill:#ff7f0e;stroke:#ffffff;stroke-width:0.48;" x="69.238474" xlink:href="#m0265add904" y="242.116364"/>
     <use style="fill:#ff7f0e;stroke:#ffffff;stroke-width:0.48;" x="69.258766" xlink:href="#m0265add904" y="242.116157"/>
     <use style="fill:#ff7f0e;stroke:#ffffff;stroke-width:0.48;" x="69.279059" xlink:href="#m0265add904" y="242.116209"/>
     <use style="fill:#ff7f0e;stroke:#ffffff;stroke-width:0.48;" x="69.299351" xlink:href="#m0265add904" y="242.116054"/>
     <use style="fill:#ff7f0e;stroke:#ffffff;stroke-width:0.48;" x="69.319643" xlink:href="#m0265add904" y="242.116157"/>
     <use style="fill:#ff7f0e;stroke:#ffffff;stroke-width:0.48;" x="69.339935" xlink:href="#m0265add904" y="242.116312"/>
     <use style="fill:#ff7f0e;stroke:#ffffff;stroke-width:0.48;" x="69.360228" xlink:href="#m0265add904" y="242.11626"/>
     <use style="fill:#ff7f0e;stroke:#ffffff;stroke-width:0.48;" x="69.38052" xlink:href="#m0265add904" y="242.116002"/>
     <use style="fill:#ff7f0e;stroke:#ffffff;stroke-width:0.48;" x="69.400812" xlink:href="#m0265add904" y="242.115796"/>
     <use style="fill:#ff7f0e;stroke:#ffffff;stroke-width:0.48;" x="69.421104" xlink:href="#m0265add904" y="242.116054"/>
     <use style="fill:#ff7f0e;stroke:#ffffff;stroke-width:0.48;" x="69.441397" xlink:href="#m0265add904" y="242.116002"/>
     <use style="fill:#ff7f0e;stroke:#ffffff;stroke-width:0.48;" x="69.461689" xlink:href="#m0265add904" y="242.115847"/>
     <use style="fill:#ff7f0e;stroke:#ffffff;stroke-width:0.48;" x="69.481981" xlink:href="#m0265add904" y="242.116157"/>
     <use style="fill:#ff7f0e;stroke:#ffffff;stroke-width:0.48;" x="69.502273" xlink:href="#m0265add904" y="242.116157"/>
     <use style="fill:#ff7f0e;stroke:#ffffff;stroke-width:0.48;" x="69.522566" xlink:href="#m0265add904" y="242.116157"/>
     <use style="fill:#ff7f0e;stroke:#ffffff;stroke-width:0.48;" x="69.542858" xlink:href="#m0265add904" y="242.116157"/>
     <use style="fill:#ff7f0e;stroke:#ffffff;stroke-width:0.48;" x="69.56315" xlink:href="#m0265add904" y="242.115796"/>
     <use style="fill:#ff7f0e;stroke:#ffffff;stroke-width:0.48;" x="69.583443" xlink:href="#m0265add904" y="242.115847"/>
     <use style="fill:#ff7f0e;stroke:#ffffff;stroke-width:0.48;" x="69.603735" xlink:href="#m0265add904" y="242.116054"/>
     <use style="fill:#ff7f0e;stroke:#ffffff;stroke-width:0.48;" x="69.624027" xlink:href="#m0265add904" y="242.116054"/>
     <use style="fill:#ff7f0e;stroke:#ffffff;stroke-width:0.48;" x="69.644319" xlink:href="#m0265add904" y="242.116002"/>
     <use style="fill:#ff7f0e;stroke:#ffffff;stroke-width:0.48;" x="69.664612" xlink:href="#m0265add904" y="242.116002"/>
     <use style="fill:#ff7f0e;stroke:#ffffff;stroke-width:0.48;" x="69.684904" xlink:href="#m0265add904" y="242.115382"/>
     <use style="fill:#ff7f0e;stroke:#ffffff;stroke-width:0.48;" x="69.705196" xlink:href="#m0265add904" y="242.115279"/>
     <use style="fill:#ff7f0e;stroke:#ffffff;stroke-width:0.48;" x="69.725488" xlink:href="#m0265add904" y="242.114298"/>
     <use style="fill:#ff7f0e;stroke:#ffffff;stroke-width:0.48;" x="69.745781" xlink:href="#m0265add904" y="242.115176"/>
     <use style="fill:#ff7f0e;stroke:#ffffff;stroke-width:0.48;" x="69.766073" xlink:href="#m0265add904" y="242.114763"/>
     <use style="fill:#ff7f0e;stroke:#ffffff;stroke-width:0.48;" x="69.786365" xlink:href="#m0265add904" y="242.114504"/>
     <use style="fill:#ff7f0e;stroke:#ffffff;stroke-width:0.48;" x="69.806657" xlink:href="#m0265add904" y="242.115279"/>
     <use style="fill:#ff7f0e;stroke:#ffffff;stroke-width:0.48;" x="89.490151" xlink:href="#m0265add904" y="241.163033"/>
     <use style="fill:#ff7f0e;stroke:#ffffff;stroke-width:0.48;" x="109.782413" xlink:href="#m0265add904" y="237.744264"/>
     <use style="fill:#ff7f0e;stroke:#ffffff;stroke-width:0.48;" x="130.074675" xlink:href="#m0265add904" y="234.069242"/>
     <use style="fill:#ff7f0e;stroke:#ffffff;stroke-width:0.48;" x="150.366937" xlink:href="#m0265add904" y="227.351205"/>
     <use style="fill:#ff7f0e;stroke:#ffffff;stroke-width:0.48;" x="170.659199" xlink:href="#m0265add904" y="215.632211"/>
     <use style="fill:#ff7f0e;stroke:#ffffff;stroke-width:0.48;" x="190.951461" xlink:href="#m0265add904" y="207.18878"/>
     <use style="fill:#ff7f0e;stroke:#ffffff;stroke-width:0.48;" x="211.243723" xlink:href="#m0265add904" y="196.527229"/>
     <use style="fill:#ff7f0e;stroke:#ffffff;stroke-width:0.48;" x="231.535985" xlink:href="#m0265add904" y="178.89268"/>
     <use style="fill:#ff7f0e;stroke:#ffffff;stroke-width:0.48;" x="251.828247" xlink:href="#m0265add904" y="157.827483"/>
     <use style="fill:#ff7f0e;stroke:#ffffff;stroke-width:0.48;" x="272.120509" xlink:href="#m0265add904" y="154.164442"/>
     <use style="fill:#ff7f0e;stroke:#ffffff;stroke-width:0.48;" x="292.412771" xlink:href="#m0265add904" y="136.90069"/>
     <use style="fill:#ff7f0e;stroke:#ffffff;stroke-width:0.48;" x="312.705032" xlink:href="#m0265add904" y="113.336487"/>
     <use style="fill:#ff7f0e;stroke:#ffffff;stroke-width:0.48;" x="332.997294" xlink:href="#m0265add904" y="92.143732"/>
     <use style="fill:#ff7f0e;stroke:#ffffff;stroke-width:0.48;" x="353.289556" xlink:href="#m0265add904" y="66.113057"/>
     <use style="fill:#ff7f0e;stroke:#ffffff;stroke-width:0.48;" x="373.581818" xlink:href="#m0265add904" y="44.443636"/>
    </g>
   </g>
   <g id="matplotlib.axis_1">
    <g id="xtick_1">
     <g id="line2d_1">
      <defs>
       <path d="M 0 0 
L 0 3.5 
" id="mc61de53568" style="stroke:#000000;stroke-width:0.8;"/>
      </defs>
      <g>
       <use style="stroke:#000000;stroke-width:0.8;" x="69.19789" xlink:href="#mc61de53568" y="252"/>
      </g>
     </g>
     <g id="text_1">
      <!-- 0 -->
      <g transform="translate(66.01664 266.598437)scale(0.1 -0.1)">
       <defs>
        <path d="M 2034 4250 
Q 1547 4250 1301 3770 
Q 1056 3291 1056 2328 
Q 1056 1369 1301 889 
Q 1547 409 2034 409 
Q 2525 409 2770 889 
Q 3016 1369 3016 2328 
Q 3016 3291 2770 3770 
Q 2525 4250 2034 4250 
z
M 2034 4750 
Q 2819 4750 3233 4129 
Q 3647 3509 3647 2328 
Q 3647 1150 3233 529 
Q 2819 -91 2034 -91 
Q 1250 -91 836 529 
Q 422 1150 422 2328 
Q 422 3509 836 4129 
Q 1250 4750 2034 4750 
z
" id="DejaVuSans-30" transform="scale(0.015625)"/>
       </defs>
       <use xlink:href="#DejaVuSans-30"/>
      </g>
     </g>
    </g>
    <g id="xtick_2">
     <g id="line2d_2">
      <g>
       <use style="stroke:#000000;stroke-width:0.8;" x="109.782413" xlink:href="#mc61de53568" y="252"/>
      </g>
     </g>
     <g id="text_2">
      <!-- 2000 -->
      <g transform="translate(97.057413 266.598437)scale(0.1 -0.1)">
       <defs>
        <path d="M 1228 531 
L 3431 531 
L 3431 0 
L 469 0 
L 469 531 
Q 828 903 1448 1529 
Q 2069 2156 2228 2338 
Q 2531 2678 2651 2914 
Q 2772 3150 2772 3378 
Q 2772 3750 2511 3984 
Q 2250 4219 1831 4219 
Q 1534 4219 1204 4116 
Q 875 4013 500 3803 
L 500 4441 
Q 881 4594 1212 4672 
Q 1544 4750 1819 4750 
Q 2544 4750 2975 4387 
Q 3406 4025 3406 3419 
Q 3406 3131 3298 2873 
Q 3191 2616 2906 2266 
Q 2828 2175 2409 1742 
Q 1991 1309 1228 531 
z
" id="DejaVuSans-32" transform="scale(0.015625)"/>
       </defs>
       <use xlink:href="#DejaVuSans-32"/>
       <use x="63.623047" xlink:href="#DejaVuSans-30"/>
       <use x="127.246094" xlink:href="#DejaVuSans-30"/>
       <use x="190.869141" xlink:href="#DejaVuSans-30"/>
      </g>
     </g>
    </g>
    <g id="xtick_3">
     <g id="line2d_3">
      <g>
       <use style="stroke:#000000;stroke-width:0.8;" x="150.366937" xlink:href="#mc61de53568" y="252"/>
      </g>
     </g>
     <g id="text_3">
      <!-- 4000 -->
      <g transform="translate(137.641937 266.598437)scale(0.1 -0.1)">
       <defs>
        <path d="M 2419 4116 
L 825 1625 
L 2419 1625 
L 2419 4116 
z
M 2253 4666 
L 3047 4666 
L 3047 1625 
L 3713 1625 
L 3713 1100 
L 3047 1100 
L 3047 0 
L 2419 0 
L 2419 1100 
L 313 1100 
L 313 1709 
L 2253 4666 
z
" id="DejaVuSans-34" transform="scale(0.015625)"/>
       </defs>
       <use xlink:href="#DejaVuSans-34"/>
       <use x="63.623047" xlink:href="#DejaVuSans-30"/>
       <use x="127.246094" xlink:href="#DejaVuSans-30"/>
       <use x="190.869141" xlink:href="#DejaVuSans-30"/>
      </g>
     </g>
    </g>
    <g id="xtick_4">
     <g id="line2d_4">
      <g>
       <use style="stroke:#000000;stroke-width:0.8;" x="190.951461" xlink:href="#mc61de53568" y="252"/>
      </g>
     </g>
     <g id="text_4">
      <!-- 6000 -->
      <g transform="translate(178.226461 266.598437)scale(0.1 -0.1)">
       <defs>
        <path d="M 2113 2584 
Q 1688 2584 1439 2293 
Q 1191 2003 1191 1497 
Q 1191 994 1439 701 
Q 1688 409 2113 409 
Q 2538 409 2786 701 
Q 3034 994 3034 1497 
Q 3034 2003 2786 2293 
Q 2538 2584 2113 2584 
z
M 3366 4563 
L 3366 3988 
Q 3128 4100 2886 4159 
Q 2644 4219 2406 4219 
Q 1781 4219 1451 3797 
Q 1122 3375 1075 2522 
Q 1259 2794 1537 2939 
Q 1816 3084 2150 3084 
Q 2853 3084 3261 2657 
Q 3669 2231 3669 1497 
Q 3669 778 3244 343 
Q 2819 -91 2113 -91 
Q 1303 -91 875 529 
Q 447 1150 447 2328 
Q 447 3434 972 4092 
Q 1497 4750 2381 4750 
Q 2619 4750 2861 4703 
Q 3103 4656 3366 4563 
z
" id="DejaVuSans-36" transform="scale(0.015625)"/>
       </defs>
       <use xlink:href="#DejaVuSans-36"/>
       <use x="63.623047" xlink:href="#DejaVuSans-30"/>
       <use x="127.246094" xlink:href="#DejaVuSans-30"/>
       <use x="190.869141" xlink:href="#DejaVuSans-30"/>
      </g>
     </g>
    </g>
    <g id="xtick_5">
     <g id="line2d_5">
      <g>
       <use style="stroke:#000000;stroke-width:0.8;" x="231.535985" xlink:href="#mc61de53568" y="252"/>
      </g>
     </g>
     <g id="text_5">
      <!-- 8000 -->
      <g transform="translate(218.810985 266.598437)scale(0.1 -0.1)">
       <defs>
        <path d="M 2034 2216 
Q 1584 2216 1326 1975 
Q 1069 1734 1069 1313 
Q 1069 891 1326 650 
Q 1584 409 2034 409 
Q 2484 409 2743 651 
Q 3003 894 3003 1313 
Q 3003 1734 2745 1975 
Q 2488 2216 2034 2216 
z
M 1403 2484 
Q 997 2584 770 2862 
Q 544 3141 544 3541 
Q 544 4100 942 4425 
Q 1341 4750 2034 4750 
Q 2731 4750 3128 4425 
Q 3525 4100 3525 3541 
Q 3525 3141 3298 2862 
Q 3072 2584 2669 2484 
Q 3125 2378 3379 2068 
Q 3634 1759 3634 1313 
Q 3634 634 3220 271 
Q 2806 -91 2034 -91 
Q 1263 -91 848 271 
Q 434 634 434 1313 
Q 434 1759 690 2068 
Q 947 2378 1403 2484 
z
M 1172 3481 
Q 1172 3119 1398 2916 
Q 1625 2713 2034 2713 
Q 2441 2713 2670 2916 
Q 2900 3119 2900 3481 
Q 2900 3844 2670 4047 
Q 2441 4250 2034 4250 
Q 1625 4250 1398 4047 
Q 1172 3844 1172 3481 
z
" id="DejaVuSans-38" transform="scale(0.015625)"/>
       </defs>
       <use xlink:href="#DejaVuSans-38"/>
       <use x="63.623047" xlink:href="#DejaVuSans-30"/>
       <use x="127.246094" xlink:href="#DejaVuSans-30"/>
       <use x="190.869141" xlink:href="#DejaVuSans-30"/>
      </g>
     </g>
    </g>
    <g id="xtick_6">
     <g id="line2d_6">
      <g>
       <use style="stroke:#000000;stroke-width:0.8;" x="272.120509" xlink:href="#mc61de53568" y="252"/>
      </g>
     </g>
     <g id="text_6">
      <!-- 10000 -->
      <g transform="translate(256.214259 266.598437)scale(0.1 -0.1)">
       <defs>
        <path d="M 794 531 
L 1825 531 
L 1825 4091 
L 703 3866 
L 703 4441 
L 1819 4666 
L 2450 4666 
L 2450 531 
L 3481 531 
L 3481 0 
L 794 0 
L 794 531 
z
" id="DejaVuSans-31" transform="scale(0.015625)"/>
       </defs>
       <use xlink:href="#DejaVuSans-31"/>
       <use x="63.623047" xlink:href="#DejaVuSans-30"/>
       <use x="127.246094" xlink:href="#DejaVuSans-30"/>
       <use x="190.869141" xlink:href="#DejaVuSans-30"/>
       <use x="254.492188" xlink:href="#DejaVuSans-30"/>
      </g>
     </g>
    </g>
    <g id="xtick_7">
     <g id="line2d_7">
      <g>
       <use style="stroke:#000000;stroke-width:0.8;" x="312.705032" xlink:href="#mc61de53568" y="252"/>
      </g>
     </g>
     <g id="text_7">
      <!-- 12000 -->
      <g transform="translate(296.798782 266.598437)scale(0.1 -0.1)">
       <use xlink:href="#DejaVuSans-31"/>
       <use x="63.623047" xlink:href="#DejaVuSans-32"/>
       <use x="127.246094" xlink:href="#DejaVuSans-30"/>
       <use x="190.869141" xlink:href="#DejaVuSans-30"/>
       <use x="254.492188" xlink:href="#DejaVuSans-30"/>
      </g>
     </g>
    </g>
    <g id="xtick_8">
     <g id="line2d_8">
      <g>
       <use style="stroke:#000000;stroke-width:0.8;" x="353.289556" xlink:href="#mc61de53568" y="252"/>
      </g>
     </g>
     <g id="text_8">
      <!-- 14000 -->
      <g transform="translate(337.383306 266.598437)scale(0.1 -0.1)">
       <use xlink:href="#DejaVuSans-31"/>
       <use x="63.623047" xlink:href="#DejaVuSans-34"/>
       <use x="127.246094" xlink:href="#DejaVuSans-30"/>
       <use x="190.869141" xlink:href="#DejaVuSans-30"/>
       <use x="254.492188" xlink:href="#DejaVuSans-30"/>
      </g>
     </g>
    </g>
    <g id="text_9">
     <!-- n -->
     <g transform="translate(218.23125 280.276563)scale(0.1 -0.1)">
      <defs>
       <path d="M 3513 2113 
L 3513 0 
L 2938 0 
L 2938 2094 
Q 2938 2591 2744 2837 
Q 2550 3084 2163 3084 
Q 1697 3084 1428 2787 
Q 1159 2491 1159 1978 
L 1159 0 
L 581 0 
L 581 3500 
L 1159 3500 
L 1159 2956 
Q 1366 3272 1645 3428 
Q 1925 3584 2291 3584 
Q 2894 3584 3203 3211 
Q 3513 2838 3513 2113 
z
" id="DejaVuSans-6e" transform="scale(0.015625)"/>
      </defs>
      <use xlink:href="#DejaVuSans-6e"/>
     </g>
    </g>
   </g>
   <g id="matplotlib.axis_2">
    <g id="ytick_1">
     <g id="line2d_9">
      <defs>
       <path d="M 0 0 
L -3.5 0 
" id="m47a3a2f99e" style="stroke:#000000;stroke-width:0.8;"/>
      </defs>
      <g>
       <use style="stroke:#000000;stroke-width:0.8;" x="54" xlink:href="#m47a3a2f99e" y="242.11719"/>
      </g>
     </g>
     <g id="text_10">
      <!-- 0 -->
      <g transform="translate(40.6375 245.916409)scale(0.1 -0.1)">
       <use xlink:href="#DejaVuSans-30"/>
      </g>
     </g>
    </g>
    <g id="ytick_2">
     <g id="line2d_10">
      <g>
       <use style="stroke:#000000;stroke-width:0.8;" x="54" xlink:href="#m47a3a2f99e" y="216.295669"/>
      </g>
     </g>
     <g id="text_11">
      <!-- 50 -->
      <g transform="translate(34.275 220.094888)scale(0.1 -0.1)">
       <defs>
        <path d="M 691 4666 
L 3169 4666 
L 3169 4134 
L 1269 4134 
L 1269 2991 
Q 1406 3038 1543 3061 
Q 1681 3084 1819 3084 
Q 2600 3084 3056 2656 
Q 3513 2228 3513 1497 
Q 3513 744 3044 326 
Q 2575 -91 1722 -91 
Q 1428 -91 1123 -41 
Q 819 9 494 109 
L 494 744 
Q 775 591 1075 516 
Q 1375 441 1709 441 
Q 2250 441 2565 725 
Q 2881 1009 2881 1497 
Q 2881 1984 2565 2268 
Q 2250 2553 1709 2553 
Q 1456 2553 1204 2497 
Q 953 2441 691 2322 
L 691 4666 
z
" id="DejaVuSans-35" transform="scale(0.015625)"/>
       </defs>
       <use xlink:href="#DejaVuSans-35"/>
       <use x="63.623047" xlink:href="#DejaVuSans-30"/>
      </g>
     </g>
    </g>
    <g id="ytick_3">
     <g id="line2d_11">
      <g>
       <use style="stroke:#000000;stroke-width:0.8;" x="54" xlink:href="#m47a3a2f99e" y="190.474148"/>
      </g>
     </g>
     <g id="text_12">
      <!-- 100 -->
      <g transform="translate(27.9125 194.273367)scale(0.1 -0.1)">
       <use xlink:href="#DejaVuSans-31"/>
       <use x="63.623047" xlink:href="#DejaVuSans-30"/>
       <use x="127.246094" xlink:href="#DejaVuSans-30"/>
      </g>
     </g>
    </g>
    <g id="ytick_4">
     <g id="line2d_12">
      <g>
       <use style="stroke:#000000;stroke-width:0.8;" x="54" xlink:href="#m47a3a2f99e" y="164.652628"/>
      </g>
     </g>
     <g id="text_13">
      <!-- 150 -->
      <g transform="translate(27.9125 168.451846)scale(0.1 -0.1)">
       <use xlink:href="#DejaVuSans-31"/>
       <use x="63.623047" xlink:href="#DejaVuSans-35"/>
       <use x="127.246094" xlink:href="#DejaVuSans-30"/>
      </g>
     </g>
    </g>
    <g id="ytick_5">
     <g id="line2d_13">
      <g>
       <use style="stroke:#000000;stroke-width:0.8;" x="54" xlink:href="#m47a3a2f99e" y="138.831107"/>
      </g>
     </g>
     <g id="text_14">
      <!-- 200 -->
      <g transform="translate(27.9125 142.630326)scale(0.1 -0.1)">
       <use xlink:href="#DejaVuSans-32"/>
       <use x="63.623047" xlink:href="#DejaVuSans-30"/>
       <use x="127.246094" xlink:href="#DejaVuSans-30"/>
      </g>
     </g>
    </g>
    <g id="ytick_6">
     <g id="line2d_14">
      <g>
       <use style="stroke:#000000;stroke-width:0.8;" x="54" xlink:href="#m47a3a2f99e" y="113.009586"/>
      </g>
     </g>
     <g id="text_15">
      <!-- 250 -->
      <g transform="translate(27.9125 116.808805)scale(0.1 -0.1)">
       <use xlink:href="#DejaVuSans-32"/>
       <use x="63.623047" xlink:href="#DejaVuSans-35"/>
       <use x="127.246094" xlink:href="#DejaVuSans-30"/>
      </g>
     </g>
    </g>
    <g id="ytick_7">
     <g id="line2d_15">
      <g>
       <use style="stroke:#000000;stroke-width:0.8;" x="54" xlink:href="#m47a3a2f99e" y="87.188065"/>
      </g>
     </g>
     <g id="text_16">
      <!-- 300 -->
      <g transform="translate(27.9125 90.987284)scale(0.1 -0.1)">
       <defs>
        <path d="M 2597 2516 
Q 3050 2419 3304 2112 
Q 3559 1806 3559 1356 
Q 3559 666 3084 287 
Q 2609 -91 1734 -91 
Q 1441 -91 1130 -33 
Q 819 25 488 141 
L 488 750 
Q 750 597 1062 519 
Q 1375 441 1716 441 
Q 2309 441 2620 675 
Q 2931 909 2931 1356 
Q 2931 1769 2642 2001 
Q 2353 2234 1838 2234 
L 1294 2234 
L 1294 2753 
L 1863 2753 
Q 2328 2753 2575 2939 
Q 2822 3125 2822 3475 
Q 2822 3834 2567 4026 
Q 2313 4219 1838 4219 
Q 1578 4219 1281 4162 
Q 984 4106 628 3988 
L 628 4550 
Q 988 4650 1302 4700 
Q 1616 4750 1894 4750 
Q 2613 4750 3031 4423 
Q 3450 4097 3450 3541 
Q 3450 3153 3228 2886 
Q 3006 2619 2597 2516 
z
" id="DejaVuSans-33" transform="scale(0.015625)"/>
       </defs>
       <use xlink:href="#DejaVuSans-33"/>
       <use x="63.623047" xlink:href="#DejaVuSans-30"/>
       <use x="127.246094" xlink:href="#DejaVuSans-30"/>
      </g>
     </g>
    </g>
    <g id="ytick_8">
     <g id="line2d_16">
      <g>
       <use style="stroke:#000000;stroke-width:0.8;" x="54" xlink:href="#m47a3a2f99e" y="61.366545"/>
      </g>
     </g>
     <g id="text_17">
      <!-- 350 -->
      <g transform="translate(27.9125 65.165763)scale(0.1 -0.1)">
       <use xlink:href="#DejaVuSans-33"/>
       <use x="63.623047" xlink:href="#DejaVuSans-35"/>
       <use x="127.246094" xlink:href="#DejaVuSans-30"/>
      </g>
     </g>
    </g>
    <g id="ytick_9">
     <g id="line2d_17">
      <g>
       <use style="stroke:#000000;stroke-width:0.8;" x="54" xlink:href="#m47a3a2f99e" y="35.545024"/>
      </g>
     </g>
     <g id="text_18">
      <!-- 400 -->
      <g transform="translate(27.9125 39.344243)scale(0.1 -0.1)">
       <use xlink:href="#DejaVuSans-34"/>
       <use x="63.623047" xlink:href="#DejaVuSans-30"/>
       <use x="127.246094" xlink:href="#DejaVuSans-30"/>
      </g>
     </g>
    </g>
    <g id="text_19">
     <!-- tiempo -->
     <g transform="translate(21.832812 160.809687)rotate(-90)scale(0.1 -0.1)">
      <defs>
       <path d="M 1172 4494 
L 1172 3500 
L 2356 3500 
L 2356 3053 
L 1172 3053 
L 1172 1153 
Q 1172 725 1289 603 
Q 1406 481 1766 481 
L 2356 481 
L 2356 0 
L 1766 0 
Q 1100 0 847 248 
Q 594 497 594 1153 
L 594 3053 
L 172 3053 
L 172 3500 
L 594 3500 
L 594 4494 
L 1172 4494 
z
" id="DejaVuSans-74" transform="scale(0.015625)"/>
       <path d="M 603 3500 
L 1178 3500 
L 1178 0 
L 603 0 
L 603 3500 
z
M 603 4863 
L 1178 4863 
L 1178 4134 
L 603 4134 
L 603 4863 
z
" id="DejaVuSans-69" transform="scale(0.015625)"/>
       <path d="M 3597 1894 
L 3597 1613 
L 953 1613 
Q 991 1019 1311 708 
Q 1631 397 2203 397 
Q 2534 397 2845 478 
Q 3156 559 3463 722 
L 3463 178 
Q 3153 47 2828 -22 
Q 2503 -91 2169 -91 
Q 1331 -91 842 396 
Q 353 884 353 1716 
Q 353 2575 817 3079 
Q 1281 3584 2069 3584 
Q 2775 3584 3186 3129 
Q 3597 2675 3597 1894 
z
M 3022 2063 
Q 3016 2534 2758 2815 
Q 2500 3097 2075 3097 
Q 1594 3097 1305 2825 
Q 1016 2553 972 2059 
L 3022 2063 
z
" id="DejaVuSans-65" transform="scale(0.015625)"/>
       <path d="M 3328 2828 
Q 3544 3216 3844 3400 
Q 4144 3584 4550 3584 
Q 5097 3584 5394 3201 
Q 5691 2819 5691 2113 
L 5691 0 
L 5113 0 
L 5113 2094 
Q 5113 2597 4934 2840 
Q 4756 3084 4391 3084 
Q 3944 3084 3684 2787 
Q 3425 2491 3425 1978 
L 3425 0 
L 2847 0 
L 2847 2094 
Q 2847 2600 2669 2842 
Q 2491 3084 2119 3084 
Q 1678 3084 1418 2786 
Q 1159 2488 1159 1978 
L 1159 0 
L 581 0 
L 581 3500 
L 1159 3500 
L 1159 2956 
Q 1356 3278 1631 3431 
Q 1906 3584 2284 3584 
Q 2666 3584 2933 3390 
Q 3200 3197 3328 2828 
z
" id="DejaVuSans-6d" transform="scale(0.015625)"/>
       <path d="M 1159 525 
L 1159 -1331 
L 581 -1331 
L 581 3500 
L 1159 3500 
L 1159 2969 
Q 1341 3281 1617 3432 
Q 1894 3584 2278 3584 
Q 2916 3584 3314 3078 
Q 3713 2572 3713 1747 
Q 3713 922 3314 415 
Q 2916 -91 2278 -91 
Q 1894 -91 1617 61 
Q 1341 213 1159 525 
z
M 3116 1747 
Q 3116 2381 2855 2742 
Q 2594 3103 2138 3103 
Q 1681 3103 1420 2742 
Q 1159 2381 1159 1747 
Q 1159 1113 1420 752 
Q 1681 391 2138 391 
Q 2594 391 2855 752 
Q 3116 1113 3116 1747 
z
" id="DejaVuSans-70" transform="scale(0.015625)"/>
       <path d="M 1959 3097 
Q 1497 3097 1228 2736 
Q 959 2375 959 1747 
Q 959 1119 1226 758 
Q 1494 397 1959 397 
Q 2419 397 2687 759 
Q 2956 1122 2956 1747 
Q 2956 2369 2687 2733 
Q 2419 3097 1959 3097 
z
M 1959 3584 
Q 2709 3584 3137 3096 
Q 3566 2609 3566 1747 
Q 3566 888 3137 398 
Q 2709 -91 1959 -91 
Q 1206 -91 779 398 
Q 353 888 353 1747 
Q 353 2609 779 3096 
Q 1206 3584 1959 3584 
z
" id="DejaVuSans-6f" transform="scale(0.015625)"/>
      </defs>
      <use xlink:href="#DejaVuSans-74"/>
      <use x="39.208984" xlink:href="#DejaVuSans-69"/>
      <use x="66.992188" xlink:href="#DejaVuSans-65"/>
      <use x="128.515625" xlink:href="#DejaVuSans-6d"/>
      <use x="225.927734" xlink:href="#DejaVuSans-70"/>
      <use x="289.404297" xlink:href="#DejaVuSans-6f"/>
     </g>
    </g>
   </g>
   <g id="patch_3">
    <path d="M 54 252 
L 54 34.56 
" style="fill:none;stroke:#000000;stroke-linecap:square;stroke-linejoin:miter;stroke-width:0.8;"/>
   </g>
   <g id="patch_4">
    <path d="M 388.8 252 
L 388.8 34.56 
" style="fill:none;stroke:#000000;stroke-linecap:square;stroke-linejoin:miter;stroke-width:0.8;"/>
   </g>
   <g id="patch_5">
    <path d="M 54 252 
L 388.8 252 
" style="fill:none;stroke:#000000;stroke-linecap:square;stroke-linejoin:miter;stroke-width:0.8;"/>
   </g>
   <g id="patch_6">
    <path d="M 54 34.56 
L 388.8 34.56 
" style="fill:none;stroke:#000000;stroke-linecap:square;stroke-linejoin:miter;stroke-width:0.8;"/>
   </g>
   <g id="legend_1">
    <g id="patch_7">
     <path d="M 61 71.91625 
L 132.242188 71.91625 
Q 134.242188 71.91625 134.242188 69.91625 
L 134.242188 41.56 
Q 134.242188 39.56 132.242188 39.56 
L 61 39.56 
Q 59 39.56 59 41.56 
L 59 69.91625 
Q 59 71.91625 61 71.91625 
z
" style="fill:#ffffff;opacity:0.8;stroke:#cccccc;stroke-linejoin:miter;"/>
    </g>
    <g id="PathCollection_3">
     <g>
      <use style="fill:#1f77b4;stroke:#ffffff;stroke-width:0.48;" x="73" xlink:href="#m6c7479176f" y="48.533437"/>
     </g>
    </g>
    <g id="text_20">
     <!-- pocos -->
     <g transform="translate(91 51.158437)scale(0.1 -0.1)">
      <defs>
       <path d="M 3122 3366 
L 3122 2828 
Q 2878 2963 2633 3030 
Q 2388 3097 2138 3097 
Q 1578 3097 1268 2742 
Q 959 2388 959 1747 
Q 959 1106 1268 751 
Q 1578 397 2138 397 
Q 2388 397 2633 464 
Q 2878 531 3122 666 
L 3122 134 
Q 2881 22 2623 -34 
Q 2366 -91 2075 -91 
Q 1284 -91 818 406 
Q 353 903 353 1747 
Q 353 2603 823 3093 
Q 1294 3584 2113 3584 
Q 2378 3584 2631 3529 
Q 2884 3475 3122 3366 
z
" id="DejaVuSans-63" transform="scale(0.015625)"/>
       <path d="M 2834 3397 
L 2834 2853 
Q 2591 2978 2328 3040 
Q 2066 3103 1784 3103 
Q 1356 3103 1142 2972 
Q 928 2841 928 2578 
Q 928 2378 1081 2264 
Q 1234 2150 1697 2047 
L 1894 2003 
Q 2506 1872 2764 1633 
Q 3022 1394 3022 966 
Q 3022 478 2636 193 
Q 2250 -91 1575 -91 
Q 1294 -91 989 -36 
Q 684 19 347 128 
L 347 722 
Q 666 556 975 473 
Q 1284 391 1588 391 
Q 1994 391 2212 530 
Q 2431 669 2431 922 
Q 2431 1156 2273 1281 
Q 2116 1406 1581 1522 
L 1381 1569 
Q 847 1681 609 1914 
Q 372 2147 372 2553 
Q 372 3047 722 3315 
Q 1072 3584 1716 3584 
Q 2034 3584 2315 3537 
Q 2597 3491 2834 3397 
z
" id="DejaVuSans-73" transform="scale(0.015625)"/>
      </defs>
      <use xlink:href="#DejaVuSans-70"/>
      <use x="63.476562" xlink:href="#DejaVuSans-6f"/>
      <use x="124.658203" xlink:href="#DejaVuSans-63"/>
      <use x="179.638672" xlink:href="#DejaVuSans-6f"/>
      <use x="240.820312" xlink:href="#DejaVuSans-73"/>
     </g>
    </g>
    <g id="PathCollection_4">
     <g>
      <use style="fill:#ff7f0e;stroke:#ffffff;stroke-width:0.48;" x="73" xlink:href="#m0265add904" y="63.211562"/>
     </g>
    </g>
    <g id="text_21">
     <!-- muchos -->
     <g transform="translate(91 65.836562)scale(0.1 -0.1)">
      <defs>
       <path d="M 544 1381 
L 544 3500 
L 1119 3500 
L 1119 1403 
Q 1119 906 1312 657 
Q 1506 409 1894 409 
Q 2359 409 2629 706 
Q 2900 1003 2900 1516 
L 2900 3500 
L 3475 3500 
L 3475 0 
L 2900 0 
L 2900 538 
Q 2691 219 2414 64 
Q 2138 -91 1772 -91 
Q 1169 -91 856 284 
Q 544 659 544 1381 
z
M 1991 3584 
L 1991 3584 
z
" id="DejaVuSans-75" transform="scale(0.015625)"/>
       <path d="M 3513 2113 
L 3513 0 
L 2938 0 
L 2938 2094 
Q 2938 2591 2744 2837 
Q 2550 3084 2163 3084 
Q 1697 3084 1428 2787 
Q 1159 2491 1159 1978 
L 1159 0 
L 581 0 
L 581 4863 
L 1159 4863 
L 1159 2956 
Q 1366 3272 1645 3428 
Q 1925 3584 2291 3584 
Q 2894 3584 3203 3211 
Q 3513 2838 3513 2113 
z
" id="DejaVuSans-68" transform="scale(0.015625)"/>
      </defs>
      <use xlink:href="#DejaVuSans-6d"/>
      <use x="97.412109" xlink:href="#DejaVuSans-75"/>
      <use x="160.791016" xlink:href="#DejaVuSans-63"/>
      <use x="215.771484" xlink:href="#DejaVuSans-68"/>
      <use x="279.150391" xlink:href="#DejaVuSans-6f"/>
      <use x="340.332031" xlink:href="#DejaVuSans-73"/>
     </g>
    </g>
   </g>
  </g>
 </g>
 <defs>
  <clipPath id="p969a131be1">
   <rect height="217.44" width="334.8" x="54" y="34.56"/>
  </clipPath>
 </defs>
</svg>
